<?xml version="1.0" standalone="no"?>
<!DOCTYPE svg PUBLIC "-//W3C//DTD SVG 1.1//EN" "http://www.w3.org/Graphics/SVG/1.1/DTD/svg11.dtd" >
<svg xmlns="http://www.w3.org/2000/svg" xmlns:xlink="http://www.w3.org/1999/xlink" version="1.1">
<metadata>
Created by FontForge 20200427 at Thu Apr 10 04:26:59 2008
 By www
Copyright (c) 2008 by Dino dos Santos _DSType. All rights reserved.
</metadata>
<defs>
<font id="Prelo-Medium" horiz-adv-x="600" >
  <font-face 
    font-family="Prelo Medium"
    font-weight="400"
    font-stretch="normal"
    units-per-em="1000"
    panose-1="2 0 5 6 4 0 0 2 0 4"
    ascent="750"
    descent="-250"
    x-height="500"
    cap-height="680"
    bbox="-80 -290 1057 950"
    underline-thickness="50"
    underline-position="-100"
    unicode-range="U+0020-FB05"
  />
<missing-glyph horiz-adv-x="590" 
d="M70 500h450v-500h-450v500zM287 249l-206 236v-469zM304 249l205 -231v465zM93 488l203 -229l202 229h-405zM296 240l-201 -228h401z" />
    <glyph glyph-name="ff" unicode="ff" horiz-adv-x="640" 
d="M390 500v44q0 84 33.5 120t111.5 36q37 0 80 -8l-9 -70q-26 5 -51 5q-43 0 -59 -23.5t-16 -74.5v-29h130v-65h-130v-435h-90v435h-205v-435h-90v435h-75v59l75 6v44q0 84 33.5 120t111.5 36q37 0 80 -8l-9 -70q-26 5 -51 5q-43 0 -59 -23.5t-16 -74.5v-29h205z" />
    <glyph glyph-name="fi" unicode="fi" horiz-adv-x="535" 
d="M95 500v29q0 86 45.5 128.5t144.5 42.5q34 0 87.5 -9t87.5 -24l-10 -65q-68 25 -155 25q-64 0 -87 -24.5t-23 -73.5v-29h295v-500h-90v435h-205v-435h-90v435h-75v59z" />
    <glyph glyph-name="fl" unicode="fl" horiz-adv-x="535" 
d="M185 435v-435h-90v435h-75v59l75 6v29q0 86 45.5 128.5t144.5 42.5q70 0 130 -23h65v-677h-90v607q-51 20 -95 20q-65 0 -87.5 -24t-22.5 -74v-29h130v-65h-130z" />
    <glyph glyph-name="ffi" unicode="ffi" horiz-adv-x="830" 
d="M390 435h-205v-435h-90v435h-75v59l75 6v44q0 84 33.5 120t111.5 36q37 0 80 -8l-9 -70q-26 5 -51 5q-43 0 -59 -23.5t-16 -74.5v-29h205v29q0 86 45.5 128.5t144.5 42.5q34 0 87.5 -9t87.5 -24l-10 -65q-68 25 -155 25q-64 0 -87 -24.5t-23 -73.5v-29h295v-500h-90v435
h-205v-435h-90v435z" />
    <glyph glyph-name="ffl" unicode="ffl" horiz-adv-x="830" 
d="M390 435h-205v-435h-90v435h-75v59l75 6v44q0 84 33.5 120t111.5 36q37 0 80 -8l-9 -70q-26 5 -51 5q-43 0 -59 -23.5t-16 -74.5v-29h205v29q0 86 45.5 128.5t144.5 42.5q70 0 130 -23h65v-677h-90v607q-51 20 -95 20q-65 0 -87.5 -24t-22.5 -74v-29h130v-65h-130v-435
h-90v435z" />
    <glyph glyph-name="T_h" unicode="Th" horiz-adv-x="1030" 
d="M645 377v-377h-90v595h-228v-595h-95v595h-187v85h600v-250h2q82 80 178 80q74 0 112 -42.5t38 -122.5v-345h-90v325q0 110 -100 110q-64 0 -140 -58z" />
    <glyph glyph-name="T_h.caron" unicode="&#x164;h" horiz-adv-x="1030" 
d="M645 377v-377h-90v595h-228v-595h-95v595h-187v85h600v-250h2q82 80 178 80q74 0 112 -42.5t38 -122.5v-345h-90v325q0 110 -100 110q-64 0 -140 -58zM196 840l85 -80l85 80h50l-108 -120h-55l-107 120h50z" />
    <glyph glyph-name="T_h.commaaccent" unicode="&#x162;h" horiz-adv-x="1030" 
d="M645 377v-377h-90v595h-228v-595h-95v595h-187v85h600v-250h2q82 80 178 80q74 0 112 -42.5t38 -122.5v-345h-90v325q0 110 -100 110q-64 0 -140 -58zM277 -205h-29l18 85h-25v80h80v-80z" />
    <glyph glyph-name="f_f_j" unicode="ffj" horiz-adv-x="830" 
d="M685 -65v500h-205v-435h-90v435h-205v-435h-90v435h-75v59l75 6v44q0 84 33.5 120t111.5 36q37 0 80 -8l-9 -70q-26 5 -51 5q-43 0 -59 -23.5t-16 -74.5v-29h205v29q0 86 45.5 128.5t144.5 42.5q34 0 87.5 -9t87.5 -24l-10 -65q-68 25 -155 25q-64 0 -87 -24.5t-23 -73.5
v-29h295v-573q0 -73 -32 -105t-113 -32q-34 0 -80 7l8 70q37 -5 52 -5q42 0 58.5 15.5t16.5 57.5z" />
    <glyph glyph-name="f_j" unicode="fj" horiz-adv-x="535" 
d="M390 -65v500h-205v-435h-90v435h-75v59l75 6v29q0 86 45.5 128.5t144.5 42.5q34 0 87.5 -9t87.5 -24l-10 -65q-68 25 -155 25q-64 0 -87 -24.5t-23 -73.5v-29h295v-573q0 -73 -32 -105t-113 -32q-35 0 -80 7l8 70q37 -5 52 -5q42 0 58.5 15.5t16.5 57.5z" />
    <glyph glyph-name=".notdef" horiz-adv-x="590" 
d="M70 500h450v-500h-450v500zM287 249l-206 236v-469zM304 249l205 -231v465zM93 488l203 -229l202 229h-405zM296 240l-201 -228h401z" />
    <glyph glyph-name=".null" horiz-adv-x="0" 
 />
    <glyph glyph-name="nonmarkingreturn" horiz-adv-x="333" 
 />
    <glyph glyph-name="space" unicode=" " horiz-adv-x="180" 
 />
    <glyph glyph-name="exclam" unicode="!" horiz-adv-x="200" 
d="M55 130h90v-130h-90v130zM55 680h90l-5 -465h-80z" />
    <glyph glyph-name="quotedbl" unicode="&#x22;" horiz-adv-x="400" 
d="M55 680h90l-10 -135h-70zM255 680h90l-10 -135h-70z" />
    <glyph glyph-name="numbersign" unicode="#" horiz-adv-x="608" 
d="M195 500h65l-12 -115h140l12 115h65l-12 -115h100l-6 -60h-100l-16 -150h100l-6 -60h-100l-13 -115h-65l13 115h-140l-13 -115h-65l13 115h-100l6 60h100l16 150h-100l6 60h100zM242 325l-16 -150h140l16 150h-140z" />
    <glyph glyph-name="dollar" unicode="$" 
d="M322 -100h-40v90q-127 4 -227 35l16 80q116 -30 229 -30q73 0 109 31.5t36 77.5q0 13 -3.5 25t-12 21.5t-15.5 17.5t-21.5 15t-22.5 11.5t-26 10.5t-24.5 8t-25 6.5t-20.5 5.5q-209 57 -209 205q0 88 59.5 132t157.5 47v91h40v-91q95 -3 208 -34l-22 -80q-121 30 -208 30
q-73 0 -104 -27.5t-31 -70.5q0 -19 8 -35.5t24.5 -28.5t31 -21t39.5 -17t37 -11t35 -9q205 -48 205 -195q0 -92 -61.5 -143.5t-161.5 -55.5v-91z" />
    <glyph glyph-name="percent" unicode="%" horiz-adv-x="760" 
d="M595 680l-370 -680h-60l370 680h60zM181 406q-66 0 -101 37t-35 102q0 66 35 103t101 37q65 0 100.5 -37.5t35.5 -102.5t-35.5 -102t-100.5 -37zM181 453q78 0 78 92q0 93 -78 93q-79 0 -79 -93q0 -92 79 -92zM579 -5q-66 0 -101 37t-35 102q0 66 35 103t101 37
q65 0 100.5 -37.5t35.5 -102.5t-35.5 -102t-100.5 -37zM579 42q78 0 78 92q0 93 -78 93q-79 0 -79 -93q0 -92 79 -92z" />
    <glyph glyph-name="ampersand" unicode="&#x26;" horiz-adv-x="705" 
d="M500 534q0 -99 -157 -176l175 -172q52 67 67 164h85q-18 -130 -94 -224l84 -86l-59 -64l-88 91q-94 -77 -228 -77q-116 0 -174.5 50t-58.5 134q0 58 36 104t129 92q-27 32 -40 48t-27.5 47.5t-14.5 60.5q0 79 56 121.5t134 42.5q82 0 128.5 -41t46.5 -115zM295 67
q96 0 162 59l-193 197q-56 -28 -86.5 -59.5t-30.5 -76.5q0 -47 35.5 -83.5t112.5 -36.5zM222 531q0 -33 17 -60t52 -64q123 62 123 130q0 50 -29.5 70t-62.5 20q-54 0 -77 -30.5t-23 -65.5z" />
    <glyph glyph-name="quotesingle" unicode="'" horiz-adv-x="200" 
d="M55 680h90l-10 -135h-70z" />
    <glyph glyph-name="parenleft" unicode="(" horiz-adv-x="330" 
d="M62 340q0 124 45 249.5t128 230.5h60q-143 -236 -143 -480q0 -237 143 -480h-60q-82 105 -127.5 231t-45.5 249z" />
    <glyph glyph-name="parenright" unicode=")" horiz-adv-x="330" 
d="M267 340q0 -124 -45 -249.5t-127 -230.5h-60q142 244 142 480q0 243 -142 480h60q82 -105 127 -230t45 -250z" />
    <glyph glyph-name="asterisk" unicode="*" horiz-adv-x="416" 
d="M188 553l-6 127h53l-7 -127l132 40l16 -52l-136 -20l89 -108l-41 -32l-81 121l-79 -121l-41 32l89 108l-136 20l15 52z" />
    <glyph glyph-name="plus" unicode="+" horiz-adv-x="500" 
d="M287 460v-158h158v-75h-158v-157h-75v157h-157v75h157v158h75z" />
    <glyph glyph-name="comma" unicode="," horiz-adv-x="200" 
d="M100 -130h-30l20 130h-35v130h90v-130z" />
    <glyph glyph-name="hyphen" unicode="-" horiz-adv-x="500" 
d="M55 302h390v-75h-390v75z" />
    <glyph glyph-name="period" unicode="." horiz-adv-x="200" 
d="M55 130h90v-130h-90v130z" />
    <glyph glyph-name="slash" unicode="/" horiz-adv-x="540" 
d="M495 680l-370 -680h-80l370 680h80z" />
    <glyph glyph-name="zero" unicode="0" horiz-adv-x="590" 
d="M295 615q-43 0 -72.5 -21t-44.5 -60.5t-21.5 -84.5t-6.5 -104q0 -280 145 -280t145 280q0 270 -145 270zM295 -10q-70 0 -118.5 27.5t-74 78.5t-36.5 111t-11 138q0 76 11 134.5t36.5 108t74 76t118.5 26.5t118.5 -26.5t74 -76t36.5 -108t11 -134.5q0 -78 -11 -138
t-36.5 -111t-74.5 -78.5t-118 -27.5z" />
    <glyph glyph-name="one" unicode="1" horiz-adv-x="370" 
d="M215 577l-166 -87l-24 75q146 65 215 120h65v-685h-90v577z" />
    <glyph glyph-name="two" unicode="2" horiz-adv-x="550" 
d="M250 607q-81 0 -168 -39l-27 72q114 50 215 50q105 0 160 -57.5t55 -145.5q0 -103 -74.5 -200t-228.5 -205v-2h313v-80h-440v87q335 221 335 380q0 44 -15 74t-39 43t-44.5 18t-41.5 5z" />
    <glyph glyph-name="three" unicode="3" horiz-adv-x="570" 
d="M366 350v-2q70 -14 109.5 -59.5t39.5 -108.5q0 -91 -61 -140.5t-177 -49.5q-129 0 -222 47l28 70q83 -42 189 -42q46 0 78 12t46.5 32.5t20 38t5.5 37.5q0 55 -40.5 86t-121.5 31h-85v75h81q75 0 112 37t37 88q0 44 -30 78.5t-103 34.5q-86 0 -173 -42l-28 69
q99 48 216 48q95 0 151.5 -47t56.5 -131q0 -60 -35 -101t-94 -61z" />
    <glyph glyph-name="four" unicode="4" horiz-adv-x="590" 
d="M138 250h222v312h-2q-74 -144 -220 -312zM337 680h113v-430h95v-75h-95v-175h-90v175h-315v75q197 215 292 430z" />
    <glyph glyph-name="five" unicode="5" horiz-adv-x="570" 
d="M270 -10q-111 0 -215 50l27 69q92 -44 183 -44q72 0 113.5 40.5t41.5 109.5q0 58 -32 100t-103 42q-79 0 -130 -66l-66 6l16 383h370v-80h-292l-14 -228l2 -1q60 64 145 64q92 0 145.5 -56.5t53.5 -158.5q0 -111 -65.5 -170.5t-179.5 -59.5z" />
    <glyph glyph-name="six" unicode="6" horiz-adv-x="570" 
d="M145 368l2 -1q29 40 71 64t89 24q98 0 153 -61.5t55 -173.5q0 -106 -62.5 -168t-159.5 -62q-66 0 -113.5 25.5t-74 70.5t-38.5 98t-12 116q0 109 22 187t62.5 121t89.5 62.5t110 19.5q74 0 155 -26l-12 -69q-77 20 -136 20q-51 0 -91 -23.5t-63 -61t-35 -79t-12 -83.5z
M152 296q-12 -231 135 -231q56 0 94.5 41t38.5 114q0 39 -10 71.5t-42 58.5t-84 26q-75 0 -132 -80z" />
    <glyph glyph-name="seven" unicode="7" horiz-adv-x="500" 
d="M356 598v2h-311v80h410v-65q-93 -154 -158.5 -303.5t-91.5 -311.5h-100q21 135 94 303t157 295z" />
    <glyph glyph-name="eight" unicode="8" horiz-adv-x="590" 
d="M376 359v-2q78 -34 118.5 -75.5t40.5 -104.5q0 -89 -66.5 -138t-176.5 -49q-108 0 -172.5 46t-64.5 132q0 119 158 177v2q-138 58 -138 169q0 81 63 127.5t159 46.5q93 0 155.5 -46t62.5 -124q0 -58 -35 -94t-104 -67zM147 177q0 -51 36.5 -85.5t114.5 -34.5
q75 0 109.5 32t34.5 81q0 29 -12.5 51.5t-42.5 40.5t-47 25.5t-58 23.5q-135 -48 -135 -134zM292 622q-48 0 -87.5 -25.5t-39.5 -79.5q0 -86 140 -126q120 42 120 121q0 57 -40.5 83.5t-92.5 26.5z" />
    <glyph glyph-name="nine" unicode="9" horiz-adv-x="570" 
d="M425 312l-2 1q-65 -88 -161 -88q-97 0 -152 61.5t-55 173.5q0 106 62 168t160 62q66 0 113.5 -25.5t74 -70.5t38.5 -98t12 -116q0 -109 -22 -187t-62.5 -121t-89.5 -62.5t-110 -19.5q-78 0 -155 25l11 70q77 -20 136 -20q51 0 91 23.5t63 61t35 79t13 83.5zM417 383
q12 232 -135 232q-56 0 -94 -41t-38 -114q0 -40 10 -72.5t42 -58.5t84 -26q74 0 131 80z" />
    <glyph glyph-name="colon" unicode=":" horiz-adv-x="200" 
d="M55 130h90v-130h-90v130zM55 460h90v-130h-90v130z" />
    <glyph glyph-name="semicolon" unicode=";" horiz-adv-x="200" 
d="M55 460h90v-130h-90v130zM100 -130h-30l20 130h-35v130h90v-130z" />
    <glyph glyph-name="less" unicode="&#x3c;" horiz-adv-x="380" 
d="M55 277l270 163v-81l-175 -109l175 -109v-81l-270 162v55z" />
    <glyph glyph-name="equal" unicode="=" horiz-adv-x="500" 
d="M55 402h390v-75h-390v75zM55 202h390v-75h-390v75z" />
    <glyph glyph-name="greater" unicode="&#x3e;" horiz-adv-x="380" 
d="M325 222l-270 -167v81l175 114l-175 114v81l270 -168v-55z" />
    <glyph glyph-name="question" unicode="?" horiz-adv-x="480" 
d="M240 690q56 0 96 -16t60.5 -43t29.5 -55.5t9 -60.5q0 -49 -19 -86t-46.5 -58.5t-54.5 -39.5t-46 -40.5t-19 -50.5v-30h-80v30q0 41 17.5 71.5t43 50t51 38.5t43 45.5t17.5 60.5q0 99 -122 99q-60 0 -149 -31l-26 77q95 39 195 39zM165 130h90v-130h-90v130z" />
    <glyph glyph-name="at" unicode="@" horiz-adv-x="830" 
d="M566 332v-213q49 0 85.5 20t55 52.5t27 65.5t8.5 66q0 124 -89 200t-219 76q-152 0 -249 -96t-97 -250q0 -140 89.5 -231t226.5 -91l-5 -51q-161 0 -265 106t-104 267q0 174 114.5 286.5t289.5 112.5q154 0 260 -91.5t106 -234.5q0 -112 -64.5 -186t-181.5 -74h-60v39h-1
q-47 -46 -122 -46q-57 0 -90.5 31t-33.5 82q0 120 164 120h83v36q0 39 -19 58.5t-66 19.5q-53 0 -128 -22l-13 48q87 29 159 29q69 0 104 -29t35 -100zM494 146v103h-81q-51 0 -73 -18t-22 -53q0 -30 21 -47t58 -17q58 0 97 32z" />
    <glyph glyph-name="A" unicode="A" horiz-adv-x="650" 
d="M509 0l-56 172h-260l-58 -172h-100l234 685h117l229 -685h-106zM326 566h-2l-111 -314h220z" />
    <glyph glyph-name="B" unicode="B" horiz-adv-x="610" 
d="M434 350v-2q62 -14 96.5 -57.5t34.5 -108.5q0 -85 -52.5 -133.5t-152.5 -48.5h-295v680h275q99 0 152 -46.5t53 -126.5q0 -58 -29.5 -99.5t-81.5 -57.5zM335 305h-175v-220h185q120 0 120 110t-130 110zM445 492q0 49 -29.5 76t-85.5 27h-170v-205h170q115 0 115 102z
" />
    <glyph glyph-name="C" unicode="C" horiz-adv-x="620" 
d="M55 345q0 76 13 134.5t44 108t90 76t143 26.5q116 0 235 -35l-22 -80q-124 30 -206 30q-57 0 -96.5 -19.5t-61 -56.5t-30.5 -81.5t-9 -102.5q0 -129 43.5 -199.5t153.5 -70.5q82 0 206 30l22 -80q-119 -35 -235 -35q-68 0 -119.5 18.5t-83.5 50t-52 78t-27.5 96.5
t-7.5 112z" />
    <glyph glyph-name="D" unicode="D" horiz-adv-x="650" 
d="M307 0h-242v680h242q81 0 138.5 -25t89.5 -72t46 -105t14 -133q0 -345 -288 -345zM160 85h147q106 0 147 68.5t41 191.5q0 121 -40.5 185.5t-147.5 64.5h-147v-510z" />
    <glyph glyph-name="E" unicode="E" horiz-adv-x="560" 
d="M500 680v-85h-340v-200h295v-85h-295v-225h345v-85h-440v680h435z" />
    <glyph glyph-name="F" unicode="F" horiz-adv-x="535" 
d="M490 680v-85h-330v-220h285v-85h-285v-290h-95v680h425z" />
    <glyph glyph-name="G" unicode="G" horiz-adv-x="640" 
d="M345 -10q-68 0 -119.5 18.5t-83.5 50t-52 78t-27.5 96.5t-7.5 112q0 76 13 134.5t44 108t90 76t143 26.5q111 0 230 -35l-22 -80q-124 30 -201 30q-57 0 -96.5 -19.5t-61 -56.5t-30.5 -81.5t-9 -102.5q0 -129 43.5 -199.5t153.5 -70.5q67 0 128 33v157h-130v85h225v-306
q-64 -27 -114.5 -40.5t-115.5 -13.5z" />
    <glyph glyph-name="H" unicode="H" horiz-adv-x="640" 
d="M160 0h-95v680h95v-285h320v285h95v-680h-95v310h-320v-310z" />
    <glyph glyph-name="I" unicode="I" horiz-adv-x="225" 
d="M160 0h-95v680h95v-680z" />
    <glyph glyph-name="J" unicode="J" horiz-adv-x="335" 
d="M270 680v-510q0 -97 -40.5 -138.5t-119.5 -41.5q-46 0 -93 7l9 80q38 -5 59 -5q46 0 68 24t22 79v505h95z" />
    <glyph glyph-name="K" unicode="K" horiz-adv-x="627" 
d="M160 680v-353l311 353h114l-245 -282l250 -398h-119l-200 322l-111 -125v-197h-95v680h95z" />
    <glyph glyph-name="L" unicode="L" horiz-adv-x="540" 
d="M65 680h95v-595h335v-85h-430v680z" />
    <glyph glyph-name="M" unicode="M" horiz-adv-x="800" 
d="M190 680l212 -522h2l206 522h125v-680h-95v505h-2l-206 -505h-70l-203 505h-2v-505h-92v680h125z" />
    <glyph glyph-name="N" unicode="N" horiz-adv-x="650" 
d="M157 0h-92v680h95l330 -505h2v505h93v-680h-95l-331 494h-2v-494z" />
    <glyph glyph-name="O" unicode="O" horiz-adv-x="690" 
d="M345 610q-59 0 -98 -20t-58.5 -59t-26.5 -82.5t-7 -103.5q0 -61 7 -105.5t26.5 -85.5t58.5 -62.5t98 -21.5q47 0 82 15t55 39.5t32.5 61.5t16.5 74t4 85q0 47 -4 83.5t-16.5 72t-33 58.5t-55 37t-81.5 14zM345 -10q-84 0 -143 27.5t-90 78.5t-44 111t-13 138
q0 76 13 134.5t44 108t90 76t143 26.5t142.5 -26.5t90 -76t44.5 -108t13 -134.5q0 -78 -13 -138t-44.5 -111t-90 -78.5t-142.5 -27.5z" />
    <glyph glyph-name="P" unicode="P" 
d="M345 270h-185v-270h-95v680h280q99 0 154.5 -56.5t55.5 -148.5q0 -95 -55 -150t-155 -55zM160 595v-240h175q122 0 122 120q0 57 -32.5 88.5t-89.5 31.5h-175z" />
    <glyph glyph-name="Q" unicode="Q" horiz-adv-x="690" 
d="M55 345q0 76 13 134.5t44 108t90 76t143 26.5t142.5 -26.5t90 -76t44.5 -108t13 -134.5q0 -311 -228 -323q17 -32 111 -40q49 -2 102 3v-85q-56 -8 -107 -3q-138 12 -189 93q-269 11 -269 355zM345 610q-59 0 -98 -20t-58.5 -59t-26.5 -82.5t-7 -103.5q0 -61 7 -105.5
t26.5 -85.5t58.5 -62.5t98 -21.5q47 0 82 15t55 39.5t32.5 61.5t16.5 74t4 85q0 47 -4 83.5t-16.5 72t-33 58.5t-55 37t-81.5 14z" />
    <glyph glyph-name="R" unicode="R" horiz-adv-x="615" 
d="M577 0h-111l-161 265h-145v-265h-95v680h280q99 0 154.5 -57.5t55.5 -150.5q0 -74 -39.5 -126t-111.5 -66zM160 595v-245h170q58 0 92.5 31t34.5 91q0 58 -32.5 90.5t-89.5 32.5h-175z" />
    <glyph glyph-name="S" unicode="S" 
d="M300 -10q-126 0 -245 35l16 80q125 -30 229 -30q71 0 108 31t37 76q0 27 -13 47.5t-39.5 34.5t-47 20.5t-55.5 16.5q-10 3 -15 4q-93 24 -151.5 74.5t-58.5 130.5q0 92 65 136t170 44q111 0 230 -35l-22 -80q-124 30 -208 30q-70 0 -102.5 -27t-32.5 -71
q0 -27 15.5 -48.5t45 -35.5t53.5 -21.5t61 -16.5q205 -47 205 -195q0 -98 -67.5 -149t-177.5 -51z" />
    <glyph glyph-name="T" unicode="T" horiz-adv-x="560" 
d="M515 595h-188v-595h-95v595h-187v85h470v-85z" />
    <glyph glyph-name="U" unicode="U" horiz-adv-x="640" 
d="M322 70q40 0 70 11t46.5 27t26 40t12.5 45t3 47v440h95v-440q0 -250 -255 -250t-255 250v440h95v-440q0 -34 5 -59t20.5 -53t50 -43t86.5 -15z" />
    <glyph glyph-name="V" unicode="V" horiz-adv-x="650" 
d="M329 113h1l184 567h101l-229 -685h-117l-234 685h105z" />
    <glyph glyph-name="W" unicode="W" horiz-adv-x="940" 
d="M471 527h-2l-134 -532h-123l-177 685h105l138 -563h1l137 563h112l140 -563h1l135 563h101l-178 -685h-122z" />
    <glyph glyph-name="X" unicode="X" horiz-adv-x="650" 
d="M498 0l-180 277h-2l-172 -277h-107l222 355l-204 325h111l157 -246h2l153 246h112l-205 -325l227 -355h-114z" />
    <glyph glyph-name="Y" unicode="Y" horiz-adv-x="620" 
d="M311 337h2l168 343h104l-228 -440v-240h-95v240l-227 440h108z" />
    <glyph glyph-name="Z" unicode="Z" horiz-adv-x="560" 
d="M172 87v-2h348v-85h-480v70l341 523v2h-321v85h450v-70z" />
    <glyph glyph-name="bracketleft" unicode="[" horiz-adv-x="300" 
d="M150 -85h115v-55h-210v960h210v-55h-115v-850z" />
    <glyph glyph-name="backslash" unicode="\" horiz-adv-x="540" 
d="M415 0l-370 680h80l370 -680h-80z" />
    <glyph glyph-name="bracketright" unicode="]" horiz-adv-x="300" 
d="M35 -85h115v850h-115v55h210v-960h-210v55z" />
    <glyph glyph-name="asciicircum" unicode="^" horiz-adv-x="380" 
d="M189 649l-84 -139h-50l105 190h59l106 -190h-50z" />
    <glyph glyph-name="underscore" unicode="_" horiz-adv-x="500" 
d="M55 -60h390v-55h-390v55z" />
    <glyph glyph-name="grave" unicode="`" horiz-adv-x="255" 
d="M145 560l-85 120h75l60 -120h-50z" />
    <glyph glyph-name="a" unicode="a" horiz-adv-x="505" 
d="M360 102v133h-105q-67 0 -96 -22.5t-29 -67.5q0 -40 28 -62.5t77 -22.5q71 0 125 42zM245 435q-65 0 -159 -19l-14 73q110 21 193 21q95 0 140 -36t45 -129v-345h-90v50h-2q-67 -60 -158 -60q-74 0 -117 40.5t-43 106.5q0 79 57 116t153 37h110v50q0 50 -27 72.5
t-88 22.5z" />
    <glyph glyph-name="b" unicode="b" horiz-adv-x="530" 
d="M145 700v-250h2q60 60 153 60q185 0 185 -260q0 -118 -45.5 -189t-144.5 -71q-91 0 -153 57h-2l-16 -50h-69v703h90zM390 250q0 185 -125 185q-69 0 -120 -43v-285q53 -42 120 -42q125 0 125 185z" />
    <glyph glyph-name="c" unicode="c" horiz-adv-x="480" 
d="M45 250q0 260 245 260q78 0 170 -23l-17 -72q-80 20 -153 20q-76 0 -113 -49.5t-37 -135.5t37 -135.5t113 -49.5q73 0 153 20l17 -73q-88 -22 -170 -22q-245 0 -245 260z" />
    <glyph glyph-name="d" unicode="d" horiz-adv-x="530" 
d="M385 0v50h-2q-62 -60 -153 -60q-185 0 -185 260q0 118 45.5 189t144.5 71q88 0 148 -58h2v248h90v-700h-90zM140 250q0 -185 125 -185q65 0 120 42v285q-53 43 -120 43q-125 0 -125 -185z" />
    <glyph glyph-name="e" unicode="e" horiz-adv-x="530" 
d="M484 235h-342q5 -170 165 -170q92 0 156 20l12 -73q-82 -22 -180 -22q-250 0 -250 260t245 260q105 0 150.5 -49.5t49.5 -124.5q3 -37 -6 -101zM285 440q-131 0 -143 -148h254q5 32 3 53q-3 42 -30.5 68.5t-83.5 26.5z" />
    <glyph glyph-name="f" unicode="f" horiz-adv-x="345" 
d="M185 555v-55h120v-65h-120v-435h-90v435h-75v59l75 6v62q0 73 32 105.5t113 32.5q37 0 80 -8l-9 -70q-26 5 -51 5q-43 0 -59 -15.5t-16 -56.5z" />
    <glyph glyph-name="g" unicode="g" horiz-adv-x="555" 
d="M105 -65q0 -85 147 -85q77 0 127.5 25t50.5 73q0 55 -83 59l-185 10q-19 -14 -29.5 -23.5t-19 -25t-8.5 -33.5zM265 235q53 0 84 28t31 77q0 50 -31.5 80t-83.5 30q-57 0 -87.5 -29.5t-30.5 -80.5q0 -50 31.5 -77.5t86.5 -27.5zM116 31v2q-40 22 -37 68q2 57 66 97v2
q-83 42 -83 140q0 82 54 126t149 44q32 0 68 -10h177v-55h-97q49 -35 49 -105q0 -81 -54.5 -123t-142.5 -42q-40 0 -73 11q-11 -11 -20 -29q-13 -22 -6.5 -43.5t33.5 -22.5l180 -11q146 -10 146 -115q0 -175 -290 -175q-205 0 -205 130q0 67 86 111z" />
    <glyph glyph-name="h" unicode="h" horiz-adv-x="530" 
d="M145 377v-377h-90v700h90v-270h2q82 80 178 80q74 0 112 -42.5t38 -122.5v-345h-90v325q0 110 -100 110q-64 0 -140 -58z" />
    <glyph glyph-name="i" unicode="i" horiz-adv-x="200" 
d="M55 500h90v-500h-90v500zM55 680h90v-125h-90v125z" />
    <glyph glyph-name="j" unicode="j" horiz-adv-x="240" 
d="M185 500v-573q0 -73 -32 -105t-113 -32q-35 0 -80 7l8 70q37 -5 52 -5q42 0 58.5 15.5t16.5 57.5v565h90zM95 680h90v-125h-90v125z" />
    <glyph glyph-name="k" unicode="k" horiz-adv-x="540" 
d="M145 700v-404l240 204h110l-190 -173l200 -327h-107l-156 276l-97 -81v-195h-90v700h90z" />
    <glyph glyph-name="l" unicode="l" horiz-adv-x="200" 
d="M55 0v700h90v-700h-90z" />
    <glyph glyph-name="m" unicode="m" horiz-adv-x="830" 
d="M145 377v-377h-90v500h90v-70h2q76 80 163 80q106 0 137 -88q80 88 178 88q74 0 112 -42.5t38 -122.5v-345h-90v325q0 110 -100 110q-52 0 -128 -59q3 -24 3 -55v-321h-90v328q-3 107 -100 107q-24 0 -50 -11t-39.5 -20.5t-35.5 -26.5z" />
    <glyph glyph-name="n" unicode="n" horiz-adv-x="530" 
d="M145 377v-377h-90v500h90v-70h2q82 80 178 80q74 0 112 -42.5t38 -122.5v-345h-90v325q0 110 -100 110q-64 0 -140 -58z" />
    <glyph glyph-name="o" unicode="o" horiz-adv-x="550" 
d="M275 435q-135 0 -135 -185t135 -185t135 185t-135 185zM275 -10q-230 0 -230 260t230 260t230 -260t-230 -260z" />
    <glyph glyph-name="p" unicode="p" horiz-adv-x="530" 
d="M145 500v-50h2q60 60 153 60q185 0 185 -260q0 -118 -45.5 -189t-144.5 -71q-91 0 -148 57h-2v-247h-90v700h90zM390 250q0 185 -125 185q-69 0 -120 -43v-285q53 -42 120 -42q125 0 125 185z" />
    <glyph glyph-name="q" unicode="q" horiz-adv-x="530" 
d="M385 -200v250h-2q-62 -60 -153 -60q-185 0 -185 260q0 118 45.5 189t144.5 71q90 0 153 -58h2l16 50h69v-702h-90zM140 250q0 -185 125 -185q65 0 120 42v285q-53 43 -120 43q-125 0 -125 -185z" />
    <glyph glyph-name="r" unicode="r" horiz-adv-x="370" 
d="M145 367v-367h-90v500h90v-80h2q34 38 83 64t105 26v-85q-101 0 -190 -58z" />
    <glyph glyph-name="s" unicode="s" horiz-adv-x="480" 
d="M440 142q0 -74 -48 -113t-137 -39q-127 0 -215 22l16 73q92 -23 189 -23q60 0 82.5 25t22.5 49q0 27 -24.5 45t-88.5 30q-91 17 -139 51.5t-48 107.5q0 140 185 140q108 0 200 -23l-17 -72q-88 22 -178 22q-31 0 -53 -7.5t-31 -19t-12.5 -20.5t-3.5 -18q0 -27 22 -45
t85 -31q46 -10 75 -19.5t59 -27t44.5 -44t14.5 -63.5z" />
    <glyph glyph-name="t" unicode="t" horiz-adv-x="375" 
d="M95 145v290h-75v59l75 6l11 140h79v-140h140v-65h-140v-275q0 -50 19 -74t66 -24q16 0 51 5l9 -70q-47 -7 -90 -7q-78 0 -111.5 35.5t-33.5 119.5z" />
    <glyph glyph-name="u" unicode="u" horiz-adv-x="530" 
d="M385 122v378h90v-500h-90v70h-2q-80 -80 -178 -80q-74 0 -112 42.5t-38 122.5v345h90v-325q0 -110 100 -110q62 0 140 57z" />
    <glyph glyph-name="v" unicode="v" horiz-adv-x="560" 
d="M334 -5h-109l-185 505h101l140 -404h2l141 404h96z" />
    <glyph glyph-name="w" unicode="w" horiz-adv-x="790" 
d="M395 361h-2l-101 -366h-100l-152 505h100l111 -404h2l100 404h88l106 -404h2l106 404h95l-150 -505h-100z" />
    <glyph glyph-name="x" unicode="x" horiz-adv-x="545" 
d="M403 0l-137 193h-2l-132 -193h-97l183 260l-168 240h104l122 -174h2l120 174h94l-168 -237l186 -263h-107z" />
    <glyph glyph-name="y" unicode="y" horiz-adv-x="560" 
d="M234 -10l-194 510h101l145 -409h2l136 409h96l-188 -530q-34 -97 -81 -138.5t-121 -41.5q-38 0 -75 7l8 75q28 -5 47 -5q79 0 124 123z" />
    <glyph glyph-name="z" unicode="z" horiz-adv-x="470" 
d="M432 500v-65l-287 -363v-2h297v-70h-415v65l290 363v2h-275v70h390z" />
    <glyph glyph-name="braceleft" unicode="{" horiz-adv-x="340" 
d="M210 10q0 -39 7 -63t23.5 -33.5t28.5 -11.5t36 -2v-40q-46 0 -76.5 5t-58.5 19t-41.5 44.5t-13.5 77.5q0 31 5 95.5t5 93.5q0 31 -1.5 45.5t-7.5 33.5t-21 28t-40 13v50q25 4 40 13t21 28t7.5 33.5t1.5 45.5q0 29 -5 93.5t-5 95.5q0 47 13.5 77.5t41.5 44.5t58.5 19
t76.5 5v-40q-24 0 -36 -2t-28.5 -11.5t-23.5 -33.5t-7 -63q0 -30 6 -105t6 -106q0 -55 -23 -81t-68 -37v-2q45 -11 68 -37t23 -81q0 -31 -6 -106t-6 -105z" />
    <glyph glyph-name="bar" unicode="|" horiz-adv-x="190" 
d="M125 -100h-60v880h60v-880z" />
    <glyph glyph-name="braceright" unicode="}" horiz-adv-x="340" 
d="M130 670q0 39 -7.5 63t-23.5 33.5t-28.5 11.5t-35.5 2v40q46 0 76.5 -5t58.5 -19t41.5 -44.5t13.5 -77.5q0 -31 -5 -95.5t-5 -93.5q0 -31 1.5 -45.5t7.5 -33.5t21 -28t40 -13v-50q-25 -4 -40 -13t-21 -28t-7.5 -33.5t-1.5 -45.5q0 -29 5 -93.5t5 -95.5q0 -47 -13.5 -77.5
t-41.5 -44.5t-58.5 -19t-76.5 -5v40q24 0 36 2t28.5 11.5t23.5 33.5t7 63q0 30 -6 105t-6 106q0 55 23 81t67 37v2q-44 11 -67 37t-23 81q0 31 6 106t6 105z" />
    <glyph glyph-name="asciitilde" unicode="~" horiz-adv-x="457" 
d="M149 320q-17 0 -33.5 -9t-46.5 -39l-29 23q53 87 106 87q26 0 96.5 -26t85.5 -26q12 0 19.5 1.5t20 11t25.5 28.5l24 -28q-36 -74 -89 -74q-19 0 -89.5 25.5t-89.5 25.5z" />
    <glyph glyph-name="exclamdown" unicode="&#xa1;" horiz-adv-x="200" 
d="M145 370h-90v130h90v-130zM145 -180h-90l5 465h80z" />
    <glyph glyph-name="cent" unicode="&#xa2;" horiz-adv-x="515" 
d="M322 -100h-40v90q-108 4 -170 75t-62 185t62 184.5t170 74.5v91h40v-92q65 -2 143 -36l-11 -70q-80 30 -132 32v-369q52 2 132 32l11 -70q-75 -32 -143 -36v-91zM145 250q0 -77 36 -127.5t101 -55.5v365q-64 -5 -100.5 -55.5t-36.5 -126.5z" />
    <glyph glyph-name="sterling" unicode="&#xa3;" horiz-adv-x="615" 
d="M420 310h-230v-230h350v-80h-490v80h50v230h-50v70h50v130q0 92 63 136t167 44q141 0 235 -60l-38 -75q-95 50 -192 50q-75 0 -110 -29.5t-35 -77.5v-118h230v-70z" />
    <glyph glyph-name="currency" unicode="&#xa4;" horiz-adv-x="513" 
d="M100 249q0 68 48 114l-78 90l8 8l79 -90q44 36 100 36q55 0 99 -36l78 90l9 -8l-78 -89q50 -47 50 -115t-49 -114l76 -86l-9 -9l-77 87q-43 -35 -99 -35q-57 0 -100 35l-76 -87l-9 9l76 86q-48 46 -48 114zM112 249q0 -59 43 -102t102 -43t102.5 43t43.5 102t-43.5 102.5
t-102.5 43.5t-102 -43.5t-43 -102.5z" />
    <glyph glyph-name="yen" unicode="&#xa5;" horiz-adv-x="650" 
d="M387 270h153v-55h-168v-215h-95v215h-167v55h153l-213 410h108l168 -343h2l168 343h104z" />
    <glyph glyph-name="brokenbar" unicode="&#xa6;" horiz-adv-x="170" 
d="M115 140h-60v400h60v-400zM115 140h-60v400h60v-400z" />
    <glyph glyph-name="section" unicode="&#xa7;" horiz-adv-x="590" 
d="M540 332h-100q0 27 -13 47.5t-39.5 34.5t-47 20.5t-55.5 16.5q-10 3 -15 4q-93 24 -151.5 74.5t-58.5 130.5q0 92 65 136t170 44q111 0 230 -35l-22 -80q-124 30 -208 30q-70 0 -102.5 -27t-32.5 -71q0 -27 15.5 -48.5t45 -35.5t53.5 -21.5t61 -16.5q95 -22 151.5 -69.5
t53.5 -133.5zM60 360h100q0 -28 15.5 -49.5t44.5 -36t54.5 -23t60.5 -16.5q205 -47 205 -195q0 -98 -67.5 -149t-177.5 -51q-126 0 -245 35l16 80q125 -30 229 -30q71 0 108 31t37 76q0 27 -13 47.5t-39.5 34.5t-47 20.5t-55.5 16.5q-10 3 -15 4q-93 24 -151.5 74.5
t-58.5 130.5z" />
    <glyph glyph-name="dieresis" unicode="&#xa8;" horiz-adv-x="445" 
d="M60 680h75v-110h-75v110zM310 680h75v-110h-75v110z" />
    <glyph glyph-name="copyright" unicode="&#xa9;" horiz-adv-x="765" 
d="M30 340q0 146 103 248t249 102q147 0 250 -102t103 -248t-103 -248t-250 -102q-146 0 -249 102t-103 248zM72 340q0 -128 91 -219t219 -91t219 91t91 219t-90.5 217.5t-219.5 89.5t-219.5 -89.5t-90.5 -217.5zM389 467q-112 0 -112 -123q0 -133 112 -133q55 0 101 30
l21 -42q-54 -37 -126 -37q-81 0 -124 47t-43 135q0 83 43 127.5t124 44.5q70 0 126 -38l-20 -42q-49 31 -102 31z" />
    <glyph glyph-name="ordfeminine" unicode="&#xaa;" horiz-adv-x="295" 
d="M205 481v66h-53q-62 0 -62 -44q0 -20 14 -31.5t38 -11.5q37 0 63 21zM147 647q-37 0 -79 -9q-1 7 -3.5 18.5t-3.5 18.5q57 10 96 10q48 0 70.5 -18t22.5 -65v-172h-45v25q-36 -30 -80 -30q-37 0 -58.5 20.5t-21.5 53.5q0 76 105 76h55v25q0 25 -13.5 36t-44.5 11z" />
    <glyph glyph-name="guillemotleft" unicode="&#xab;" horiz-adv-x="665" 
d="M55 277l270 168v-81l-175 -114l175 -114v-81l-270 167v55zM340 277l270 168v-81l-175 -114l175 -114v-81l-270 167v55z" />
    <glyph glyph-name="logicalnot" unicode="&#xac;" horiz-adv-x="590" 
d="M75 302h440v-182h-75v107h-365v75z" />
    <glyph glyph-name="uni00AD" unicode="&#xad;" horiz-adv-x="500" 
d="M55 302h390v-75h-390v75z" />
    <glyph glyph-name="registered" unicode="&#xae;" horiz-adv-x="765" 
d="M535 168h-68l-88 113h-68v-113h-55v344h138q61 0 95 -30t34 -84q0 -45 -22.5 -73t-61.5 -35zM311 462v-131h81q75 0 75 67q0 31 -19.5 47.5t-53.5 16.5h-83zM30 340q0 146 103 248t249 102q147 0 250 -102t103 -248t-103 -248t-250 -102q-146 0 -249 102t-103 248z
M72 340q0 -128 91 -219t219 -91t219 91t91 219t-90.5 217.5t-219.5 89.5t-219.5 -89.5t-90.5 -217.5z" />
    <glyph glyph-name="macron" unicode="&#xaf;" horiz-adv-x="430" 
d="M60 650h310v-55h-310v55z" />
    <glyph glyph-name="degree" unicode="&#xb0;" horiz-adv-x="261" 
d="M40 589q0 38 26.5 64.5t63.5 26.5q38 0 64.5 -27t26.5 -64t-26.5 -63.5t-64.5 -26.5t-64 26.5t-26 63.5zM75 589q0 -23 16 -39t39 -16q24 0 40 16t16 39q0 24 -16 40t-40 16q-23 0 -39 -16t-16 -40z" />
    <glyph glyph-name="plusminus" unicode="&#xb1;" horiz-adv-x="500" 
d="M55 115h157v120h-157v75h157v152h75v-152h158v-75h-158v-120h158v-75h-390v75z" />
    <glyph glyph-name="twosuperior" unicode="&#xb2;" horiz-adv-x="311" 
d="M143 832q-35 0 -84 -24l-14 37q57 30 111 30q51 0 78 -29t27 -73q0 -51 -37 -99t-113 -101v-1h155v-42h-221v45q167 111 167 188q0 28 -13.5 45t-27 20.5t-28.5 3.5z" />
    <glyph glyph-name="threesuperior" unicode="&#xb3;" horiz-adv-x="321" 
d="M202 700q35 -8 54.5 -31t19.5 -54q0 -46 -30.5 -70.5t-88.5 -24.5q-68 0 -112 29l14 36q50 -26 97 -26q39 0 55.5 17t16.5 38q0 61 -80 61h-42v39h40q37 0 55 18.5t18 43.5q0 21 -14.5 38t-46.5 17q-38 0 -90 -27l-15 37q52 29 109 29q47 0 75.5 -23.5t28.5 -65.5
q0 -59 -64 -81z" />
    <glyph glyph-name="acute" unicode="&#xb4;" horiz-adv-x="255" 
d="M195 680l-85 -120h-50l60 120h75z" />
    <glyph glyph-name="mu" unicode="&#xb5;" horiz-adv-x="530" 
d="M145 500v-331q2 -104 100 -104q62 0 140 57v378h90v-500h-90v70h-2q-69 -66 -143 -74q-71 -3 -95 38v-74q0 -91 -36.5 -130.5t-113.5 -39.5q-29 0 -75 7l8 70q37 -5 52 -5q43 0 59 24t16 74v540h90z" />
    <glyph glyph-name="paragraph" unicode="&#xb6;" horiz-adv-x="560" 
d="M520 645h-82v-645h-40v645h-65v-350h-92q-90 0 -145.5 53.5t-55.5 139.5q0 89 55 140.5t146 51.5h279v-35z" />
    <glyph glyph-name="periodcentered" unicode="&#xb7;" horiz-adv-x="240" 
d="M75 315h90v-130h-90v130z" />
    <glyph glyph-name="cedilla" unicode="&#xb8;" horiz-adv-x="292" 
d="M113 -75v75h35v-55q84 -7 84 -72q0 -36 -26 -57t-72 -21q-35 0 -74 12l6 30q28 -7 51 -7q30 0 44 14.5t14 32.5t-14.5 32t-47.5 16z" />
    <glyph glyph-name="onesuperior" unicode="&#xb9;" horiz-adv-x="301" 
d="M39 569h100v250q-54 -28 -82 -42l-12 36q73 32 108 60h33v-304h100v-39h-247v39z" />
    <glyph glyph-name="ordmasculine" unicode="&#xba;" horiz-adv-x="320" 
d="M160 647q-68 0 -68 -92q0 -93 68 -93q67 0 67 93q0 92 -67 92zM160 425q-115 0 -115 130t115 130t115 -130t-115 -130z" />
    <glyph glyph-name="guillemotright" unicode="&#xbb;" horiz-adv-x="665" 
d="M340 445l270 -168v-55l-270 -167v81l175 114l-175 114v81zM55 445l270 -168v-55l-270 -167v81l175 114l-175 114v81z" />
    <glyph glyph-name="onequarter" unicode="&#xbc;" horiz-adv-x="800" 
d="M644 680l-370 -680h-30l370 680h30zM40 369h100v250q-28 -14 -82 -42l-13 36q71 30 108 60h34v-304h100v-39h-247v39zM557 126h109v152q-41 -74 -109 -152zM654 340h59v-214h47v-40h-47v-86h-47v86h-158v40q98 106 146 214z" />
    <glyph glyph-name="onehalf" unicode="&#xbd;" horiz-adv-x="800" 
d="M624 680l-370 -680h-30l370 680h30zM40 369h100v250q-28 -14 -82 -42l-13 36q71 30 108 60h34v-304h100v-39h-247v39zM636 302q-35 0 -84 -24l-14 37q58 30 111 30q52 0 79 -28.5t27 -73.5q0 -51 -37 -98.5t-113 -101.5v-1h155v-42h-222v45q167 110 167 188
q0 28 -13.5 45t-27 20.5t-28.5 3.5z" />
    <glyph glyph-name="threequarters" unicode="&#xbe;" horiz-adv-x="800" 
d="M644 680l-370 -680h-30l370 680h30zM557 126h109v152q-41 -74 -109 -152zM654 340h59v-214h47v-40h-47v-86h-47v86h-158v40q98 106 146 214zM197 500q35 -8 54.5 -31t19.5 -54q0 -46 -30.5 -70.5t-88.5 -24.5q-68 0 -112 29l14 36q50 -26 97 -26q39 0 55.5 17t16.5 38
q0 61 -80 61h-42v39h40q37 0 55 18.5t18 43.5q0 21 -14.5 38t-46.5 17q-38 0 -90 -27l-15 37q52 29 109 29q47 0 75.5 -23.5t28.5 -65.5q0 -59 -64 -81z" />
    <glyph glyph-name="questiondown" unicode="&#xbf;" horiz-adv-x="480" 
d="M240 -190q-56 0 -96.5 16t-61 43t-29 55.5t-8.5 60.5q0 49 19 86t46.5 58.5t54.5 39.5t46 40.5t19 50.5v30h80v-30q0 -41 -18 -71.5t-43 -50t-50.5 -38.5t-43.5 -45.5t-18 -60.5q0 -99 123 -99q64 0 149 31l26 -78q-97 -38 -195 -38zM315 370h-90v130h90v-130z" />
    <glyph glyph-name="Agrave" unicode="&#xc0;" horiz-adv-x="650" 
d="M509 0l-56 172h-260l-58 -172h-100l234 685h117l229 -685h-106zM326 566h-2l-111 -314h220zM294 710l-85 120h75l60 -120h-50z" />
    <glyph glyph-name="Aacute" unicode="&#xc1;" horiz-adv-x="650" 
d="M509 0l-56 172h-260l-58 -172h-100l234 685h117l229 -685h-106zM326 566h-2l-111 -314h220zM442 841l-85 -120h-50l60 120h75z" />
    <glyph glyph-name="Acircumflex" unicode="&#xc2;" horiz-adv-x="650" 
d="M509 0l-56 172h-260l-58 -172h-100l234 685h117l229 -685h-106zM326 566h-2l-111 -314h220zM325 810l-85 -80h-50l107 120h55l108 -120h-50z" />
    <glyph glyph-name="Atilde" unicode="&#xc3;" horiz-adv-x="650" 
d="M509 0l-56 172h-260l-58 -172h-100l234 685h117l229 -685h-106zM326 566h-2l-111 -314h220zM270 785q-19 0 -34.5 -8.5t-45.5 -39.5l-29 23q50 82 106 82q26 0 71.5 -26t60.5 -26q34 0 65 46l24 -28q-36 -74 -89 -74q-19 0 -64.5 25.5t-64.5 25.5z" />
    <glyph glyph-name="Adieresis" unicode="&#xc4;" horiz-adv-x="650" 
d="M509 0l-56 172h-260l-58 -172h-100l234 685h117l229 -685h-106zM326 566h-2l-111 -314h220zM162 845h75v-110h-75v110zM412 845h75v-110h-75v110z" />
    <glyph glyph-name="Aring" unicode="&#xc5;" horiz-adv-x="650" 
d="M509 0l-56 172h-260l-58 -172h-100l234 685h117l229 -685h-106zM326 566h-2l-111 -314h220zM248 790q0 32 22 53.5t55 21.5q32 0 54 -21.5t22 -53.5q0 -33 -21.5 -54t-54.5 -21t-55 21t-22 54zM279 790q0 -20 13 -34t33 -14q19 0 32.5 14t13.5 34t-13 33.5t-33 13.5
t-33 -13.5t-13 -33.5z" />
    <glyph glyph-name="AE" unicode="&#xc6;" horiz-adv-x="926" 
d="M431 242h-175l-126 -242h-95l347 680h484v-85h-340v-200h295v-85h-295v-225h345v-85h-440v242zM429 594l-140 -277h142v277h-2z" />
    <glyph glyph-name="Ccedilla" unicode="&#xc7;" horiz-adv-x="620" 
d="M55 345q0 76 13 134.5t44 108t90 76t143 26.5q116 0 235 -35l-22 -80q-124 30 -206 30q-57 0 -96.5 -19.5t-61 -56.5t-30.5 -81.5t-9 -102.5q0 -129 43.5 -199.5t153.5 -70.5q82 0 206 30l22 -80q-113 -33 -225 -35v-45q84 -7 84 -72q0 -36 -26 -57t-72 -21q-35 0 -74 12
l6 30q28 -7 52 -7q30 0 43.5 14.5t13.5 32.5t-14.5 32t-47.5 16v66q-77 4 -130.5 32.5t-82 78.5t-40.5 108.5t-12 134.5z" />
    <glyph glyph-name="Egrave" unicode="&#xc8;" horiz-adv-x="560" 
d="M500 680v-85h-340v-200h295v-85h-295v-225h345v-85h-440v680h435zM275 710l-85 120h75l60 -120h-50z" />
    <glyph glyph-name="Eacute" unicode="&#xc9;" horiz-adv-x="560" 
d="M500 680v-85h-340v-200h295v-85h-295v-225h345v-85h-440v680h435zM380 841l-85 -120h-50l60 120h75z" />
    <glyph glyph-name="Ecircumflex" unicode="&#xca;" horiz-adv-x="560" 
d="M500 680v-85h-340v-200h295v-85h-295v-225h345v-85h-440v680h435zM289 810l-85 -80h-50l107 120h55l108 -120h-50z" />
    <glyph glyph-name="Edieresis" unicode="&#xcb;" horiz-adv-x="560" 
d="M500 680v-85h-340v-200h295v-85h-295v-225h345v-85h-440v680h435zM123 845h75v-110h-75v110zM373 845h75v-110h-75v110z" />
    <glyph glyph-name="Igrave" unicode="&#xcc;" horiz-adv-x="225" 
d="M160 0h-95v680h95v-680zM90 710l-85 120h75l60 -120h-50z" />
    <glyph glyph-name="Iacute" unicode="&#xcd;" horiz-adv-x="225" 
d="M160 0h-95v680h95v-680zM222 841l-85 -120h-50l60 120h75z" />
    <glyph glyph-name="Icircumflex" unicode="&#xce;" horiz-adv-x="225" 
d="M159 0h-95v680h95v-680zM112 810l-85 -80h-50l107 120h55l108 -120h-50z" />
    <glyph glyph-name="Idieresis" unicode="&#xcf;" horiz-adv-x="225" 
d="M161 0h-95v680h95v-680zM-50 845h75v-110h-75v110zM200 845h75v-110h-75v110z" />
    <glyph glyph-name="Eth" unicode="&#xd0;" horiz-adv-x="660" 
d="M317 0h-242v317h-60v55h60v308h242q81 0 138.5 -25t89.5 -72t46 -105t14 -133q0 -345 -288 -345zM170 85h147q106 0 147 68.5t41 191.5q0 121 -40.5 185.5t-147.5 64.5h-147v-223h120v-55h-120v-232z" />
    <glyph glyph-name="Ntilde" unicode="&#xd1;" horiz-adv-x="650" 
d="M157 0h-92v680h95l330 -505h2v505h93v-680h-95l-331 494h-2v-494zM270 785q-19 0 -34.5 -8.5t-45.5 -39.5l-29 23q50 82 106 82q26 0 71.5 -26t60.5 -26q34 0 65 46l24 -28q-36 -74 -89 -74q-19 0 -64.5 25.5t-64.5 25.5z" />
    <glyph glyph-name="Ograve" unicode="&#xd2;" horiz-adv-x="690" 
d="M345 610q-59 0 -98 -20t-58.5 -59t-26.5 -82.5t-7 -103.5q0 -61 7 -105.5t26.5 -85.5t58.5 -62.5t98 -21.5q47 0 82 15t55 39.5t32.5 61.5t16.5 74t4 85q0 47 -4 83.5t-16.5 72t-33 58.5t-55 37t-81.5 14zM345 -10q-84 0 -143 27.5t-90 78.5t-44 111t-13 138
q0 76 13 134.5t44 108t90 76t143 26.5t142.5 -26.5t90 -76t44.5 -108t13 -134.5q0 -78 -13 -138t-44.5 -111t-90 -78.5t-142.5 -27.5zM328 710l-85 120h75l60 -120h-50z" />
    <glyph glyph-name="Oacute" unicode="&#xd3;" horiz-adv-x="690" 
d="M345 610q-59 0 -98 -20t-58.5 -59t-26.5 -82.5t-7 -103.5q0 -61 7 -105.5t26.5 -85.5t58.5 -62.5t98 -21.5q47 0 82 15t55 39.5t32.5 61.5t16.5 74t4 85q0 47 -4 83.5t-16.5 72t-33 58.5t-55 37t-81.5 14zM345 -10q-84 0 -143 27.5t-90 78.5t-44 111t-13 138
q0 76 13 134.5t44 108t90 76t143 26.5t142.5 -26.5t90 -76t44.5 -108t13 -134.5q0 -78 -13 -138t-44.5 -111t-90 -78.5t-142.5 -27.5zM452 841l-85 -120h-50l60 120h75z" />
    <glyph glyph-name="Ocircumflex" unicode="&#xd4;" horiz-adv-x="690" 
d="M345 610q-59 0 -98 -20t-58.5 -59t-26.5 -82.5t-7 -103.5q0 -61 7 -105.5t26.5 -85.5t58.5 -62.5t98 -21.5q47 0 82 15t55 39.5t32.5 61.5t16.5 74t4 85q0 47 -4 83.5t-16.5 72t-33 58.5t-55 37t-81.5 14zM345 -10q-84 0 -143 27.5t-90 78.5t-44 111t-13 138
q0 76 13 134.5t44 108t90 76t143 26.5t142.5 -26.5t90 -76t44.5 -108t13 -134.5q0 -78 -13 -138t-44.5 -111t-90 -78.5t-142.5 -27.5zM345 810l-85 -80h-50l107 120h55l108 -120h-50z" />
    <glyph glyph-name="Otilde" unicode="&#xd5;" horiz-adv-x="690" 
d="M345 610q-59 0 -98 -20t-58.5 -59t-26.5 -82.5t-7 -103.5q0 -61 7 -105.5t26.5 -85.5t58.5 -62.5t98 -21.5q47 0 82 15t55 39.5t32.5 61.5t16.5 74t4 85q0 47 -4 83.5t-16.5 72t-33 58.5t-55 37t-81.5 14zM345 -10q-84 0 -143 27.5t-90 78.5t-44 111t-13 138
q0 76 13 134.5t44 108t90 76t143 26.5t142.5 -26.5t90 -76t44.5 -108t13 -134.5q0 -78 -13 -138t-44.5 -111t-90 -78.5t-142.5 -27.5zM290 785q-19 0 -34.5 -8.5t-45.5 -39.5l-29 23q50 82 106 82q26 0 71.5 -26t60.5 -26q34 0 65 46l24 -28q-36 -74 -89 -74
q-19 0 -64.5 25.5t-64.5 25.5z" />
    <glyph glyph-name="Odieresis" unicode="&#xd6;" horiz-adv-x="690" 
d="M345 610q-59 0 -98 -20t-58.5 -59t-26.5 -82.5t-7 -103.5q0 -61 7 -105.5t26.5 -85.5t58.5 -62.5t98 -21.5q47 0 82 15t55 39.5t32.5 61.5t16.5 74t4 85q0 47 -4 83.5t-16.5 72t-33 58.5t-55 37t-81.5 14zM345 -10q-84 0 -143 27.5t-90 78.5t-44 111t-13 138
q0 76 13 134.5t44 108t90 76t143 26.5t142.5 -26.5t90 -76t44.5 -108t13 -134.5q0 -78 -13 -138t-44.5 -111t-90 -78.5t-142.5 -27.5zM182 845h75v-110h-75v110zM432 845h75v-110h-75v110z" />
    <glyph glyph-name="multiply" unicode="&#xd7;" horiz-adv-x="495" 
d="M440 404l-140 -139l140 -140l-53 -53l-140 140l-139 -140l-53 53l139 140l-139 139l53 53l139 -139l140 139z" />
    <glyph glyph-name="Oslash" unicode="&#xd8;" horiz-adv-x="690" 
d="M345 -10q-132 0 -202 72l-74 -93l-29 23l77 97q-62 86 -62 256q0 76 13 134.5t44 108t90 76t143 26.5q127 0 196 -66l79 99l29 -23l-80 -101q66 -83 66 -254q0 -78 -13 -138t-44.5 -111t-90 -78.5t-142.5 -27.5zM345 70q47 0 82 15t55 39.5t32.5 61.5t16.5 74t4 85
q0 114 -32 171l-303 -382q46 -64 145 -64zM345 610q-59 0 -98 -20t-58.5 -59t-26.5 -82.5t-7 -103.5q0 -114 28 -172l303 381q-48 56 -141 56z" />
    <glyph glyph-name="Ugrave" unicode="&#xd9;" horiz-adv-x="640" 
d="M322 70q40 0 70 11t46.5 27t26 40t12.5 45t3 47v440h95v-440q0 -250 -255 -250t-255 250v440h95v-440q0 -34 5 -59t20.5 -53t50 -43t86.5 -15zM298 710l-85 120h75l60 -120h-50z" />
    <glyph glyph-name="Uacute" unicode="&#xda;" horiz-adv-x="640" 
d="M322 70q40 0 70 11t46.5 27t26 40t12.5 45t3 47v440h95v-440q0 -250 -255 -250t-255 250v440h95v-440q0 -34 5 -59t20.5 -53t50 -43t86.5 -15zM428 841l-85 -120h-50l60 120h75z" />
    <glyph glyph-name="Ucircumflex" unicode="&#xdb;" horiz-adv-x="640" 
d="M322 70q40 0 70 11t46.5 27t26 40t12.5 45t3 47v440h95v-440q0 -250 -255 -250t-255 250v440h95v-440q0 -34 5 -59t20.5 -53t50 -43t86.5 -15zM320 810l-85 -80h-50l107 120h55l108 -120h-50z" />
    <glyph glyph-name="Udieresis" unicode="&#xdc;" horiz-adv-x="640" 
d="M322 70q40 0 70 11t46.5 27t26 40t12.5 45t3 47v440h95v-440q0 -250 -255 -250t-255 250v440h95v-440q0 -34 5 -59t20.5 -53t50 -43t86.5 -15zM157 845h75v-110h-75v110zM407 845h75v-110h-75v110z" />
    <glyph glyph-name="Yacute" unicode="&#xdd;" horiz-adv-x="620" 
d="M311 337h2l168 343h104l-228 -440v-240h-95v240l-227 440h108zM429 841l-85 -120h-50l60 120h75z" />
    <glyph glyph-name="Thorn" unicode="&#xde;" 
d="M340 140h-180v-140h-95v680h95v-130h180q100 0 157.5 -56.5t57.5 -148.5q0 -94 -57 -149.5t-158 -55.5zM160 465v-240h170q59 0 93 30t34 90q0 57 -35 88.5t-92 31.5h-170z" />
    <glyph glyph-name="germandbls" unicode="&#xdf;" horiz-adv-x="645" 
d="M320 700q96 0 150.5 -38t54.5 -112q0 -40 -19.5 -72t-43 -48.5t-43 -35t-19.5 -34.5q0 -28 47 -44q84 -29 121 -69.5t37 -95.5q0 -83 -58 -122t-143 -39q-66 0 -129 20l11 70q61 -20 114 -20q34 0 58 10t34 26t14 29t4 25q0 21 -9 38t-26.5 30t-30 20t-33.5 16t-24 10
q-41 20 -56.5 38t-15.5 49q0 23 16.5 45t36.5 37.5t36.5 42t16.5 58.5q0 51 -33 72.5t-76 21.5q-72 0 -99.5 -41.5t-27.5 -111.5v-475h-90v435h-75v59l75 6q0 200 225 200z" />
    <glyph glyph-name="agrave" unicode="&#xe0;" horiz-adv-x="505" 
d="M360 102v133h-105q-67 0 -96 -22.5t-29 -67.5q0 -40 28 -62.5t77 -22.5q71 0 125 42zM245 435q-65 0 -159 -19l-14 73q110 21 193 21q95 0 140 -36t45 -129v-345h-90v50h-2q-67 -60 -158 -60q-74 0 -117 40.5t-43 106.5q0 79 57 116t153 37h110v50q0 50 -27 72.5
t-88 22.5zM245 560l-85 120h75l60 -120h-50z" />
    <glyph glyph-name="aacute" unicode="&#xe1;" horiz-adv-x="505" 
d="M360 102v133h-105q-67 0 -96 -22.5t-29 -67.5q0 -40 28 -62.5t77 -22.5q71 0 125 42zM245 435q-65 0 -159 -19l-14 73q110 21 193 21q95 0 140 -36t45 -129v-345h-90v50h-2q-67 -60 -158 -60q-74 0 -117 40.5t-43 106.5q0 79 57 116t153 37h110v50q0 50 -27 72.5
t-88 22.5zM366 680l-85 -120h-50l60 120h75z" />
    <glyph glyph-name="acircumflex" unicode="&#xe2;" horiz-adv-x="505" 
d="M360 102v133h-105q-67 0 -96 -22.5t-29 -67.5q0 -40 28 -62.5t77 -22.5q71 0 125 42zM245 435q-65 0 -159 -19l-14 73q110 21 193 21q95 0 140 -36t45 -129v-345h-90v50h-2q-67 -60 -158 -60q-74 0 -117 40.5t-43 106.5q0 79 57 116t153 37h110v50q0 50 -27 72.5
t-88 22.5zM262 640l-85 -80h-50l107 120h55l108 -120h-50z" />
    <glyph glyph-name="atilde" unicode="&#xe3;" horiz-adv-x="505" 
d="M360 102v133h-105q-67 0 -96 -22.5t-29 -67.5q0 -40 28 -62.5t77 -22.5q71 0 125 42zM245 435q-65 0 -159 -19l-14 73q110 21 193 21q95 0 140 -36t45 -129v-345h-90v50h-2q-67 -60 -158 -60q-74 0 -117 40.5t-43 106.5q0 79 57 116t153 37h110v50q0 50 -27 72.5
t-88 22.5zM215 615q-19 0 -34.5 -8.5t-45.5 -39.5l-29 23q50 82 106 82q26 0 71.5 -26t60.5 -26q34 0 65 46l24 -28q-36 -74 -89 -74q-19 0 -64.5 25.5t-64.5 25.5z" />
    <glyph glyph-name="adieresis" unicode="&#xe4;" horiz-adv-x="505" 
d="M360 102v133h-105q-67 0 -96 -22.5t-29 -67.5q0 -40 28 -62.5t77 -22.5q71 0 125 42zM245 435q-65 0 -159 -19l-14 73q110 21 193 21q95 0 140 -36t45 -129v-345h-90v50h-2q-67 -60 -158 -60q-74 0 -117 40.5t-43 106.5q0 79 57 116t153 37h110v50q0 50 -27 72.5
t-88 22.5zM99 680h75v-110h-75v110zM349 680h75v-110h-75v110z" />
    <glyph glyph-name="aring" unicode="&#xe5;" horiz-adv-x="505" 
d="M360 102v133h-105q-67 0 -96 -22.5t-29 -67.5q0 -40 28 -62.5t77 -22.5q71 0 125 42zM245 435q-65 0 -159 -19l-14 73q110 21 193 21q95 0 140 -36t45 -129v-345h-90v50h-2q-67 -60 -158 -60q-74 0 -117 40.5t-43 106.5q0 79 57 116t153 37h110v50q0 50 -27 72.5
t-88 22.5zM185 620q0 32 22 53.5t55 21.5q32 0 54 -21.5t22 -53.5q0 -33 -21.5 -54t-54.5 -21t-55 21t-22 54zM216 620q0 -20 13 -34t33 -14q19 0 32.5 14t13.5 34t-13 33.5t-33 13.5t-33 -13.5t-13 -33.5z" />
    <glyph glyph-name="ae" unicode="&#xe6;" horiz-adv-x="845" 
d="M799 235h-342q5 -170 165 -170q92 0 156 20l12 -73q-82 -22 -180 -22q-151 0 -211 93q-84 -93 -199 -93q-72 0 -116 39t-44 108q0 153 210 153h110v50q0 50 -27 72.5t-88 22.5q-65 0 -159 -19q-3 12 -7 36.5t-7 36.5q92 18 172 20q39 1 72 -10q81 -19 105 -87
q51 98 184 98q60 0 102.5 -18t63 -45t29.5 -66t7.5 -73t-8.5 -73zM235 60q83 0 141 56q-16 44 -16 119h-105q-67 0 -96 -22.5t-29 -67.5q0 -40 28 -62.5t77 -22.5zM600 440q-131 0 -143 -148h254q12 61 -12.5 104.5t-98.5 43.5z" />
    <glyph glyph-name="ccedilla" unicode="&#xe7;" horiz-adv-x="480" 
d="M45 250q0 260 245 260q78 0 170 -23l-17 -72q-80 20 -153 20q-76 0 -113 -49.5t-37 -135.5t37 -135.5t113 -49.5q73 0 153 20l17 -73q-87 -22 -166 -22v-45q83 -7 83 -72q0 -36 -25.5 -57t-71.5 -21q-36 0 -75 12l6 30q28 -7 53 -7q30 0 43.5 14.5t13.5 32.5t-15 32
t-47 16v66q-214 13 -214 259z" />
    <glyph glyph-name="egrave" unicode="&#xe8;" horiz-adv-x="530" 
d="M484 235h-342q5 -170 165 -170q92 0 156 20l12 -73q-82 -22 -180 -22q-250 0 -250 260t245 260q105 0 150.5 -49.5t49.5 -124.5q3 -37 -6 -101zM285 440q-131 0 -143 -148h254q5 32 3 53q-3 42 -30.5 68.5t-83.5 26.5zM265 560l-85 120h75l60 -120h-50z" />
    <glyph glyph-name="eacute" unicode="&#xe9;" horiz-adv-x="530" 
d="M484 235h-342q5 -170 165 -170q92 0 156 20l12 -73q-82 -22 -180 -22q-250 0 -250 260t245 260q105 0 150.5 -49.5t49.5 -124.5q3 -37 -6 -101zM285 440q-131 0 -143 -148h254q5 32 3 53q-3 42 -30.5 68.5t-83.5 26.5zM401 680l-85 -120h-50l60 120h75z" />
    <glyph glyph-name="ecircumflex" unicode="&#xea;" horiz-adv-x="530" 
d="M484 235h-342q5 -170 165 -170q92 0 156 20l12 -73q-82 -22 -180 -22q-250 0 -250 260t245 260q105 0 150.5 -49.5t49.5 -124.5q3 -37 -6 -101zM285 440q-131 0 -143 -148h254q5 32 3 53q-3 42 -30.5 68.5t-83.5 26.5zM265 640l-85 -80h-50l107 120h55l108 -120h-50z" />
    <glyph glyph-name="edieresis" unicode="&#xeb;" horiz-adv-x="530" 
d="M484 235h-342q5 -170 165 -170q92 0 156 20l12 -73q-82 -22 -180 -22q-250 0 -250 260t245 260q105 0 150.5 -49.5t49.5 -124.5q3 -37 -6 -101zM285 440q-131 0 -143 -148h254q5 32 3 53q-3 42 -30.5 68.5t-83.5 26.5zM102 680h75v-110h-75v110zM352 680h75v-110h-75v110
z" />
    <glyph glyph-name="igrave" unicode="&#xec;" horiz-adv-x="200" 
d="M78 560l-85 120h75l60 -120h-50zM55 500h90v-500h-90v500z" />
    <glyph glyph-name="iacute" unicode="&#xed;" horiz-adv-x="200" 
d="M212 680l-85 -120h-50l60 120h75zM55 500h90v-500h-90v500z" />
    <glyph glyph-name="icircumflex" unicode="&#xee;" horiz-adv-x="200" 
d="M55 500h90v-500h-90v500zM100 640l-85 -80h-50l107 120h55l108 -120h-50z" />
    <glyph glyph-name="idieresis" unicode="&#xef;" horiz-adv-x="200" 
d="M-63 680h75v-110h-75v110zM187 680h75v-110h-75v110zM55 500h90v-500h-90v500z" />
    <glyph glyph-name="eth" unicode="&#xf0;" horiz-adv-x="550" 
d="M375 644l75 75l32 -32l-70 -70q93 -96 93 -317q0 -63 -12 -116t-38.5 -98t-74 -70.5t-113.5 -25.5q-98 0 -160 62t-62 168q0 112 55 173.5t152 61.5q95 0 161 -88l2 1q-5 129 -61 191l-68 -69l-32 33l60 60q-45 32 -101 32q-65 0 -136 -25l-11 69q81 31 155 31
q91 0 154 -46zM407 296q-57 80 -131 80q-52 0 -84 -26t-42 -58.5t-10 -71.5q0 -73 38 -114t94 -41q147 0 135 231z" />
    <glyph glyph-name="ntilde" unicode="&#xf1;" horiz-adv-x="530" 
d="M145 377v-377h-90v500h90v-70h2q82 80 178 80q74 0 112 -42.5t38 -122.5v-345h-90v325q0 110 -100 110q-64 0 -140 -58zM210 615q-19 0 -34.5 -8.5t-45.5 -39.5l-29 23q50 82 106 82q26 0 71.5 -26t60.5 -26q34 0 65 46l24 -28q-36 -74 -89 -74q-19 0 -64.5 25.5
t-64.5 25.5z" />
    <glyph glyph-name="ograve" unicode="&#xf2;" horiz-adv-x="550" 
d="M275 435q-135 0 -135 -185t135 -185t135 185t-135 185zM275 -10q-230 0 -230 260t230 260t230 -260t-230 -260zM259 560l-85 120h75l60 -120h-50z" />
    <glyph glyph-name="oacute" unicode="&#xf3;" horiz-adv-x="550" 
d="M275 435q-135 0 -135 -185t135 -185t135 185t-135 185zM275 -10q-230 0 -230 260t230 260t230 -260t-230 -260zM378 680l-85 -120h-50l60 120h75z" />
    <glyph glyph-name="ocircumflex" unicode="&#xf4;" horiz-adv-x="550" 
d="M275 435q-135 0 -135 -185t135 -185t135 185t-135 185zM275 -10q-230 0 -230 260t230 260t230 -260t-230 -260zM275 640l-85 -80h-50l107 120h55l108 -120h-50z" />
    <glyph glyph-name="otilde" unicode="&#xf5;" horiz-adv-x="550" 
d="M275 435q-135 0 -135 -185t135 -185t135 185t-135 185zM275 -10q-230 0 -230 260t230 260t230 -260t-230 -260zM222 615q-19 0 -34.5 -8.5t-45.5 -39.5l-29 23q50 82 106 82q26 0 71.5 -26t60.5 -26q34 0 65 46l24 -28q-36 -74 -89 -74q-19 0 -64.5 25.5t-64.5 25.5z" />
    <glyph glyph-name="odieresis" unicode="&#xf6;" horiz-adv-x="550" 
d="M275 435q-135 0 -135 -185t135 -185t135 185t-135 185zM275 -10q-230 0 -230 260t230 260t230 -260t-230 -260zM110 680h75v-110h-75v110zM360 680h75v-110h-75v110z" />
    <glyph glyph-name="divide" unicode="&#xf7;" horiz-adv-x="500" 
d="M210 165h80v-120h-80v120zM210 485h80v-120h-80v120zM55 302h390v-75h-390v75z" />
    <glyph glyph-name="oslash" unicode="&#xf8;" horiz-adv-x="550" 
d="M275 -10q-97 0 -154 51l-62 -72l-29 23l63 74q-48 65 -48 184q0 260 230 260q98 0 153 -52l62 73l30 -23l-64 -75q49 -65 49 -183q0 -260 -230 -260zM275 65q135 0 135 185q0 65 -21 104l-212 -248q33 -41 98 -41zM275 435q-135 0 -135 -185q0 -66 20 -105l212 248
q-34 42 -97 42z" />
    <glyph glyph-name="ugrave" unicode="&#xf9;" horiz-adv-x="530" 
d="M385 122v378h90v-500h-90v70h-2q-80 -80 -178 -80q-74 0 -112 42.5t-38 122.5v345h90v-325q0 -110 100 -110q62 0 140 57zM234 560l-85 120h75l60 -120h-50z" />
    <glyph glyph-name="uacute" unicode="&#xfa;" horiz-adv-x="530" 
d="M385 122v378h90v-500h-90v70h-2q-80 -80 -178 -80q-74 0 -112 42.5t-38 122.5v345h90v-325q0 -110 100 -110q62 0 140 57zM368 680l-85 -120h-50l60 120h75z" />
    <glyph glyph-name="ucircumflex" unicode="&#xfb;" horiz-adv-x="530" 
d="M385 122v378h90v-500h-90v70h-2q-80 -80 -178 -80q-74 0 -112 42.5t-38 122.5v345h90v-325q0 -110 100 -110q62 0 140 57zM265 640l-85 -80h-50l107 120h55l108 -120h-50z" />
    <glyph glyph-name="udieresis" unicode="&#xfc;" horiz-adv-x="530" 
d="M385 122v378h90v-500h-90v70h-2q-80 -80 -178 -80q-74 0 -112 42.5t-38 122.5v345h90v-325q0 -110 100 -110q62 0 140 57zM102 680h75v-110h-75v110zM352 680h75v-110h-75v110z" />
    <glyph glyph-name="yacute" unicode="&#xfd;" horiz-adv-x="560" 
d="M234 -10l-194 510h101l145 -409h2l136 409h96l-188 -530q-34 -97 -81 -138.5t-121 -41.5q-38 0 -75 7l8 75q28 -5 47 -5q79 0 124 123zM397 680l-85 -120h-50l60 120h75z" />
    <glyph glyph-name="thorn" unicode="&#xfe;" horiz-adv-x="530" 
d="M145 700v-250h2q60 60 153 60q185 0 185 -260q0 -118 -45.5 -189t-144.5 -71q-91 0 -148 57h-2v-247h-90v900h90zM390 250q0 185 -125 185q-69 0 -120 -43v-285q53 -42 120 -42q125 0 125 185z" />
    <glyph glyph-name="ydieresis" unicode="&#xff;" horiz-adv-x="560" 
d="M234 -10l-194 510h101l145 -409h2l136 409h96l-188 -530q-34 -97 -81 -138.5t-121 -41.5q-38 0 -75 7l8 75q28 -5 47 -5q79 0 124 123zM117 680h75v-110h-75v110zM367 680h75v-110h-75v110z" />
    <glyph glyph-name="Amacron" unicode="&#x100;" horiz-adv-x="650" 
d="M509 0l-56 172h-260l-58 -172h-100l234 685h117l229 -685h-106zM326 566h-2l-111 -314h220zM170 820h310v-55h-310v55z" />
    <glyph glyph-name="amacron" unicode="&#x101;" horiz-adv-x="505" 
d="M360 102v133h-105q-67 0 -96 -22.5t-29 -67.5q0 -40 28 -62.5t77 -22.5q71 0 125 42zM245 435q-65 0 -159 -19l-14 73q110 21 193 21q95 0 140 -36t45 -129v-345h-90v50h-2q-67 -60 -158 -60q-74 0 -117 40.5t-43 106.5q0 79 57 116t153 37h110v50q0 50 -27 72.5
t-88 22.5zM111 650h310v-55h-310v55z" />
    <glyph glyph-name="Abreve" unicode="&#x102;" horiz-adv-x="650" 
d="M509 0l-56 172h-260l-58 -172h-100l234 685h117l229 -685h-106zM326 566h-2l-111 -314h220zM324 788q78 0 101 82h39q-20 -135 -140 -135q-58 0 -94 34.5t-45 100.5h38q25 -82 101 -82z" />
    <glyph glyph-name="abreve" unicode="&#x103;" horiz-adv-x="505" 
d="M360 102v133h-105q-67 0 -96 -22.5t-29 -67.5q0 -40 28 -62.5t77 -22.5q71 0 125 42zM245 435q-65 0 -159 -19l-14 73q110 21 193 21q95 0 140 -36t45 -129v-345h-90v50h-2q-67 -60 -158 -60q-74 0 -117 40.5t-43 106.5q0 79 57 116t153 37h110v50q0 50 -27 72.5
t-88 22.5zM272 618q78 0 101 82h39q-20 -135 -140 -135q-58 0 -94 34.5t-45 100.5h38q25 -82 101 -82z" />
    <glyph glyph-name="Aogonek" unicode="&#x104;" horiz-adv-x="650" 
d="M326 566h-1l-112 -314h220zM542 0h-33l-56 172h-260l-58 -172h-100l234 685h117l229 -685q-44 -11 -70.5 -44.5t-26.5 -66.5q0 -54 57 -54q24 0 56 17l5 -23q-37 -29 -90 -29q-38 0 -64 19t-26 53t24 68t62 60z" />
    <glyph glyph-name="aogonek" unicode="&#x105;" horiz-adv-x="505" 
d="M360 102v133h-105q-67 0 -96 -22.5t-29 -67.5q0 -40 28 -62.5t77 -22.5q71 0 125 42zM381 0h-21v50h-2q-67 -60 -158 -60q-74 0 -117 40.5t-43 106.5q0 79 57 116t153 37h110v50q0 50 -27 72.5t-88 22.5q-65 0 -159 -19l-14 73q110 21 193 21q95 0 140 -36t45 -129v-345
q-43 -13 -68.5 -45.5t-25.5 -65.5q0 -54 57 -54q24 0 56 17l5 -23q-37 -29 -90 -29q-36 0 -63 18t-27 55q0 69 87 127z" />
    <glyph glyph-name="Cacute" unicode="&#x106;" horiz-adv-x="620" 
d="M55 345q0 76 13 134.5t44 108t90 76t143 26.5q116 0 235 -35l-22 -80q-124 30 -206 30q-57 0 -96.5 -19.5t-61 -56.5t-30.5 -81.5t-9 -102.5q0 -129 43.5 -199.5t153.5 -70.5q82 0 206 30l22 -80q-119 -35 -235 -35q-68 0 -119.5 18.5t-83.5 50t-52 78t-27.5 96.5
t-7.5 112zM467 841l-85 -120h-50l60 120h75z" />
    <glyph glyph-name="cacute" unicode="&#x107;" horiz-adv-x="480" 
d="M45 250q0 260 245 260q78 0 170 -23l-17 -72q-80 20 -153 20q-76 0 -113 -49.5t-37 -135.5t37 -135.5t113 -49.5q73 0 153 20l17 -73q-88 -22 -170 -22q-245 0 -245 260zM379 680l-85 -120h-50l60 120h75z" />
    <glyph glyph-name="Ccircumflex" unicode="&#x108;" horiz-adv-x="620" 
d="M55 345q0 76 13 134.5t44 108t90 76t143 26.5q116 0 235 -35l-22 -80q-124 30 -206 30q-57 0 -96.5 -19.5t-61 -56.5t-30.5 -81.5t-9 -102.5q0 -129 43.5 -199.5t153.5 -70.5q82 0 206 30l22 -80q-119 -35 -235 -35q-68 0 -119.5 18.5t-83.5 50t-52 78t-27.5 96.5
t-7.5 112zM356 810l-85 -80h-50l107 120h55l108 -120h-50z" />
    <glyph glyph-name="ccircumflex" unicode="&#x109;" horiz-adv-x="480" 
d="M45 250q0 260 245 260q78 0 170 -23l-17 -72q-80 20 -153 20q-76 0 -113 -49.5t-37 -135.5t37 -135.5t113 -49.5q73 0 153 20l17 -73q-88 -22 -170 -22q-245 0 -245 260zM276 640l-85 -80h-50l107 120h55l108 -120h-50z" />
    <glyph glyph-name="Cdotaccent" unicode="&#x10a;" horiz-adv-x="620" 
d="M55 345q0 76 13 134.5t44 108t90 76t143 26.5q116 0 235 -35l-22 -80q-124 30 -206 30q-57 0 -96.5 -19.5t-61 -56.5t-30.5 -81.5t-9 -102.5q0 -129 43.5 -199.5t153.5 -70.5q82 0 206 30l22 -80q-119 -35 -235 -35q-68 0 -119.5 18.5t-83.5 50t-52 78t-27.5 96.5
t-7.5 112zM318 850h80v-110h-80v110z" />
    <glyph glyph-name="cdotaccent" unicode="&#x10b;" horiz-adv-x="480" 
d="M45 250q0 260 245 260q78 0 170 -23l-17 -72q-80 20 -153 20q-76 0 -113 -49.5t-37 -135.5t37 -135.5t113 -49.5q73 0 153 20l17 -73q-88 -22 -170 -22q-245 0 -245 260zM243 680h80v-110h-80v110z" />
    <glyph glyph-name="Ccaron" unicode="&#x10c;" horiz-adv-x="620" 
d="M55 345q0 76 13 134.5t44 108t90 76t143 26.5q116 0 235 -35l-22 -80q-124 30 -206 30q-57 0 -96.5 -19.5t-61 -56.5t-30.5 -81.5t-9 -102.5q0 -129 43.5 -199.5t153.5 -70.5q82 0 206 30l22 -80q-119 -35 -235 -35q-68 0 -119.5 18.5t-83.5 50t-52 78t-27.5 96.5
t-7.5 112zM276 840l85 -80l85 80h50l-108 -120h-55l-107 120h50z" />
    <glyph glyph-name="ccaron" unicode="&#x10d;" horiz-adv-x="480" 
d="M45 250q0 260 245 260q78 0 170 -23l-17 -72q-80 20 -153 20q-76 0 -113 -49.5t-37 -135.5t37 -135.5t113 -49.5q73 0 153 20l17 -73q-88 -22 -170 -22q-245 0 -245 260zM204 680l85 -80l85 80h50l-108 -120h-55l-107 120h50z" />
    <glyph glyph-name="Dcaron" unicode="&#x10e;" horiz-adv-x="650" 
d="M307 0h-242v680h242q81 0 138.5 -25t89.5 -72t46 -105t14 -133q0 -345 -288 -345zM160 85h147q106 0 147 68.5t41 191.5q0 121 -40.5 185.5t-147.5 64.5h-147v-510zM216 840l85 -80l85 80h50l-108 -120h-55l-107 120h50z" />
    <glyph glyph-name="dcaron" unicode="&#x10f;" horiz-adv-x="530" 
d="M385 0v50h-2q-62 -60 -153 -60q-185 0 -185 260q0 118 45.5 189t144.5 71q88 0 148 -58h2v248h90v-700h-90zM140 250q0 -185 125 -185q65 0 120 42v285q-53 43 -120 43q-125 0 -125 -185zM564 535h-29l18 85h-25v80h80v-80z" />
    <glyph glyph-name="Dcroat" unicode="&#x110;" horiz-adv-x="660" 
d="M317 0h-242v317h-60v55h60v308h242q81 0 138.5 -25t89.5 -72t46 -105t14 -133q0 -345 -288 -345zM170 85h147q106 0 147 68.5t41 191.5q0 121 -40.5 185.5t-147.5 64.5h-147v-223h120v-55h-120v-232z" />
    <glyph glyph-name="dcroat" unicode="&#x111;" horiz-adv-x="530" 
d="M385 0v50h-2q-62 -60 -153 -60q-185 0 -185 260q0 118 45.5 189t144.5 71q88 0 148 -58h2v110h-110v55h110v83h90v-83h70v-55h-70v-562h-90zM140 250q0 -185 125 -185q65 0 120 42v285q-53 43 -120 43q-125 0 -125 -185z" />
    <glyph glyph-name="Emacron" unicode="&#x112;" horiz-adv-x="560" 
d="M500 680v-85h-340v-200h295v-85h-295v-225h345v-85h-440v680h435zM132 820h310v-55h-310v55z" />
    <glyph glyph-name="emacron" unicode="&#x113;" horiz-adv-x="530" 
d="M484 235h-342q5 -170 165 -170q92 0 156 20l12 -73q-82 -22 -180 -22q-250 0 -250 260t245 260q105 0 150.5 -49.5t49.5 -124.5q3 -37 -6 -101zM285 440q-131 0 -143 -148h254q5 32 3 53q-3 42 -30.5 68.5t-83.5 26.5zM128 650h310v-55h-310v55z" />
    <glyph glyph-name="Ebreve" unicode="&#x114;" horiz-adv-x="560" 
d="M500 680v-85h-340v-200h295v-85h-295v-225h345v-85h-440v680h435zM288 788q78 0 101 82h39q-20 -135 -140 -135q-58 0 -94 34.5t-45 100.5h38q25 -82 101 -82z" />
    <glyph glyph-name="ebreve" unicode="&#x115;" horiz-adv-x="530" 
d="M484 235h-342q5 -170 165 -170q92 0 156 20l12 -73q-82 -22 -180 -22q-250 0 -250 260t245 260q105 0 150.5 -49.5t49.5 -124.5q3 -37 -6 -101zM285 440q-131 0 -143 -148h254q5 32 3 53q-3 42 -30.5 68.5t-83.5 26.5zM288 618q78 0 101 82h39q-20 -135 -140 -135
q-58 0 -94 34.5t-45 100.5h38q25 -82 101 -82z" />
    <glyph glyph-name="Edotaccent" unicode="&#x116;" horiz-adv-x="560" 
d="M500 680v-85h-340v-200h295v-85h-295v-225h345v-85h-440v680h435zM245 850h80v-110h-80v110z" />
    <glyph glyph-name="edotaccent" unicode="&#x117;" horiz-adv-x="530" 
d="M484 235h-342q5 -170 165 -170q92 0 156 20l12 -73q-82 -22 -180 -22q-250 0 -250 260t245 260q105 0 150.5 -49.5t49.5 -124.5q3 -37 -6 -101zM285 440q-131 0 -143 -148h254q5 32 3 53q-3 42 -30.5 68.5t-83.5 26.5zM245 680h80v-110h-80v110z" />
    <glyph glyph-name="Eogonek" unicode="&#x118;" horiz-adv-x="560" 
d="M548 -148l5 -23q-37 -29 -90 -29q-38 0 -64 19t-26 53q0 67 86 128h-394v680h435v-85h-340v-200h295v-85h-295v-225h345v-85q-31 -24 -50.5 -54.5t-19.5 -56.5q0 -54 57 -54q24 0 56 17z" />
    <glyph glyph-name="eogonek" unicode="&#x119;" horiz-adv-x="530" 
d="M518 -135l5 -24q-37 -29 -90 -29q-38 0 -64 19t-26 53q0 61 70 116q-55 -10 -118 -10q-250 0 -250 260t245 260q189 0 202 -170q3 -50 -8 -105h-342q5 -170 165 -170q92 0 156 20l12 -73q-31 -24 -50.5 -54t-19.5 -56q0 -54 57 -54q24 0 56 17zM285 440q-131 0 -143 -148
h254q5 32 3 53q-3 42 -30.5 68.5t-83.5 26.5z" />
    <glyph glyph-name="Ecaron" unicode="&#x11a;" horiz-adv-x="560" 
d="M500 680v-85h-340v-200h295v-85h-295v-225h345v-85h-440v680h435zM202 840l85 -80l85 80h50l-108 -120h-55l-107 120h50z" />
    <glyph glyph-name="ecaron" unicode="&#x11b;" horiz-adv-x="530" 
d="M484 235h-342q5 -170 165 -170q92 0 156 20l12 -73q-82 -22 -180 -22q-250 0 -250 260t245 260q105 0 150.5 -49.5t49.5 -124.5q3 -37 -6 -101zM285 440q-131 0 -143 -148h254q5 32 3 53q-3 42 -30.5 68.5t-83.5 26.5zM202 680l85 -80l85 80h50l-108 -120h-55l-107 120
h50z" />
    <glyph glyph-name="Gcircumflex" unicode="&#x11c;" horiz-adv-x="640" 
d="M345 -10q-68 0 -119.5 18.5t-83.5 50t-52 78t-27.5 96.5t-7.5 112q0 76 13 134.5t44 108t90 76t143 26.5q111 0 230 -35l-22 -80q-124 30 -201 30q-57 0 -96.5 -19.5t-61 -56.5t-30.5 -81.5t-9 -102.5q0 -129 43.5 -199.5t153.5 -70.5q67 0 128 33v157h-130v85h225v-306
q-64 -27 -114.5 -40.5t-115.5 -13.5zM350 810l-85 -80h-50l107 120h55l108 -120h-50z" />
    <glyph glyph-name="gcircumflex" unicode="&#x11d;" horiz-adv-x="555" 
d="M105 -65q0 -85 147 -85q77 0 127.5 25t50.5 73q0 55 -83 59l-185 10q-19 -14 -29.5 -23.5t-19 -25t-8.5 -33.5zM265 235q53 0 84 28t31 77q0 50 -31.5 80t-83.5 30q-57 0 -87.5 -29.5t-30.5 -80.5q0 -50 31.5 -77.5t86.5 -27.5zM116 31v2q-40 22 -37 68q2 57 66 97v2
q-83 42 -83 140q0 82 54 126t149 44q32 0 68 -10h177v-55h-97q49 -35 49 -105q0 -81 -54.5 -123t-142.5 -42q-40 0 -73 11q-11 -11 -20 -29q-13 -22 -6.5 -43.5t33.5 -22.5l180 -11q146 -10 146 -115q0 -175 -290 -175q-205 0 -205 130q0 67 86 111zM275 640l-85 -80h-50
l107 120h55l108 -120h-50z" />
    <glyph glyph-name="Gbreve" unicode="&#x11e;" horiz-adv-x="640" 
d="M345 -10q-68 0 -119.5 18.5t-83.5 50t-52 78t-27.5 96.5t-7.5 112q0 76 13 134.5t44 108t90 76t143 26.5q111 0 230 -35l-22 -80q-124 30 -201 30q-57 0 -96.5 -19.5t-61 -56.5t-30.5 -81.5t-9 -102.5q0 -129 43.5 -199.5t153.5 -70.5q67 0 128 33v157h-130v85h225v-306
q-64 -27 -114.5 -40.5t-115.5 -13.5zM348 788q78 0 101 82h39q-20 -135 -140 -135q-58 0 -94 34.5t-45 100.5h38q25 -82 101 -82z" />
    <glyph glyph-name="gbreve" unicode="&#x11f;" horiz-adv-x="555" 
d="M105 -65q0 -85 147 -85q77 0 127.5 25t50.5 73q0 55 -83 59l-185 10q-19 -14 -29.5 -23.5t-19 -25t-8.5 -33.5zM265 235q53 0 84 28t31 77q0 50 -31.5 80t-83.5 30q-57 0 -87.5 -29.5t-30.5 -80.5q0 -50 31.5 -77.5t86.5 -27.5zM116 31v2q-40 22 -37 68q2 57 66 97v2
q-83 42 -83 140q0 82 54 126t149 44q32 0 68 -10h177v-55h-97q49 -35 49 -105q0 -81 -54.5 -123t-142.5 -42q-40 0 -73 11q-11 -11 -20 -29q-13 -22 -6.5 -43.5t33.5 -22.5l180 -11q146 -10 146 -115q0 -175 -290 -175q-205 0 -205 130q0 67 86 111zM266 618q78 0 101 82h39
q-20 -135 -140 -135q-58 0 -94 34.5t-45 100.5h38q25 -82 101 -82z" />
    <glyph glyph-name="Gdotaccent" unicode="&#x120;" horiz-adv-x="640" 
d="M345 -10q-68 0 -119.5 18.5t-83.5 50t-52 78t-27.5 96.5t-7.5 112q0 76 13 134.5t44 108t90 76t143 26.5q111 0 230 -35l-22 -80q-124 30 -201 30q-57 0 -96.5 -19.5t-61 -56.5t-30.5 -81.5t-9 -102.5q0 -129 43.5 -199.5t153.5 -70.5q67 0 128 33v157h-130v85h225v-306
q-64 -27 -114.5 -40.5t-115.5 -13.5zM299 850h80v-110h-80v110z" />
    <glyph glyph-name="gdotaccent" unicode="&#x121;" horiz-adv-x="555" 
d="M105 -65q0 -85 147 -85q77 0 127.5 25t50.5 73q0 55 -83 59l-185 10q-19 -14 -29.5 -23.5t-19 -25t-8.5 -33.5zM265 235q53 0 84 28t31 77q0 50 -31.5 80t-83.5 30q-57 0 -87.5 -29.5t-30.5 -80.5q0 -50 31.5 -77.5t86.5 -27.5zM116 31v2q-40 22 -37 68q2 57 66 97v2
q-83 42 -83 140q0 82 54 126t149 44q32 0 68 -10h177v-55h-97q49 -35 49 -105q0 -81 -54.5 -123t-142.5 -42q-40 0 -73 11q-11 -11 -20 -29q-13 -22 -6.5 -43.5t33.5 -22.5l180 -11q146 -10 146 -115q0 -175 -290 -175q-205 0 -205 130q0 67 86 111zM226 680h80v-110h-80
v110z" />
    <glyph glyph-name="Gcommaaccent" unicode="&#x122;" horiz-adv-x="640" 
d="M345 -10q-68 0 -119.5 18.5t-83.5 50t-52 78t-27.5 96.5t-7.5 112q0 76 13 134.5t44 108t90 76t143 26.5q111 0 230 -35l-22 -80q-124 30 -201 30q-57 0 -96.5 -19.5t-61 -56.5t-30.5 -81.5t-9 -102.5q0 -129 43.5 -199.5t153.5 -70.5q67 0 128 33v157h-130v85h225v-306
q-64 -27 -114.5 -40.5t-115.5 -13.5zM349 -205h-29l18 85h-25v80h80v-80z" />
    <glyph glyph-name="gcommaaccent" unicode="&#x123;" horiz-adv-x="555" 
d="M105 -65q0 -85 147 -85q77 0 127.5 25t50.5 73q0 55 -83 59l-185 10q-19 -14 -29.5 -23.5t-19 -25t-8.5 -33.5zM265 235q53 0 84 28t31 77q0 50 -31.5 80t-83.5 30q-57 0 -87.5 -29.5t-30.5 -80.5q0 -50 31.5 -77.5t86.5 -27.5zM116 31v2q-40 22 -37 68q2 57 66 97v2
q-83 42 -83 140q0 82 54 126t149 44q32 0 68 -10h177v-55h-97q49 -35 49 -105q0 -81 -54.5 -123t-142.5 -42q-40 0 -73 11q-11 -11 -20 -29q-13 -22 -6.5 -43.5t33.5 -22.5l180 -11q146 -10 146 -115q0 -175 -290 -175q-205 0 -205 130q0 67 86 111zM275 735h30l-18 -85h25
v-80h-80v80z" />
    <glyph glyph-name="Hcircumflex" unicode="&#x124;" horiz-adv-x="640" 
d="M160 0h-95v680h95v-285h320v285h95v-680h-95v310h-320v-310zM320 810l-85 -80h-50l107 120h55l108 -120h-50z" />
    <glyph glyph-name="hcircumflex" unicode="&#x125;" horiz-adv-x="530" 
d="M145 377v-377h-90v700h90v-270h2q82 80 178 80q74 0 112 -42.5t38 -122.5v-345h-90v325q0 110 -100 110q-64 0 -140 -58zM100 830l-85 -80h-50l107 120h55l108 -120h-50z" />
    <glyph glyph-name="Hbar" unicode="&#x126;" horiz-adv-x="640" 
d="M-5 577h70v103h95v-103h320v103h95v-103h70v-55h-70v-522h-95v310h-320v-310h-95v522h-70v55zM160 395h320v127h-320v-127z" />
    <glyph glyph-name="hbar" unicode="&#x127;" horiz-adv-x="530" 
d="M145 562v-132h2q82 80 178 80q74 0 112 -42.5t38 -122.5v-345h-90v325q0 110 -100 110q-64 0 -140 -58v-377h-90v562h-70v55h70v83h90v-83h110v-55h-110z" />
    <glyph glyph-name="Itilde" unicode="&#x128;" horiz-adv-x="225" 
d="M159 0h-95v680h95v-680zM58 785q-19 0 -34.5 -8.5t-45.5 -39.5l-29 23q50 82 106 82q26 0 71.5 -26t60.5 -26q34 0 65 46l24 -28q-36 -74 -89 -74q-19 0 -64.5 25.5t-64.5 25.5z" />
    <glyph glyph-name="itilde" unicode="&#x129;" horiz-adv-x="200" 
d="M45 615q-19 0 -34.5 -8.5t-45.5 -39.5l-29 23q50 82 106 82q26 0 71.5 -26t60.5 -26q34 0 65 46l24 -28q-36 -74 -89 -74q-19 0 -64.5 25.5t-64.5 25.5zM55 500h90v-500h-90v500z" />
    <glyph glyph-name="Imacron" unicode="&#x12a;" horiz-adv-x="225" 
d="M156 0h-95v680h95v-680zM-43 820h310v-55h-310v55z" />
    <glyph glyph-name="imacron" unicode="&#x12b;" horiz-adv-x="200" 
d="M-55 650h310v-55h-310v55zM55 500h90v-500h-90v500z" />
    <glyph glyph-name="Ibreve" unicode="&#x12c;" horiz-adv-x="225" 
d="M162 0h-95v680h95v-680zM112 788q78 0 101 82h39q-20 -135 -140 -135q-58 0 -94 34.5t-45 100.5h38q25 -82 101 -82z" />
    <glyph glyph-name="ibreve" unicode="&#x12d;" horiz-adv-x="200" 
d="M99 618q78 0 101 82h39q-20 -135 -140 -135q-58 0 -94 34.5t-45 100.5h38q25 -82 101 -82zM55 500h90v-500h-90v500z" />
    <glyph glyph-name="Iogonek" unicode="&#x12e;" horiz-adv-x="225" 
d="M93 0h-28v680h95v-680q-43 -13 -67.5 -46t-24.5 -65q0 -54 57 -54q24 0 56 17l5 -23q-37 -29 -90 -29q-38 0 -64 19t-26 53q0 35 24 68.5t63 59.5z" />
    <glyph glyph-name="iogonek" unicode="&#x12f;" horiz-adv-x="200" 
d="M145 500v-500q-38 -13 -62 -47t-24 -64q0 -54 57 -54q24 0 56 17l5 -23q-37 -29 -90 -29q-38 0 -64 19t-26 53q0 69 86 128q-1 1 -28 31v469h90zM55 700h90v-125h-90v125z" />
    <glyph glyph-name="Idotaccent" unicode="&#x130;" horiz-adv-x="225" 
d="M160 0h-95v680h95v-680zM72 850h80v-110h-80v110z" />
    <glyph glyph-name="dotlessi" unicode="&#x131;" horiz-adv-x="200" 
d="M55 500h90v-500h-90v500z" />
    <glyph glyph-name="IJ" unicode="&#x132;" horiz-adv-x="560" 
d="M160 0h-95v680h95v-680zM495 680v-510q0 -97 -40.5 -138.5t-119.5 -41.5q-46 0 -93 7l9 80q38 -5 59 -5q46 0 68 24t22 79v505h95z" />
    <glyph glyph-name="ij" unicode="&#x133;" horiz-adv-x="397" 
d="M55 500h90v-500h-90v500zM55 680h90v-125h-90v125zM342 500v-573q0 -73 -32 -105t-113 -32q-35 0 -80 7l8 70q37 -5 52 -5q42 0 58.5 15.5t16.5 57.5v565h90zM252 680h90v-125h-90v125z" />
    <glyph glyph-name="Jcircumflex" unicode="&#x134;" horiz-adv-x="335" 
d="M270 680v-510q0 -97 -40.5 -138.5t-119.5 -41.5q-46 0 -93 7l9 80q38 -5 59 -5q46 0 68 24t22 79v505h95zM223 810l-85 -80h-50l107 120h55l108 -120h-50z" />
    <glyph glyph-name="jcircumflex" unicode="&#x135;" horiz-adv-x="240" 
d="M185 500v-573q0 -73 -32 -105t-113 -32q-35 0 -80 7l8 70q37 -5 52 -5q42 0 58.5 15.5t16.5 57.5v565h90zM140 640l-85 -80h-50l107 120h55l108 -120h-50z" />
    <glyph glyph-name="Kcommaaccent" unicode="&#x136;" horiz-adv-x="627" 
d="M160 680v-353l311 353h114l-245 -282l250 -398h-119l-200 322l-111 -125v-197h-95v680h95zM310 -198h-29l18 85h-25v80h80v-80z" />
    <glyph glyph-name="kcommaaccent" unicode="&#x137;" horiz-adv-x="540" 
d="M145 700v-404l240 204h110l-190 -173l200 -327h-107l-156 276l-97 -81v-195h-90v700h90zM259 -205h-29l18 85h-25v80h80v-80z" />
    <glyph glyph-name="kgreenlandic" unicode="&#x138;" horiz-adv-x="540" 
d="M145 500v-204l240 204h110l-190 -173l200 -327h-107l-156 276l-97 -81v-195h-90v500h90z" />
    <glyph glyph-name="Lacute" unicode="&#x139;" horiz-adv-x="540" 
d="M65 680h95v-595h335v-85h-430v680zM221 841l-85 -120h-50l60 120h75z" />
    <glyph glyph-name="lacute" unicode="&#x13a;" horiz-adv-x="200" 
d="M55 0v700h90v-700h-90zM211 870l-85 -120h-50l60 120h75z" />
    <glyph glyph-name="Lcommaaccent" unicode="&#x13b;" horiz-adv-x="540" 
d="M65 680h95v-595h335v-85h-430v680zM279 -197h-29l18 85h-25v80h80v-80z" />
    <glyph glyph-name="lcommaaccent" unicode="&#x13c;" horiz-adv-x="200" 
d="M55 0v700h90v-700h-90zM96 -205h-29l18 85h-25v80h80v-80z" />
    <glyph glyph-name="Lcaron" unicode="&#x13d;" horiz-adv-x="540" 
d="M65 680h95v-595h335v-85h-430v680zM301 515h-29l18 85h-25v80h80v-80z" />
    <glyph glyph-name="lcaron" unicode="&#x13e;" horiz-adv-x="235" 
d="M55 0v700h90v-700h-90zM229 535h-29l18 85h-25v80h80v-80z" />
    <glyph glyph-name="Ldot" unicode="&#x13f;" horiz-adv-x="540" 
d="M65 680h95v-595h335v-85h-430v680zM280 440h80v-120h-80v120z" />
    <glyph glyph-name="ldot" unicode="&#x140;" horiz-adv-x="300" 
d="M55 0v700h90v-700h-90zM200 420h80v-120h-80v120z" />
    <glyph glyph-name="Lslash" unicode="&#x141;" horiz-adv-x="550" 
d="M280 387l-110 -26v-276h335v-85h-430v339l-70 -17v55l70 17v286h95v-264l110 26v-55z" />
    <glyph glyph-name="lslash" unicode="&#x142;" horiz-adv-x="240" 
d="M260 367l-95 -23v-344h-90v321l-95 -24v55l95 24v324h90v-301l95 23v-55z" />
    <glyph glyph-name="Nacute" unicode="&#x143;" horiz-adv-x="650" 
d="M157 0h-92v680h95l330 -505h2v505h93v-680h-95l-331 494h-2v-494zM438 841l-85 -120h-50l60 120h75z" />
    <glyph glyph-name="nacute" unicode="&#x144;" horiz-adv-x="530" 
d="M145 377v-377h-90v500h90v-70h2q82 80 178 80q74 0 112 -42.5t38 -122.5v-345h-90v325q0 110 -100 110q-64 0 -140 -58zM370 680l-85 -120h-50l60 120h75z" />
    <glyph glyph-name="Ncommaaccent" unicode="&#x145;" horiz-adv-x="650" 
d="M157 0h-92v680h95l330 -505h2v505h93v-680h-95l-331 494h-2v-494zM322 -205h-29l18 85h-25v80h80v-80z" />
    <glyph glyph-name="ncommaaccent" unicode="&#x146;" horiz-adv-x="530" 
d="M145 377v-377h-90v500h90v-70h2q82 80 178 80q74 0 112 -42.5t38 -122.5v-345h-90v325q0 110 -100 110q-64 0 -140 -58zM266 725h30l-18 -85h25v-80h-80v80z" />
    <glyph glyph-name="Ncaron" unicode="&#x147;" horiz-adv-x="650" 
d="M157 0h-92v680h95l330 -505h2v505h93v-680h-95l-331 494h-2v-494zM240 840l85 -80l85 80h50l-108 -120h-55l-107 120h50z" />
    <glyph glyph-name="ncaron" unicode="&#x148;" horiz-adv-x="530" 
d="M145 377v-377h-90v500h90v-70h2q82 80 178 80q74 0 112 -42.5t38 -122.5v-345h-90v325q0 110 -100 110q-64 0 -140 -58zM180 680l85 -80l85 80h50l-108 -120h-55l-107 120h50z" />
    <glyph glyph-name="napostrophe" unicode="&#x149;" horiz-adv-x="530" 
d="M145 377v-377h-90v500h90v-70h2q82 80 178 80q74 0 112 -42.5t38 -122.5v-345h-90v325q0 110 -100 110q-64 0 -140 -58zM97 535h-30l18 85h-25v80h80v-80z" />
    <glyph glyph-name="Eng" unicode="&#x14a;" horiz-adv-x="650" 
d="M495 -66v66l-336 494h-2v-494h-92v680h95l330 -505h2v505h93v-754q0 -73 -32 -105.5t-113 -32.5q-38 0 -80 8l8 70q28 -5 52 -5q42 0 58.5 15.5t16.5 57.5z" />
    <glyph glyph-name="eng" unicode="&#x14b;" horiz-adv-x="530" 
d="M385 -65v390q0 110 -100 110q-64 0 -140 -58v-377h-90v500h90v-70h2q82 80 178 80q74 0 112 -42.5t38 -122.5v-418q0 -73 -32 -105t-113 -32q-34 0 -80 7l8 70q37 -5 52 -5q42 0 58.5 15.5t16.5 57.5z" />
    <glyph glyph-name="Omacron" unicode="&#x14c;" horiz-adv-x="690" 
d="M345 610q-59 0 -98 -20t-58.5 -59t-26.5 -82.5t-7 -103.5q0 -61 7 -105.5t26.5 -85.5t58.5 -62.5t98 -21.5q47 0 82 15t55 39.5t32.5 61.5t16.5 74t4 85q0 47 -4 83.5t-16.5 72t-33 58.5t-55 37t-81.5 14zM345 -10q-84 0 -143 27.5t-90 78.5t-44 111t-13 138
q0 76 13 134.5t44 108t90 76t143 26.5t142.5 -26.5t90 -76t44.5 -108t13 -134.5q0 -78 -13 -138t-44.5 -111t-90 -78.5t-142.5 -27.5zM190 820h310v-55h-310v55z" />
    <glyph glyph-name="omacron" unicode="&#x14d;" horiz-adv-x="550" 
d="M275 435q-135 0 -135 -185t135 -185t135 185t-135 185zM275 -10q-230 0 -230 260t230 260t230 -260t-230 -260zM120 650h310v-55h-310v55z" />
    <glyph glyph-name="Obreve" unicode="&#x14e;" horiz-adv-x="690" 
d="M345 610q-59 0 -98 -20t-58.5 -59t-26.5 -82.5t-7 -103.5q0 -61 7 -105.5t26.5 -85.5t58.5 -62.5t98 -21.5q47 0 82 15t55 39.5t32.5 61.5t16.5 74t4 85q0 47 -4 83.5t-16.5 72t-33 58.5t-55 37t-81.5 14zM345 -10q-84 0 -143 27.5t-90 78.5t-44 111t-13 138
q0 76 13 134.5t44 108t90 76t143 26.5t142.5 -26.5t90 -76t44.5 -108t13 -134.5q0 -78 -13 -138t-44.5 -111t-90 -78.5t-142.5 -27.5zM344 788q78 0 101 82h39q-20 -135 -140 -135q-58 0 -94 34.5t-45 100.5h38q25 -82 101 -82z" />
    <glyph glyph-name="obreve" unicode="&#x14f;" horiz-adv-x="550" 
d="M275 435q-135 0 -135 -185t135 -185t135 185t-135 185zM275 -10q-230 0 -230 260t230 260t230 -260t-230 -260zM274 618q78 0 101 82h39q-20 -135 -140 -135q-58 0 -94 34.5t-45 100.5h38q25 -82 101 -82z" />
    <glyph glyph-name="Ohungarumlaut" unicode="&#x150;" horiz-adv-x="690" 
d="M345 610q-59 0 -98 -20t-58.5 -59t-26.5 -82.5t-7 -103.5q0 -61 7 -105.5t26.5 -85.5t58.5 -62.5t98 -21.5q47 0 82 15t55 39.5t32.5 61.5t16.5 74t4 85q0 47 -4 83.5t-16.5 72t-33 58.5t-55 37t-81.5 14zM345 -10q-84 0 -143 27.5t-90 78.5t-44 111t-13 138
q0 76 13 134.5t44 108t90 76t143 26.5t142.5 -26.5t90 -76t44.5 -108t13 -134.5q0 -78 -13 -138t-44.5 -111t-90 -78.5t-142.5 -27.5zM377 850l-70 -120h-50l60 120h60zM492 850l-70 -120h-50l60 120h60z" />
    <glyph glyph-name="ohungarumlaut" unicode="&#x151;" horiz-adv-x="550" 
d="M275 435q-135 0 -135 -185t135 -185t135 185t-135 185zM275 -10q-230 0 -230 260t230 260t230 -260t-230 -260zM306 680l-70 -120h-50l60 120h60zM421 680l-70 -120h-50l60 120h60z" />
    <glyph glyph-name="OE" unicode="&#x152;" horiz-adv-x="1027" 
d="M967 680v-85h-340v-200h295v-85h-295v-225h345v-85h-437v114h-1q-36 -124 -189 -124q-71 0 -124 20.5t-84 53t-50 80.5t-25.5 95.5t-6.5 105.5q0 76 13 134.5t44 108t90 76t143 26.5q139 0 189 -121h1v111h432zM345 610q-59 0 -98 -20t-58.5 -59t-26.5 -82.5t-7 -103.5
q0 -61 7 -105.5t26.5 -85.5t58.5 -62.5t98 -21.5q47 0 82 15t55 39.5t32.5 62.5t16.5 76t4 88q0 59 -7.5 102t-27.5 80.5t-58.5 57t-96.5 19.5z" />
    <glyph glyph-name="oe" unicode="&#x153;" horiz-adv-x="895" 
d="M849 235h-341q3 -170 165 -170q90 0 156 20l11 -73q-80 -22 -180 -22q-152 0 -202 116q-46 -116 -183 -116q-230 0 -230 260t230 260q136 0 183 -117q49 117 197 117q203 0 203 -192q0 -31 -9 -83zM275 435q-135 0 -135 -185t135 -185t135 185t-135 185zM650 440
q-131 0 -142 -148h254q4 19 4 42q0 46 -28 76t-88 30z" />
    <glyph glyph-name="Racute" unicode="&#x154;" horiz-adv-x="615" 
d="M577 0h-111l-161 265h-145v-265h-95v680h280q99 0 154.5 -57.5t55.5 -150.5q0 -74 -39.5 -126t-111.5 -66zM160 595v-245h170q58 0 92.5 31t34.5 91q0 58 -32.5 90.5t-89.5 32.5h-175zM392 841l-85 -120h-50l60 120h75z" />
    <glyph glyph-name="racute" unicode="&#x155;" horiz-adv-x="370" 
d="M145 367v-367h-90v500h90v-80h2q34 38 83 64t105 26v-85q-101 0 -190 -58zM293 680l-85 -120h-50l60 120h75z" />
    <glyph glyph-name="Rcommaaccent" unicode="&#x156;" horiz-adv-x="615" 
d="M577 0h-111l-161 265h-145v-265h-95v680h280q99 0 154.5 -57.5t55.5 -150.5q0 -74 -39.5 -126t-111.5 -66zM160 595v-245h170q58 0 92.5 31t34.5 91q0 58 -32.5 90.5t-89.5 32.5h-175zM315 -199h-29l18 85h-25v80h80v-80z" />
    <glyph glyph-name="rcommaaccent" unicode="&#x157;" horiz-adv-x="370" 
d="M145 367v-367h-90v500h90v-80h2q34 38 83 64t105 26v-85q-101 0 -190 -58zM96 -205h-29l18 85h-25v80h80v-80z" />
    <glyph glyph-name="Rcaron" unicode="&#x158;" horiz-adv-x="615" 
d="M577 0h-111l-161 265h-145v-265h-95v680h280q99 0 154.5 -57.5t55.5 -150.5q0 -74 -39.5 -126t-111.5 -66zM160 595v-245h170q58 0 92.5 31t34.5 91q0 58 -32.5 90.5t-89.5 32.5h-175zM206 840l85 -80l85 80h50l-108 -120h-55l-107 120h50z" />
    <glyph glyph-name="rcaron" unicode="&#x159;" horiz-adv-x="370" 
d="M145 367v-367h-90v500h90v-80h2q34 38 83 64t105 26v-85q-101 0 -190 -58zM109 680l85 -80l85 80h50l-108 -120h-55l-107 120h50z" />
    <glyph glyph-name="Sacute" unicode="&#x15a;" 
d="M300 -10q-126 0 -245 35l16 80q125 -30 229 -30q71 0 108 31t37 76q0 27 -13 47.5t-39.5 34.5t-47 20.5t-55.5 16.5q-10 3 -15 4q-93 24 -151.5 74.5t-58.5 130.5q0 92 65 136t170 44q111 0 230 -35l-22 -80q-124 30 -208 30q-70 0 -102.5 -27t-32.5 -71
q0 -27 15.5 -48.5t45 -35.5t53.5 -21.5t61 -16.5q205 -47 205 -195q0 -98 -67.5 -149t-177.5 -51zM419 841l-85 -120h-50l60 120h75z" />
    <glyph glyph-name="sacute" unicode="&#x15b;" horiz-adv-x="480" 
d="M440 142q0 -74 -48 -113t-137 -39q-127 0 -215 22l16 73q92 -23 189 -23q60 0 82.5 25t22.5 49q0 27 -24.5 45t-88.5 30q-91 17 -139 51.5t-48 107.5q0 140 185 140q108 0 200 -23l-17 -72q-88 22 -178 22q-31 0 -53 -7.5t-31 -19t-12.5 -20.5t-3.5 -18q0 -27 22 -45
t85 -31q46 -10 75 -19.5t59 -27t44.5 -44t14.5 -63.5zM364 680l-85 -120h-50l60 120h75z" />
    <glyph glyph-name="Scircumflex" unicode="&#x15c;" 
d="M300 -10q-126 0 -245 35l16 80q125 -30 229 -30q71 0 108 31t37 76q0 27 -13 47.5t-39.5 34.5t-47 20.5t-55.5 16.5q-10 3 -15 4q-93 24 -151.5 74.5t-58.5 130.5q0 92 65 136t170 44q111 0 230 -35l-22 -80q-124 30 -208 30q-70 0 -102.5 -27t-32.5 -71
q0 -27 15.5 -48.5t45 -35.5t53.5 -21.5t61 -16.5q205 -47 205 -195q0 -98 -67.5 -149t-177.5 -51zM310 810l-85 -80h-50l107 120h55l108 -120h-50z" />
    <glyph glyph-name="scircumflex" unicode="&#x15d;" horiz-adv-x="480" 
d="M440 142q0 -74 -48 -113t-137 -39q-127 0 -215 22l16 73q92 -23 189 -23q60 0 82.5 25t22.5 49q0 27 -24.5 45t-88.5 30q-91 17 -139 51.5t-48 107.5q0 140 185 140q108 0 200 -23l-17 -72q-88 22 -178 22q-31 0 -53 -7.5t-31 -19t-12.5 -20.5t-3.5 -18q0 -27 22 -45
t85 -31q46 -10 75 -19.5t59 -27t44.5 -44t14.5 -63.5zM251 640l-85 -80h-50l107 120h55l108 -120h-50z" />
    <glyph glyph-name="Scedilla" unicode="&#x15e;" 
d="M545 190q0 -95 -64.5 -146.5t-170.5 -53.5v-45q83 -7 83 -72q0 -36 -25.5 -57t-71.5 -21q-36 0 -75 12l6 30q28 -7 53 -7q30 0 43.5 14.5t13.5 32.5t-15 32t-47 16v65q-125 5 -220 35l16 80q125 -30 229 -30q71 0 108 31t37 76q0 27 -13 47.5t-39.5 34.5t-47 20.5
t-55.5 16.5q-10 3 -15 4q-93 24 -151.5 74.5t-58.5 130.5q0 92 65 136t170 44q111 0 230 -35l-22 -80q-124 30 -208 30q-70 0 -102.5 -27t-32.5 -71q0 -27 15.5 -48.5t45 -35.5t53.5 -21.5t61 -16.5q205 -47 205 -195z" />
    <glyph glyph-name="scedilla" unicode="&#x15f;" horiz-adv-x="480" 
d="M440 142q0 -73 -47 -112t-134 -40v-45q84 -7 84 -72q0 -36 -26 -57t-72 -21q-35 0 -74 12l6 30q28 -7 52 -7q30 0 43.5 14.5t13.5 32.5t-14.5 32t-47.5 16v65q-109 3 -184 22l16 73q92 -23 189 -23q60 0 82.5 25t22.5 49q0 27 -24.5 45t-88.5 30q-91 17 -139 51.5
t-48 107.5q0 140 185 140q108 0 200 -23l-17 -72q-88 22 -178 22q-31 0 -53 -7.5t-31 -19t-12.5 -20.5t-3.5 -18q0 -27 22 -45t85 -31q46 -10 75 -19.5t59 -27t44.5 -44t14.5 -63.5z" />
    <glyph glyph-name="Scaron" unicode="&#x160;" 
d="M300 -10q-126 0 -245 35l16 80q125 -30 229 -30q71 0 108 31t37 76q0 27 -13 47.5t-39.5 34.5t-47 20.5t-55.5 16.5q-10 3 -15 4q-93 24 -151.5 74.5t-58.5 130.5q0 92 65 136t170 44q111 0 230 -35l-22 -80q-124 30 -208 30q-70 0 -102.5 -27t-32.5 -71
q0 -27 15.5 -48.5t45 -35.5t53.5 -21.5t61 -16.5q205 -47 205 -195q0 -98 -67.5 -149t-177.5 -51zM215 840l85 -80l85 80h50l-108 -120h-55l-107 120h50z" />
    <glyph glyph-name="scaron" unicode="&#x161;" horiz-adv-x="480" 
d="M440 142q0 -74 -48 -113t-137 -39q-127 0 -215 22l16 73q92 -23 189 -23q60 0 82.5 25t22.5 49q0 27 -24.5 45t-88.5 30q-91 17 -139 51.5t-48 107.5q0 140 185 140q108 0 200 -23l-17 -72q-88 22 -178 22q-31 0 -53 -7.5t-31 -19t-12.5 -20.5t-3.5 -18q0 -27 22 -45
t85 -31q46 -10 75 -19.5t59 -27t44.5 -44t14.5 -63.5zM164 680l85 -80l85 80h50l-108 -120h-55l-107 120h50z" />
    <glyph glyph-name="Tcommaaccent" unicode="&#x162;" horiz-adv-x="560" 
d="M515 595h-188v-595h-95v595h-187v85h470v-85zM276 -205h-29l18 85h-25v80h80v-80z" />
    <glyph glyph-name="tcommaaccent" unicode="&#x163;" horiz-adv-x="375" 
d="M95 145v290h-75v59l75 6l11 140h79v-140h140v-65h-140v-275q0 -50 19 -74t66 -24q16 0 51 5l9 -70q-47 -7 -90 -7q-78 0 -111.5 35.5t-33.5 119.5zM197 -205h-29l18 85h-25v80h80v-80z" />
    <glyph glyph-name="Tcaron" unicode="&#x164;" horiz-adv-x="560" 
d="M515 595h-188v-595h-95v595h-187v85h470v-85zM195 840l85 -80l85 80h50l-108 -120h-55l-107 120h50z" />
    <glyph glyph-name="tcaron" unicode="&#x165;" horiz-adv-x="375" 
d="M95 145v290h-75v59l75 6l11 140h79v-140h140v-65h-140v-275q0 -50 19 -74t66 -24q16 0 51 5l9 -70q-47 -7 -90 -7q-78 0 -111.5 35.5t-33.5 119.5zM286 535h-29l18 85h-25v80h80v-80z" />
    <glyph glyph-name="Tbar" unicode="&#x166;" horiz-adv-x="560" 
d="M147 297h85v298h-187v85h470v-85h-188v-298h85v-55h-85v-242h-95v242h-85v55z" />
    <glyph glyph-name="tbar" unicode="&#x167;" horiz-adv-x="375" 
d="M95 245h-60v55h60v135h-75v59l75 6l11 140h79v-140h140v-65h-140v-135h130v-55h-130v-85q0 -50 19 -74t66 -24q16 0 51 5l9 -70q-47 -7 -90 -7q-78 0 -111.5 35.5t-33.5 119.5v100z" />
    <glyph glyph-name="Utilde" unicode="&#x168;" horiz-adv-x="640" 
d="M322 70q40 0 70 11t46.5 27t26 40t12.5 45t3 47v440h95v-440q0 -250 -255 -250t-255 250v440h95v-440q0 -34 5 -59t20.5 -53t50 -43t86.5 -15zM265 785q-19 0 -34.5 -8.5t-45.5 -39.5l-29 23q50 82 106 82q26 0 71.5 -26t60.5 -26q34 0 65 46l24 -28q-36 -74 -89 -74
q-19 0 -64.5 25.5t-64.5 25.5z" />
    <glyph glyph-name="utilde" unicode="&#x169;" horiz-adv-x="530" 
d="M385 122v378h90v-500h-90v70h-2q-80 -80 -178 -80q-74 0 -112 42.5t-38 122.5v345h90v-325q0 -110 100 -110q62 0 140 57zM210 615q-19 0 -34.5 -8.5t-45.5 -39.5l-29 23q50 82 106 82q26 0 71.5 -26t60.5 -26q34 0 65 46l24 -28q-36 -74 -89 -74q-19 0 -64.5 25.5
t-64.5 25.5z" />
    <glyph glyph-name="Umacron" unicode="&#x16a;" horiz-adv-x="640" 
d="M322 70q40 0 70 11t46.5 27t26 40t12.5 45t3 47v440h95v-440q0 -250 -255 -250t-255 250v440h95v-440q0 -34 5 -59t20.5 -53t50 -43t86.5 -15zM165 820h310v-55h-310v55z" />
    <glyph glyph-name="umacron" unicode="&#x16b;" horiz-adv-x="530" 
d="M385 122v378h90v-500h-90v70h-2q-80 -80 -178 -80q-74 0 -112 42.5t-38 122.5v345h90v-325q0 -110 100 -110q62 0 140 57zM110 650h310v-55h-310v55z" />
    <glyph glyph-name="Ubreve" unicode="&#x16c;" horiz-adv-x="640" 
d="M322 70q40 0 70 11t46.5 27t26 40t12.5 45t3 47v440h95v-440q0 -250 -255 -250t-255 250v440h95v-440q0 -34 5 -59t20.5 -53t50 -43t86.5 -15zM319 788q78 0 101 82h39q-20 -135 -140 -135q-58 0 -94 34.5t-45 100.5h38q25 -82 101 -82z" />
    <glyph glyph-name="ubreve" unicode="&#x16d;" horiz-adv-x="530" 
d="M385 122v378h90v-500h-90v70h-2q-80 -80 -178 -80q-74 0 -112 42.5t-38 122.5v345h90v-325q0 -110 100 -110q62 0 140 57zM264 618q78 0 101 82h39q-20 -135 -140 -135q-58 0 -94 34.5t-45 100.5h38q25 -82 101 -82z" />
    <glyph glyph-name="Uring" unicode="&#x16e;" horiz-adv-x="640" 
d="M322 70q40 0 70 11t46.5 27t26 40t12.5 45t3 47v440h95v-440q0 -250 -255 -250t-255 250v440h95v-440q0 -34 5 -59t20.5 -53t50 -43t86.5 -15zM243 790q0 32 22 53.5t55 21.5q32 0 54 -21.5t22 -53.5q0 -33 -21.5 -54t-54.5 -21t-55 21t-22 54zM274 790q0 -20 13 -34
t33 -14q19 0 32.5 14t13.5 34t-13 33.5t-33 13.5t-33 -13.5t-13 -33.5z" />
    <glyph glyph-name="uring" unicode="&#x16f;" horiz-adv-x="530" 
d="M385 122v378h90v-500h-90v70h-2q-80 -80 -178 -80q-74 0 -112 42.5t-38 122.5v345h90v-325q0 -110 100 -110q62 0 140 57zM188 620q0 32 22 53.5t55 21.5q32 0 54 -21.5t22 -53.5q0 -33 -21.5 -54t-54.5 -21t-55 21t-22 54zM219 620q0 -20 13 -34t33 -14q19 0 32.5 14
t13.5 34t-13 33.5t-33 13.5t-33 -13.5t-13 -33.5z" />
    <glyph glyph-name="Uhungarumlaut" unicode="&#x170;" horiz-adv-x="640" 
d="M322 70q40 0 70 11t46.5 27t26 40t12.5 45t3 47v440h95v-440q0 -250 -255 -250t-255 250v440h95v-440q0 -34 5 -59t20.5 -53t50 -43t86.5 -15zM342 850l-70 -120h-50l60 120h60zM457 850l-70 -120h-50l60 120h60z" />
    <glyph glyph-name="uhungarumlaut" unicode="&#x171;" horiz-adv-x="530" 
d="M385 122v378h90v-500h-90v70h-2q-80 -80 -178 -80q-74 0 -112 42.5t-38 122.5v345h90v-325q0 -110 100 -110q62 0 140 57zM298 680l-70 -120h-50l60 120h60zM413 680l-70 -120h-50l60 120h60z" />
    <glyph glyph-name="Uogonek" unicode="&#x172;" horiz-adv-x="640" 
d="M322 70q40 0 70 11t46.5 27t26 40t12.5 45t3 47v440h95v-440q0 -241 -237 -250q-58 -51 -58 -101q0 -54 57 -54q24 0 56 17l5 -23q-37 -29 -90 -29q-38 0 -64 19t-26 53q0 63 74 119q-227 12 -227 249v440h95v-440q0 -34 5 -59t20.5 -53t50 -43t86.5 -15z" />
    <glyph glyph-name="uogonek" unicode="&#x173;" horiz-adv-x="530" 
d="M494 -148l5 -23q-37 -29 -90 -29q-36 0 -63 18t-27 55q0 69 87 127h-21v70h-2q-80 -80 -178 -80q-74 0 -112 42.5t-38 122.5v345h90v-325q0 -110 100 -110q62 0 140 57v378h90v-500q-43 -13 -68.5 -45.5t-25.5 -65.5q0 -54 57 -54q24 0 56 17z" />
    <glyph glyph-name="Wcircumflex" unicode="&#x174;" horiz-adv-x="940" 
d="M471 527h-2l-134 -532h-123l-177 685h105l138 -563h1l137 563h112l140 -563h1l135 563h101l-178 -685h-122zM470 810l-85 -80h-50l107 120h55l108 -120h-50z" />
    <glyph glyph-name="wcircumflex" unicode="&#x175;" horiz-adv-x="790" 
d="M395 361h-2l-101 -366h-100l-152 505h100l111 -404h2l100 404h88l106 -404h2l106 404h95l-150 -505h-100zM395 640l-85 -80h-50l107 120h55l108 -120h-50z" />
    <glyph glyph-name="Ycircumflex" unicode="&#x176;" horiz-adv-x="620" 
d="M311 337h2l168 343h104l-228 -440v-240h-95v240l-227 440h108zM310 810l-85 -80h-50l107 120h55l108 -120h-50z" />
    <glyph glyph-name="ycircumflex" unicode="&#x177;" horiz-adv-x="560" 
d="M234 -10l-194 510h101l145 -409h2l136 409h96l-188 -530q-34 -97 -81 -138.5t-121 -41.5q-38 0 -75 7l8 75q28 -5 47 -5q79 0 124 123zM280 640l-85 -80h-50l107 120h55l108 -120h-50z" />
    <glyph glyph-name="Ydieresis" unicode="&#x178;" horiz-adv-x="620" 
d="M311 337h2l168 343h104l-228 -440v-240h-95v240l-227 440h108zM147 845h75v-110h-75v110zM397 845h75v-110h-75v110z" />
    <glyph glyph-name="Zacute" unicode="&#x179;" horiz-adv-x="560" 
d="M172 87v-2h348v-85h-480v70l341 523v2h-321v85h450v-70zM390 841l-85 -120h-50l60 120h75z" />
    <glyph glyph-name="zacute" unicode="&#x17a;" horiz-adv-x="470" 
d="M432 500v-65l-287 -363v-2h297v-70h-415v65l290 363v2h-275v70h390zM341 680l-85 -120h-50l60 120h75z" />
    <glyph glyph-name="Zdotaccent" unicode="&#x17b;" horiz-adv-x="560" 
d="M172 87v-2h348v-85h-480v70l341 523v2h-321v85h450v-70zM240 850h80v-110h-80v110z" />
    <glyph glyph-name="zdotaccent" unicode="&#x17c;" horiz-adv-x="470" 
d="M432 500v-65l-287 -363v-2h297v-70h-415v65l290 363v2h-275v70h390zM195 680h80v-110h-80v110z" />
    <glyph glyph-name="Zcaron" unicode="&#x17d;" horiz-adv-x="560" 
d="M172 87v-2h348v-85h-480v70l341 523v2h-321v85h450v-70zM195 840l85 -80l85 80h50l-108 -120h-55l-107 120h50z" />
    <glyph glyph-name="zcaron" unicode="&#x17e;" horiz-adv-x="470" 
d="M432 500v-65l-287 -363v-2h297v-70h-415v65l290 363v2h-275v70h390zM150 680l85 -80l85 80h50l-108 -120h-55l-107 120h50z" />
    <glyph glyph-name="longs" unicode="&#x17f;" horiz-adv-x="345" 
d="M95 -65v609q0 84 33.5 120t111.5 36q37 0 80 -8l-9 -70q-26 5 -51 5q-43 0 -59 -23.5t-16 -74.5v-602q0 -72 -32 -104.5t-113 -32.5q-35 0 -80 7l8 70q37 -5 52 -5q44 0 59.5 16.5t15.5 56.5z" />
    <glyph glyph-name="florin" unicode="&#x192;" horiz-adv-x="345" 
d="M95 -40v475h-75v59l75 6v44q0 84 33.5 120t111.5 36q37 0 80 -8l-9 -70q-26 5 -51 5q-43 0 -59 -23.5t-16 -74.5v-29h130v-65h-130v-475q0 -89 -32.5 -129.5t-112.5 -40.5q-35 0 -80 7l8 70q37 -5 52 -5q43 0 59 23.5t16 74.5z" />
    <glyph glyph-name="AEacute" unicode="&#x1fc;" horiz-adv-x="926" 
d="M431 242h-175l-126 -242h-95l347 680h484v-85h-340v-200h295v-85h-295v-225h345v-85h-440v242zM429 594l-140 -277h142v277h-2zM590 841l-85 -120h-50l60 120h75z" />
    <glyph glyph-name="aeacute" unicode="&#x1fd;" horiz-adv-x="845" 
d="M799 235h-342q5 -170 165 -170q92 0 156 20l12 -73q-82 -22 -180 -22q-151 0 -211 93q-84 -93 -199 -93q-72 0 -116 39t-44 108q0 153 210 153h110v50q0 50 -27 72.5t-88 22.5q-65 0 -159 -19q-3 12 -7 36.5t-7 36.5q92 18 172 20q39 1 72 -10q81 -19 105 -87
q51 98 184 98q60 0 102.5 -18t63 -45t29.5 -66t7.5 -73t-8.5 -73zM235 60q83 0 141 56q-16 44 -16 119h-105q-67 0 -96 -22.5t-29 -67.5q0 -40 28 -62.5t77 -22.5zM600 440q-131 0 -143 -148h254q12 61 -12.5 104.5t-98.5 43.5zM542 680l-85 -120h-50l60 120h75z" />
    <glyph glyph-name="Oslashacute" unicode="&#x1fe;" horiz-adv-x="690" 
d="M442 841l-85 -120h-50l60 120h75zM345 -10q-132 0 -202 72l-74 -93l-29 23l77 97q-62 86 -62 256q0 76 13 134.5t44 108t90 76t143 26.5q127 0 196 -66l79 99l29 -23l-80 -101q66 -83 66 -254q0 -78 -13 -138t-44.5 -111t-90 -78.5t-142.5 -27.5zM345 70q47 0 82 15
t55 39.5t32.5 61.5t16.5 74t4 85q0 114 -32 171l-303 -382q46 -64 145 -64zM345 610q-59 0 -98 -20t-58.5 -59t-26.5 -82.5t-7 -103.5q0 -114 28 -172l303 381q-48 56 -141 56z" />
    <glyph glyph-name="oslashacute" unicode="&#x1ff;" horiz-adv-x="550" 
d="M376 680l-85 -120h-50l60 120h75zM275 -10q-97 0 -154 51l-62 -72l-29 23l63 74q-48 65 -48 184q0 260 230 260q98 0 153 -52l62 73l30 -23l-64 -75q49 -65 49 -183q0 -260 -230 -260zM275 65q135 0 135 185q0 65 -21 104l-212 -248q33 -41 98 -41zM275 435
q-135 0 -135 -185q0 -66 20 -105l212 248q-34 42 -97 42z" />
    <glyph glyph-name="Scommaaccent" unicode="&#x218;" 
d="M300 -10q-126 0 -245 35l16 80q125 -30 229 -30q71 0 108 31t37 76q0 27 -13 47.5t-39.5 34.5t-47 20.5t-55.5 16.5q-10 3 -15 4q-93 24 -151.5 74.5t-58.5 130.5q0 92 65 136t170 44q111 0 230 -35l-22 -80q-124 30 -208 30q-70 0 -102.5 -27t-32.5 -71
q0 -27 15.5 -48.5t45 -35.5t53.5 -21.5t61 -16.5q205 -47 205 -195q0 -98 -67.5 -149t-177.5 -51zM297 -205h-29l18 85h-25v80h80v-80z" />
    <glyph glyph-name="scommaaccent" unicode="&#x219;" horiz-adv-x="480" 
d="M440 142q0 -74 -48 -113t-137 -39q-127 0 -215 22l16 73q92 -23 189 -23q60 0 82.5 25t22.5 49q0 27 -24.5 45t-88.5 30q-91 17 -139 51.5t-48 107.5q0 140 185 140q108 0 200 -23l-17 -72q-88 22 -178 22q-31 0 -53 -7.5t-31 -19t-12.5 -20.5t-3.5 -18q0 -27 22 -45
t85 -31q46 -10 75 -19.5t59 -27t44.5 -44t14.5 -63.5zM237 -205h-29l18 85h-25v80h80v-80z" />
    <glyph glyph-name="uni021A" unicode="&#x21a;" horiz-adv-x="560" 
d="M515 595h-188v-595h-95v595h-187v85h470v-85zM276 -205h-29l18 85h-25v80h80v-80z" />
    <glyph glyph-name="uni021B" unicode="&#x21b;" horiz-adv-x="375" 
d="M95 145v290h-75v59l75 6l11 140h79v-140h140v-65h-140v-275q0 -50 19 -74t66 -24q16 0 51 5l9 -70q-47 -7 -90 -7q-78 0 -111.5 35.5t-33.5 119.5zM208 -207h-29l18 85h-25v80h80v-80z" />
    <glyph glyph-name="dotlessj" unicode="&#x237;" horiz-adv-x="240" 
d="M185 500v-573q0 -73 -32 -105t-113 -32q-35 0 -80 7l8 70q37 -5 52 -5q42 0 58.5 15.5t16.5 57.5v565h90z" />
    <glyph glyph-name="circumflex" unicode="&#x2c6;" horiz-adv-x="390" 
d="M195 640l-85 -80h-50l107 120h55l108 -120h-50z" />
    <glyph glyph-name="caron" unicode="&#x2c7;" horiz-adv-x="390" 
d="M110 680l85 -80l85 80h50l-108 -120h-55l-107 120h50z" />
    <glyph glyph-name="uni02C9" unicode="&#x2c9;" horiz-adv-x="430" 
d="M60 650h310v-55h-310v55z" />
    <glyph glyph-name="breve" unicode="&#x2d8;" horiz-adv-x="399" 
d="M199 618q78 0 101 82h39q-20 -135 -140 -135q-58 0 -94 34.5t-45 100.5h38q25 -82 101 -82z" />
    <glyph glyph-name="dotaccent" unicode="&#x2d9;" horiz-adv-x="200" 
d="M60 680h80v-110h-80v110z" />
    <glyph glyph-name="ring" unicode="&#x2da;" horiz-adv-x="273" 
d="M60 620q0 32 22 53.5t55 21.5q32 0 54 -21.5t22 -53.5q0 -33 -21.5 -54t-54.5 -21t-55 21t-22 54zM91 620q0 -20 13 -34t33 -14q19 0 32.5 14t13.5 34t-13 33.5t-33 13.5t-33 -13.5t-13 -33.5z" />
    <glyph glyph-name="ogonek" unicode="&#x2db;" horiz-adv-x="299" 
d="M235 -148l4 -23q-37 -29 -90 -29q-38 0 -63.5 19t-25.5 53q0 68 85 128h46q-31 -24 -50.5 -54.5t-19.5 -56.5t15 -40t43 -14q22 0 56 17z" />
    <glyph glyph-name="tilde" unicode="&#x2dc;" horiz-adv-x="447" 
d="M169 615q-19 0 -34.5 -8.5t-45.5 -39.5l-29 23q50 82 106 82q26 0 71.5 -26t60.5 -26q34 0 65 46l24 -28q-36 -74 -89 -74q-19 0 -64.5 25.5t-64.5 25.5z" />
    <glyph glyph-name="hungarumlaut" unicode="&#x2dd;" horiz-adv-x="355" 
d="M180 680l-70 -120h-50l60 120h60zM295 680l-70 -120h-50l60 120h60z" />
    <glyph glyph-name="uni037E" unicode="&#x37e;" horiz-adv-x="240" 
d="M75 315h90v-130h-90v130z" />
    <glyph glyph-name="tonos" unicode="&#x384;" horiz-adv-x="255" 
d="M195 680l-85 -120h-50l60 120h75z" />
    <glyph glyph-name="dieresistonos" unicode="&#x385;" horiz-adv-x="500" 
d="M60 680h75v-110h-75v110zM365 680h75v-110h-75v110zM325 700l-85 -130h-50l60 130h75z" />
    <glyph glyph-name="anoteleia" unicode="&#x387;" horiz-adv-x="445" 
d="M60 680h75v-110h-75v110zM310 680h75v-110h-75v110z" />
    <glyph glyph-name="uni03BC" unicode="&#x3bc;" horiz-adv-x="530" 
d="M145 500v-331q2 -104 100 -104q62 0 140 57v378h90v-500h-90v70h-2q-69 -66 -143 -74q-71 -3 -95 38v-74q0 -91 -36.5 -130.5t-113.5 -39.5q-29 0 -75 7l8 70q37 -5 52 -5q43 0 59 24t16 74v540h90z" />
    <glyph glyph-name="pi" unicode="&#x3c0;" horiz-adv-x="530" 
d="M145 0h-90v500h420v-500h-90v420h-240v-420z" />
    <glyph glyph-name="uni03C2" unicode="&#x3c2;" horiz-adv-x="513" 
d="M100 249q0 68 48 114l-78 90l8 8l79 -90q44 36 100 36q55 0 99 -36l78 90l9 -8l-78 -89q50 -47 50 -115t-49 -114l76 -86l-9 -9l-77 87q-43 -35 -99 -35q-57 0 -100 35l-76 -87l-9 9l76 86q-48 46 -48 114zM112 249q0 -59 43 -102t102 -43t102.5 43t43.5 102t-43.5 102.5
t-102.5 43.5t-102 -43.5t-43 -102.5z" />
    <glyph glyph-name="sigma" unicode="&#x3c3;" horiz-adv-x="513" 
d="M100 249q0 68 48 114l-78 90l8 8l79 -90q44 36 100 36q55 0 99 -36l78 90l9 -8l-78 -89q50 -47 50 -115t-49 -114l76 -86l-9 -9l-77 87q-43 -35 -99 -35q-57 0 -100 35l-76 -87l-9 9l76 86q-48 46 -48 114zM112 249q0 -59 43 -102t102 -43t102.5 43t43.5 102t-43.5 102.5
t-102.5 43.5t-102 -43.5t-43 -102.5z" />
    <glyph glyph-name="Wgrave" unicode="&#x1e80;" horiz-adv-x="940" 
d="M471 527h-2l-134 -532h-123l-177 685h105l138 -563h1l137 563h112l140 -563h1l135 563h101l-178 -685h-122zM452 710l-85 120h75l60 -120h-50z" />
    <glyph glyph-name="wgrave" unicode="&#x1e81;" horiz-adv-x="790" 
d="M395 361h-2l-101 -366h-100l-152 505h100l111 -404h2l100 404h88l106 -404h2l106 404h95l-150 -505h-100zM368 560l-85 120h75l60 -120h-50z" />
    <glyph glyph-name="Wacute" unicode="&#x1e82;" horiz-adv-x="940" 
d="M471 527h-2l-134 -532h-123l-177 685h105l138 -563h1l137 563h112l140 -563h1l135 563h101l-178 -685h-122zM584 841l-85 -120h-50l60 120h75z" />
    <glyph glyph-name="wacute" unicode="&#x1e83;" horiz-adv-x="790" 
d="M395 361h-2l-101 -366h-100l-152 505h100l111 -404h2l100 404h88l106 -404h2l106 404h95l-150 -505h-100zM508 678l-85 -120h-50l60 120h75z" />
    <glyph glyph-name="Wdieresis" unicode="&#x1e84;" horiz-adv-x="940" 
d="M471 527h-2l-134 -532h-123l-177 685h105l138 -563h1l137 563h112l140 -563h1l135 563h101l-178 -685h-122zM307 845h75v-110h-75v110zM557 845h75v-110h-75v110z" />
    <glyph glyph-name="wdieresis" unicode="&#x1e85;" horiz-adv-x="790" 
d="M395 361h-2l-101 -366h-100l-152 505h100l111 -404h2l100 404h88l106 -404h2l106 404h95l-150 -505h-100zM232 680h75v-110h-75v110zM482 680h75v-110h-75v110z" />
    <glyph glyph-name="Ygrave" unicode="&#x1ef2;" horiz-adv-x="620" 
d="M311 337h2l168 343h104l-228 -440v-240h-95v240l-227 440h108zM288 710l-85 120h75l60 -120h-50z" />
    <glyph glyph-name="ygrave" unicode="&#x1ef3;" horiz-adv-x="560" 
d="M234 -10l-194 510h101l145 -409h2l136 409h96l-188 -530q-34 -97 -81 -138.5t-121 -41.5q-38 0 -75 7l8 75q28 -5 47 -5q79 0 124 123zM254 560l-85 120h75l60 -120h-50z" />
    <glyph glyph-name="figuredash" unicode="&#x2012;" horiz-adv-x="695" 
d="M55 302h585v-75h-585v75z" />
    <glyph glyph-name="endash" unicode="&#x2013;" horiz-adv-x="695" 
d="M55 302h585v-75h-585v75z" />
    <glyph glyph-name="emdash" unicode="&#x2014;" horiz-adv-x="760" 
d="M55 302h650v-75h-650v75z" />
    <glyph glyph-name="quoteleft" unicode="&#x2018;" horiz-adv-x="200" 
d="M100 680h30l-20 -130h35v-130h-90v130z" />
    <glyph glyph-name="quoteright" unicode="&#x2019;" horiz-adv-x="200" 
d="M100 420h-30l20 130h-35v130h90v-130z" />
    <glyph glyph-name="quotesinglbase" unicode="&#x201a;" horiz-adv-x="200" 
d="M100 -160h-30l20 130h-35v130h90v-130z" />
    <glyph glyph-name="quotedblleft" unicode="&#x201c;" horiz-adv-x="420" 
d="M320 680h30l-20 -130h35v-130h-90v130q24 72 45 130zM100 680h30l-20 -130h35v-130h-90v130z" />
    <glyph glyph-name="quotedblright" unicode="&#x201d;" horiz-adv-x="420" 
d="M100 420h-30l20 130h-35v130h90v-130zM320 420h-30l20 130h-35v130h90v-130z" />
    <glyph glyph-name="quotedblbase" unicode="&#x201e;" horiz-adv-x="420" 
d="M100 -160h-30l20 130h-35v130h90v-130zM320 -160h-30l20 130h-35v130h90v-130z" />
    <glyph glyph-name="dagger" unicode="&#x2020;" horiz-adv-x="580" 
d="M525 415l-193 5l5 -420h-95l5 420l-192 -5v85l192 -5l-5 205h95l-5 -205l193 5v-85z" />
    <glyph glyph-name="daggerdbl" unicode="&#x2021;" horiz-adv-x="580" 
d="M247 270v160l-192 -5v85l192 -5l-5 195h95l-5 -195l193 5v-85l-193 5v-160l193 5v-85l-193 5l5 -195h-95l5 195l-192 -5v85z" />
    <glyph glyph-name="bullet" unicode="&#x2022;" horiz-adv-x="240" 
d="M75 315h90v-130h-90v130z" />
    <glyph glyph-name="onedotenleader" unicode="&#x2024;" horiz-adv-x="200" 
d="M55 130h90v-130h-90v130z" />
    <glyph glyph-name="twodotenleader" unicode="&#x2025;" horiz-adv-x="350" 
d="M55 130h90v-130h-90v130zM205 130h90v-130h-90v130z" />
    <glyph glyph-name="ellipsis" unicode="&#x2026;" 
d="M55 130h90v-130h-90v130zM455 130h90v-130h-90v130zM255 130h90v-130h-90v130z" />
    <glyph glyph-name="perthousand" unicode="&#x2030;" horiz-adv-x="1080" 
d="M595 680l-370 -680h-60l370 680h60zM181 406q-66 0 -101 37t-35 102q0 66 35 103t101 37q65 0 100.5 -37.5t35.5 -102.5t-35.5 -102t-100.5 -37zM181 453q78 0 78 92q0 93 -78 93q-79 0 -79 -93q0 -92 79 -92zM579 -5q-66 0 -101 37t-35 102q0 66 35 103t101 37
q65 0 100.5 -37.5t35.5 -102.5t-35.5 -102t-100.5 -37zM579 42q78 0 78 92q0 93 -78 93q-79 0 -79 -93q0 -92 79 -92zM899 -5q-66 0 -101 37t-35 102q0 66 35 103t101 37q65 0 100.5 -37.5t35.5 -102.5t-35.5 -102t-100.5 -37zM899 42q78 0 78 92q0 93 -78 93q-79 0 -79 -93
q0 -92 79 -92z" />
    <glyph glyph-name="guilsinglleft" unicode="&#x2039;" horiz-adv-x="380" 
d="M55 277l270 168v-81l-175 -114l175 -114v-81l-270 167v55z" />
    <glyph glyph-name="guilsinglright" unicode="&#x203a;" horiz-adv-x="380" 
d="M325 222l-270 -167v81l175 114l-175 114v81l270 -168v-55z" />
    <glyph glyph-name="exclamdbl" unicode="&#x203c;" horiz-adv-x="350" 
d="M55 130h90v-130h-90v130zM55 680h90l-5 -465h-80zM205 130h90v-130h-90v130zM205 680h90l-5 -465h-80z" />
    <glyph glyph-name="fraction" unicode="&#x2044;" horiz-adv-x="540" 
d="M495 680l-370 -680h-80l370 680h80z" />
    <glyph glyph-name="zerosuperior" unicode="&#x2070;" horiz-adv-x="331" 
d="M166 831q-71 0 -71 -133q0 -139 71 -139t71 139q0 133 -71 133zM166 520q-121 0 -121 178q0 172 121 172q120 0 120 -172q0 -178 -120 -178z" />
    <glyph glyph-name="foursuperior" unicode="&#x2074;" horiz-adv-x="341" 
d="M94 656h108v152q-37 -68 -108 -152zM190 870h59v-214h47v-40h-47v-86h-47v86h-157v40q98 107 145 214z" />
    <glyph glyph-name="fivesuperior" unicode="&#x2075;" horiz-adv-x="321" 
d="M155 520q-53 0 -110 30l14 36q54 -27 93 -27q32 0 53.5 20t21.5 53q0 29 -16 49.5t-50 20.5q-40 0 -65 -32l-34 3l8 192h186v-42h-145l-7 -111h1q29 31 72 31q46 0 72.5 -28.5t26.5 -79.5q0 -53 -33 -84t-88 -31z" />
    <glyph glyph-name="sixsuperior" unicode="&#x2076;" horiz-adv-x="321" 
d="M92 709h1q31 43 79 43q49 0 76.5 -30.5t27.5 -86.5q0 -53 -31 -84t-81 -31q-63 0 -91 43.5t-28 111.5q0 195 142 195q40 0 78 -16l-6 -36q-39 13 -68 13q-48 0 -73 -37.5t-26 -84.5zM96 673q-8 -114 65 -114q28 0 46.5 20t18.5 56q0 76 -66 76q-37 0 -64 -38z" />
    <glyph glyph-name="sevensuperior" unicode="&#x2077;" horiz-adv-x="316" 
d="M220 827v1h-175v42h226v-34q-33 -55 -53 -93.5t-42 -97.5t-31 -115h-50q11 67 47 150.5t78 146.5z" />
    <glyph glyph-name="eightsuperior" unicode="&#x2078;" horiz-adv-x="331" 
d="M208 705q38 -20 58 -40.5t20 -50.5q0 -45 -33 -69.5t-89 -24.5q-54 0 -86.5 23t-32.5 66q0 60 78 88q-68 32 -68 85q0 41 32 64.5t80 23.5q46 0 77.5 -23t31.5 -62q0 -29 -17 -47t-51 -33zM93 613q0 -25 19 -41.5t55 -16.5q37 0 54 15.5t17 39.5q1 26 -19.5 40.5
t-59.5 28.5q-66 -23 -66 -66zM165 835q-24 0 -43.5 -12.5t-19.5 -39.5q0 -42 69 -62q58 22 58 60q0 27 -20 40.5t-44 13.5z" />
    <glyph glyph-name="ninesuperior" unicode="&#x2079;" horiz-adv-x="321" 
d="M229 680h-1q-32 -42 -79 -42q-49 0 -76.5 30.5t-27.5 86.5q0 53 31 84t81 31q63 0 91 -44t28 -111q0 -195 -142 -195q-39 0 -78 15l6 37q35 -13 68 -13q47 0 72.5 37.5t26.5 83.5zM225 717q8 114 -65 114q-28 0 -46.5 -20.5t-18.5 -55.5q0 -77 66 -77q37 0 64 39z" />
    <glyph glyph-name="parenleftsuperior" unicode="&#x207d;" horiz-adv-x="208" 
d="M45 690q0 131 86 240h32q-71 -118 -71 -240q0 -119 71 -240h-32q-86 109 -86 240z" />
    <glyph glyph-name="parenrightsuperior" unicode="&#x207e;" horiz-adv-x="208" 
d="M163 690q0 -131 -86 -240h-32q71 121 71 240q0 122 -71 240h32q86 -109 86 -240z" />
    <glyph glyph-name="nsuperior" unicode="&#x207f;" horiz-adv-x="300" 
d="M90 619v-189h-45v250h45v-35h1q40 40 89 40q75 0 75 -83v-172h-45v162q0 55 -50 55q-32 0 -70 -28z" />
    <glyph glyph-name="zeroinferior" unicode="&#x2080;" horiz-adv-x="331" 
d="M166 101q-71 0 -71 -133q0 -139 71 -139t71 139q0 133 -71 133zM166 -210q-121 0 -121 178q0 172 121 172q120 0 120 -172q0 -178 -120 -178z" />
    <glyph glyph-name="oneinferior" unicode="&#x2081;" horiz-adv-x="301" 
d="M39 -161h100v250q-54 -28 -82 -42l-12 36q73 32 108 60h33v-304h100v-39h-247v39z" />
    <glyph glyph-name="twoinferior" unicode="&#x2082;" horiz-adv-x="311" 
d="M143 102q-35 0 -84 -24l-14 37q57 30 111 30q51 0 78 -29t27 -73q0 -51 -37 -99t-113 -101v-1h155v-42h-221v45q167 111 167 188q0 28 -13.5 45t-27 20.5t-28.5 3.5z" />
    <glyph glyph-name="threeinferior" unicode="&#x2083;" horiz-adv-x="321" 
d="M202 -30q35 -8 54.5 -31t19.5 -54q0 -46 -30.5 -70.5t-88.5 -24.5q-68 0 -112 29l14 36q50 -26 97 -26q39 0 55.5 17t16.5 38q0 61 -80 61h-42v39h40q37 0 55 18.5t18 43.5q0 21 -14.5 38t-46.5 17q-38 0 -90 -27l-15 37q52 29 109 29q47 0 75.5 -23.5t28.5 -65.5
q0 -59 -64 -81z" />
    <glyph glyph-name="fourinferior" unicode="&#x2084;" horiz-adv-x="341" 
d="M94 -74h108v152q-37 -68 -108 -152zM190 140h59v-214h47v-40h-47v-86h-47v86h-157v40q98 107 145 214z" />
    <glyph glyph-name="fiveinferior" unicode="&#x2085;" horiz-adv-x="321" 
d="M155 -210q-53 0 -110 30l14 36q54 -27 93 -27q32 0 53.5 20t21.5 53q0 29 -16 49.5t-50 20.5q-40 0 -65 -32l-34 3l8 192h186v-42h-145l-7 -111h1q29 31 72 31q46 0 72.5 -28.5t26.5 -79.5q0 -53 -33 -84t-88 -31z" />
    <glyph glyph-name="sixinferior" unicode="&#x2086;" horiz-adv-x="321" 
d="M92 -21h1q31 43 79 43q49 0 76.5 -30.5t27.5 -86.5q0 -53 -31 -84t-81 -31q-63 0 -91 43.5t-28 111.5q0 195 142 195q40 0 78 -16l-6 -36q-39 13 -68 13q-48 0 -73 -37.5t-26 -84.5zM96 -57q-8 -114 65 -114q28 0 46.5 20t18.5 56q0 76 -66 76q-37 0 -64 -38z" />
    <glyph glyph-name="seveninferior" unicode="&#x2087;" horiz-adv-x="316" 
d="M220 97v1h-175v42h226v-34q-33 -55 -53 -93.5t-42 -97.5t-31 -115h-50q11 67 47 150.5t78 146.5z" />
    <glyph glyph-name="eightinferior" unicode="&#x2088;" horiz-adv-x="331" 
d="M208 -25q38 -20 58 -40.5t20 -50.5q0 -45 -33 -69.5t-89 -24.5q-54 0 -86.5 23t-32.5 66q0 60 78 88q-68 32 -68 85q0 41 32 64.5t80 23.5q46 0 77.5 -23t31.5 -62q0 -29 -17 -47t-51 -33zM93 -117q0 -25 19 -41.5t55 -16.5q37 0 54 15.5t17 39.5q1 26 -19.5 40.5
t-59.5 28.5q-66 -23 -66 -66zM165 105q-24 0 -43.5 -12.5t-19.5 -39.5q0 -42 69 -62q58 22 58 60q0 27 -20 40.5t-44 13.5z" />
    <glyph glyph-name="nineinferior" unicode="&#x2089;" horiz-adv-x="321" 
d="M229 -50h-1q-32 -42 -79 -42q-49 0 -76.5 30.5t-27.5 86.5q0 53 31 84t81 31q63 0 91 -44t28 -111q0 -195 -142 -195q-39 0 -78 15l6 37q35 -13 68 -13q47 0 72.5 37.5t26.5 83.5zM225 -13q8 114 -65 114q-28 0 -46.5 -20.5t-18.5 -55.5q0 -77 66 -77q37 0 64 39z" />
    <glyph glyph-name="parenleftinferior" unicode="&#x208d;" horiz-adv-x="208" 
d="M45 -40q0 131 86 240h32q-71 -118 -71 -240q0 -119 71 -240h-32q-86 109 -86 240z" />
    <glyph glyph-name="parenrightinferior" unicode="&#x208e;" horiz-adv-x="208" 
d="M163 -40q0 -131 -86 -240h-32q71 121 71 240q0 122 -71 240h32q86 -109 86 -240z" />
    <glyph glyph-name="colonmonetary" unicode="&#x20a1;" horiz-adv-x="630" 
d="M430 -100h-40v91q-14 -1 -45 -1q-32 0 -65 5v-95h-40v103q-55 16 -92.5 49.5t-57 81t-27.5 98t-8 113.5q0 84 14 145.5t56.5 113.5t114.5 73v103h40v-95q33 5 65 5q8 0 23 -0.5t22 -0.5v91h40v-95q67 -5 150 -30l-22 -80q-127 30 -203 30q-110 0 -155 -68t-45 -192
q0 -62 9 -107.5t30 -84t61.5 -58.5t99.5 -20q83 0 203 30l22 -80q-71 -21 -150 -31v-94z" />
    <glyph glyph-name="franc" unicode="&#x20a3;" horiz-adv-x="700" 
d="M234 437h196l-8 -55h-201q-1 -12 -1 -37q0 -32 2 -48h208l-8 -55h-186q40 -167 189 -167q101 0 192 72l33 -72q-107 -85 -240 -85q-119 0 -188.5 68.5t-91.5 183.5h-80v55h71q-1 15 -1 48q0 25 1 37h-71v55h78q20 115 90.5 184t191.5 69q130 0 240 -85l-33 -73
q-92 73 -192 73q-155 0 -191 -168z" />
    <glyph glyph-name="lira" unicode="&#x20a4;" horiz-adv-x="700" 
d="M234 437h196l-8 -55h-201q-1 -12 -1 -37q0 -32 2 -48h208l-8 -55h-186q40 -167 189 -167q101 0 192 72l33 -72q-107 -85 -240 -85q-119 0 -188.5 68.5t-91.5 183.5h-80v55h71q-1 15 -1 48q0 25 1 37h-71v55h78q20 115 90.5 184t191.5 69q130 0 240 -85l-33 -73
q-92 73 -192 73q-155 0 -191 -168z" />
    <glyph glyph-name="peseta" unicode="&#x20a7;" horiz-adv-x="700" 
d="M234 437h196l-8 -55h-201q-1 -12 -1 -37q0 -32 2 -48h208l-8 -55h-186q40 -167 189 -167q101 0 192 72l33 -72q-107 -85 -240 -85q-119 0 -188.5 68.5t-91.5 183.5h-80v55h71q-1 15 -1 48q0 25 1 37h-71v55h78q20 115 90.5 184t191.5 69q130 0 240 -85l-33 -73
q-92 73 -192 73q-155 0 -191 -168z" />
    <glyph glyph-name="Euro" unicode="&#x20ac;" horiz-adv-x="700" 
d="M234 437h196l-8 -55h-201q-1 -12 -1 -37q0 -32 2 -48h208l-8 -55h-186q40 -167 189 -167q101 0 192 72l33 -72q-107 -85 -240 -85q-119 0 -188.5 68.5t-91.5 183.5h-80v55h71q-1 15 -1 48q0 25 1 37h-71v55h78q20 115 90.5 184t191.5 69q130 0 240 -85l-33 -73
q-92 73 -192 73q-155 0 -191 -168z" />
    <glyph glyph-name="litre" unicode="&#x2113;" horiz-adv-x="449" 
d="M42 156l-12 11l94 99v243q0 102 40 151q42 50 100 50q44 0 70 -27t26 -72q0 -51 -31 -112q-31 -63 -129 -176v-168q0 -75 23 -106q22 -29 60 -29q35 0 64 29q32 29 54 103h18q-21 -83 -68 -127q-37 -35 -89 -35q-43 0 -77.5 24.5t-49.5 65.5q-11 33 -11 107v52zM200 543
v-193q134 155 134 242q0 41 -19 65t-48 24t-48 -28t-19 -110z" />
    <glyph glyph-name="afii61352" unicode="&#x2116;" horiz-adv-x="1069" 
d="M837 350q-81 0 -124 45t-43 125t43 125t124 45t124 -45t43 -125t-43 -125t-124 -45zM670 320h334v-55h-334v55zM837 401q50 0 76.5 31t26.5 88t-26.5 88t-76.5 31t-77 -31t-27 -88t27 -88t77 -31zM157 0h-92v680h95l330 -505h2v505h93v-680h-95l-331 494h-2v-494z" />
    <glyph glyph-name="trademark" unicode="&#x2122;" horiz-adv-x="790" 
d="M304 630h-105v-294h-55v294h-104v50h264v-50zM464 680l105 -253h2l103 253h76v-344h-55v249h-2l-105 -249h-44l-102 249h-2v-249h-52v344h76z" />
    <glyph glyph-name="Omega" unicode="&#x2126;" horiz-adv-x="670" 
d="M335 690q144 0 217 -84t73 -216q0 -94 -48.5 -167t-139.5 -91v-67h188v-65h-253v172q76 7 114.5 65.5t38.5 152.5q0 99 -45 159.5t-145 60.5t-145 -60.5t-45 -159.5q0 -94 38 -152.5t114 -65.5v-172h-252v65h187v67q-90 18 -138.5 91t-48.5 167q0 132 72.5 216t217.5 84z
" />
    <glyph glyph-name="estimated" unicode="&#x212e;" horiz-adv-x="736" 
d="M706 349h-528v-235q81 -78 190 -78q163 0 252 157l46 -26q-67 -96 -133 -136.5t-165 -40.5q-150 0 -244 102t-94 257q0 157 94.5 259t243.5 102q140 0 236 -94.5t102 -266.5zM178 397h380v189q-82 77 -191 77q-110 0 -189 -77v-189z" />
    <glyph glyph-name="onethird" unicode="&#x2153;" horiz-adv-x="800" 
d="M612 680l-370 -680h-30l370 680h30zM40 369h100v250q-28 -14 -82 -42l-13 36q71 30 108 60h34v-304h100v-39h-247v39zM686 170q35 -8 54.5 -31t19.5 -54q0 -46 -31 -70.5t-89 -24.5q-68 0 -112 29l15 36q50 -26 96 -26q39 0 55.5 17t16.5 38q0 61 -79 61h-43v39h40
q37 0 55.5 18.5t18.5 43.5q0 21 -14.5 38t-47.5 17q-36 0 -90 -27l-14 37q52 29 109 29q47 0 75.5 -23.5t28.5 -65.5q0 -59 -64 -81z" />
    <glyph glyph-name="twothirds" unicode="&#x2154;" horiz-adv-x="800" 
d="M612 680l-370 -680h-30l370 680h30zM686 170q35 -8 54.5 -31t19.5 -54q0 -46 -31 -70.5t-89 -24.5q-68 0 -112 29l15 36q50 -26 96 -26q39 0 55.5 17t16.5 38q0 61 -79 61h-43v39h40q37 0 55.5 18.5t18.5 43.5q0 21 -14.5 38t-47.5 17q-36 0 -90 -27l-14 37q52 29 109 29
q47 0 75.5 -23.5t28.5 -65.5q0 -59 -64 -81zM138 632q-35 0 -84 -24l-14 37q57 30 111 30q51 0 78 -29t27 -73q0 -51 -37 -99t-113 -101v-1h155v-42h-221v45q167 111 167 188q0 28 -13.5 45t-27 20.5t-28.5 3.5z" />
    <glyph glyph-name="oneeighth" unicode="&#x215b;" horiz-adv-x="800" 
d="M612 680l-370 -680h-30l370 680h30zM40 369h100v250q-28 -14 -82 -42l-13 36q71 30 108 60h34v-304h100v-39h-247v39zM681 175q39 -20 59 -40.5t20 -50.5q0 -45 -33.5 -69.5t-88.5 -24.5q-54 0 -87 23t-33 66q0 60 78 88q-68 32 -68 85q0 41 32 64.5t80 23.5
q47 0 78.5 -23t31.5 -62q0 -29 -17.5 -47t-51.5 -33zM567 83q0 -25 19 -41.5t55 -16.5q69 0 71 55q0 26 -20.5 40.5t-59.5 28.5q-65 -23 -65 -66zM639 305q-24 0 -44 -12.5t-20 -39.5q0 -42 70 -62q58 22 58 60q0 27 -20 40.5t-44 13.5z" />
    <glyph glyph-name="threeeighths" unicode="&#x215c;" horiz-adv-x="800" 
d="M604 680l-370 -680h-30l370 680h30zM681 175q39 -20 59 -40.5t20 -50.5q0 -45 -33.5 -69.5t-88.5 -24.5q-54 0 -87 23t-33 66q0 60 78 88q-68 32 -68 85q0 41 32 64.5t80 23.5q47 0 78.5 -23t31.5 -62q0 -29 -17.5 -47t-51.5 -33zM567 83q0 -25 19 -41.5t55 -16.5
q69 0 71 55q0 26 -20.5 40.5t-59.5 28.5q-65 -23 -65 -66zM639 305q-24 0 -44 -12.5t-20 -39.5q0 -42 70 -62q58 22 58 60q0 27 -20 40.5t-44 13.5zM197 500q35 -8 54.5 -31t19.5 -54q0 -46 -30.5 -70.5t-88.5 -24.5q-68 0 -112 29l14 36q50 -26 97 -26q39 0 55.5 17
t16.5 38q0 61 -80 61h-42v39h40q37 0 55 18.5t18 43.5q0 21 -14.5 38t-46.5 17q-38 0 -90 -27l-15 37q52 29 109 29q47 0 75.5 -23.5t28.5 -65.5q0 -59 -64 -81z" />
    <glyph glyph-name="fiveeighths" unicode="&#x215d;" horiz-adv-x="800" 
d="M604 680l-370 -680h-30l370 680h30zM681 175q39 -20 59 -40.5t20 -50.5q0 -45 -33.5 -69.5t-88.5 -24.5q-54 0 -87 23t-33 66q0 60 78 88q-68 32 -68 85q0 41 32 64.5t80 23.5q47 0 78.5 -23t31.5 -62q0 -29 -17.5 -47t-51.5 -33zM567 83q0 -25 19 -41.5t55 -16.5
q69 0 71 55q0 26 -20.5 40.5t-59.5 28.5q-65 -23 -65 -66zM639 305q-24 0 -44 -12.5t-20 -39.5q0 -42 70 -62q58 22 58 60q0 27 -20 40.5t-44 13.5zM150 320q-53 0 -110 30l14 36q54 -27 93 -27q32 0 53.5 20t21.5 53q0 29 -16 49.5t-50 20.5q-40 0 -65 -32l-34 3l8 192h186
v-42h-145l-7 -111h1q29 31 72 31q46 0 72.5 -28.5t26.5 -79.5q0 -53 -33 -84t-88 -31z" />
    <glyph glyph-name="seveneighths" unicode="&#x215e;" horiz-adv-x="800" 
d="M554 680l-370 -680h-30l370 680h30zM681 175q39 -20 59 -40.5t20 -50.5q0 -45 -33.5 -69.5t-88.5 -24.5q-54 0 -87 23t-33 66q0 60 78 88q-68 32 -68 85q0 41 32 64.5t80 23.5q47 0 78.5 -23t31.5 -62q0 -29 -17.5 -47t-51.5 -33zM567 83q0 -25 19 -41.5t55 -16.5
q69 0 71 55q0 26 -20.5 40.5t-59.5 28.5q-65 -23 -65 -66zM639 305q-24 0 -44 -12.5t-20 -39.5q0 -42 70 -62q58 22 58 60q0 27 -20 40.5t-44 13.5zM215 627v1h-175v42h226v-34q-33 -55 -53 -93.5t-42 -97.5t-31 -115h-50q11 67 47 150.5t78 146.5z" />
    <glyph glyph-name="partialdiff" unicode="&#x2202;" horiz-adv-x="574" 
d="M436 367l1 1h2q7 58 -5 111.5t-53.5 94.5t-108.5 41q-65 0 -140 -25q0 12 -0.5 35t-0.5 34q84 31 159 31q48 0 87 -12t72.5 -39t51.5 -72t25 -111t-7 -156q-9 -63 -28.5 -116t-52 -98t-84 -70.5t-117.5 -25.5q-97 0 -150.5 62t-38.5 168q16 112 79.5 173.5t161.5 61.5
q47 0 85.5 -24t61.5 -64zM421 296q-46 80 -120 80q-40 0 -70.5 -14.5t-47.5 -38.5t-26.5 -49.5t-13.5 -53.5q-10 -73 22 -114t89 -41q147 0 167 231z" />
    <glyph glyph-name="Delta" unicode="&#x2206;" horiz-adv-x="628" 
d="M294 710l284 -710h-528zM278 567l-180 -527h386z" />
    <glyph glyph-name="product" unicode="&#x220f;" horiz-adv-x="650" 
d="M155 0h-90v700h520v-700h-90v620h-340v-620z" />
    <glyph glyph-name="summation" unicode="&#x2211;" horiz-adv-x="550" 
d="M179 593l164 -254l-163 -252v-2h320v-85h-450v70l174 269l-174 271v70h450v-85h-321v-2z" />
    <glyph glyph-name="minus" unicode="&#x2212;" horiz-adv-x="500" 
d="M55 302h390v-75h-390v75z" />
    <glyph glyph-name="uni2215" unicode="&#x2215;" horiz-adv-x="540" 
d="M495 680l-370 -680h-80l370 680h80z" />
    <glyph glyph-name="uni2219" unicode="&#x2219;" horiz-adv-x="240" 
d="M75 315h90v-130h-90v130z" />
    <glyph glyph-name="radical" unicode="&#x221a;" horiz-adv-x="805" 
d="M75 335v55h242l104 -294h2l211 604h96l-256 -705h-109l-130 340h-160z" />
    <glyph glyph-name="infinity" unicode="&#x221e;" horiz-adv-x="680" 
d="M177 341q-41 0 -67.5 -24.5t-26.5 -69.5q0 -38 24.5 -64.5t69.5 -26.5q42 0 75.5 29t51.5 62q-16 32 -51 63t-76 31zM337 209q-23 -43 -67.5 -74t-101.5 -31q-66 0 -104.5 40t-38.5 106q0 65 41.5 105.5t113.5 40.5q92 0 163 -107q65 107 168 107q66 0 105 -40t39 -106
q0 -62 -41.5 -104t-111.5 -42q-102 0 -165 105zM502 343q-41 0 -75.5 -29.5t-52.5 -64.5q17 -35 53.5 -63t72.5 -28q48 0 72.5 26.5t24.5 65.5t-23.5 66t-71.5 27z" />
    <glyph glyph-name="integral" unicode="&#x222b;" horiz-adv-x="345" 
d="M95 -65v609q0 84 33.5 120t111.5 36q37 0 80 -8l-9 -70q-26 5 -51 5q-43 0 -59 -23.5t-16 -74.5v-602q0 -72 -32 -104.5t-113 -32.5q-35 0 -80 7l8 70q37 -5 52 -5q44 0 59.5 16.5t15.5 56.5z" />
    <glyph glyph-name="approxequal" unicode="&#x2248;" horiz-adv-x="487" 
d="M164 360q-17 0 -33.5 -9t-46.5 -39l-29 23q53 87 106 87q26 0 96.5 -26t85.5 -26q12 0 19.5 1.5t20 11t25.5 28.5l24 -28q-36 -74 -89 -74q-19 0 -89.5 25.5t-89.5 25.5zM164 160q-17 0 -33.5 -9t-46.5 -39l-29 23q53 87 106 87q26 0 96.5 -26t85.5 -26q12 0 19.5 1.5
t20 11t25.5 28.5l24 -28q-36 -74 -89 -74q-19 0 -89.5 25.5t-89.5 25.5z" />
    <glyph glyph-name="notequal" unicode="&#x2260;" horiz-adv-x="500" 
d="M55 202h140l69 125h-209v75h249l111 203h40l-111 -203h101v-75h-142l-68 -125h210v-75h-250l-110 -202h-40l110 202h-100v75z" />
    <glyph glyph-name="lessequal" unicode="&#x2264;" horiz-adv-x="480" 
d="M75 322l330 158v-65l-235 -115l235 -115v-65l-330 157v45zM55 80h370v-55h-370v55z" />
    <glyph glyph-name="greaterequal" unicode="&#x2265;" horiz-adv-x="480" 
d="M75 480l330 -158v-45l-330 -157v65l235 115l-235 115v65zM55 80h370v-55h-370v55z" />
    <glyph glyph-name="lozenge" unicode="&#x25ca;" horiz-adv-x="472" 
d="M229 -30l-199 374l199 374h14l199 -374l-199 -374h-14zM104 344l132 -247l131 247l-131 247z" />
    <glyph glyph-name="Abreve.small" unicode="&#xf66d;" horiz-adv-x="610" 
d="M469 0l-51 140h-230l-53 -140h-100l219 585h107l214 -585h-106zM398 215l-93 252h-1l-96 -252h190zM304 688q78 0 101 82h39q-20 -135 -140 -135q-58 0 -94 34.5t-45 100.5h38q25 -82 101 -82z" />
    <glyph glyph-name="Amacron.small" unicode="&#xf66e;" horiz-adv-x="610" 
d="M469 0l-51 140h-230l-53 -140h-100l219 585h107l214 -585h-106zM398 215l-93 252h-1l-96 -252h190zM150 720h310v-55h-310v55z" />
    <glyph glyph-name="AEacute.small" unicode="&#xf670;" horiz-adv-x="886" 
d="M130 0h-95l347 580h444v-80h-305v-165h260v-80h-260v-175h310v-80h-400v212h-170zM299 287h132v213h-2zM595 750l-85 -120h-50l60 120h75z" />
    <glyph glyph-name="Cacute.small" unicode="&#xf671;" horiz-adv-x="585" 
d="M55 292q0 148 65.5 223t214.5 75q103 0 210 -35l-22 -75q-104 30 -186 30q-101 0 -144 -54t-43 -164q0 -113 42.5 -167.5t144.5 -54.5q87 0 186 30l22 -75q-101 -35 -210 -35q-149 0 -214.5 75.5t-65.5 226.5zM441 750l-85 -120h-50l60 120h75z" />
    <glyph glyph-name="Ccaron.small" unicode="&#xf672;" horiz-adv-x="585" 
d="M55 292q0 148 65.5 223t214.5 75q103 0 210 -35l-22 -75q-104 30 -186 30q-101 0 -144 -54t-43 -164q0 -113 42.5 -167.5t144.5 -54.5q87 0 186 30l22 -75q-101 -35 -210 -35q-149 0 -214.5 75.5t-65.5 226.5zM247 750l85 -80l85 80h50l-108 -120h-55l-107 120h50z" />
    <glyph glyph-name="Ccircumflex.small" unicode="&#xf673;" horiz-adv-x="585" 
d="M55 292q0 148 65.5 223t214.5 75q103 0 210 -35l-22 -75q-104 30 -186 30q-101 0 -144 -54t-43 -164q0 -113 42.5 -167.5t144.5 -54.5q87 0 186 30l22 -75q-101 -35 -210 -35q-149 0 -214.5 75.5t-65.5 226.5zM326 710l-85 -80h-50l107 120h55l108 -120h-50z" />
    <glyph glyph-name="Cdotaccent.small" unicode="&#xf674;" horiz-adv-x="585" 
d="M55 292q0 148 65.5 223t214.5 75q103 0 210 -35l-22 -75q-104 30 -186 30q-101 0 -144 -54t-43 -164q0 -113 42.5 -167.5t144.5 -54.5q87 0 186 30l22 -75q-101 -35 -210 -35q-149 0 -214.5 75.5t-65.5 226.5zM293 750h80v-110h-80v110z" />
    <glyph glyph-name="Dcaron.small" unicode="&#xf675;" horiz-adv-x="610" 
d="M285 0h-220v580h220q140 0 205 -71.5t65 -213.5q0 -295 -270 -295zM155 80h125q100 0 140 53.5t40 161.5q0 106 -39.5 155.5t-140.5 49.5h-125v-420zM184 750l85 -80l85 80h50l-108 -120h-55l-107 120h50z" />
    <glyph glyph-name="Ebreve.small" unicode="&#xf677;" horiz-adv-x="520" 
d="M460 580v-80h-305v-165h260v-80h-260v-175h310v-80h-400v580h395zM259 688q78 0 101 82h39q-20 -135 -140 -135q-58 0 -94 34.5t-45 100.5h38q25 -82 101 -82z" />
    <glyph glyph-name="Ecaron.small" unicode="&#xf678;" horiz-adv-x="520" 
d="M460 580v-80h-305v-165h260v-80h-260v-175h310v-80h-400v580h395zM173 750l85 -80l85 80h50l-108 -120h-55l-107 120h50z" />
    <glyph glyph-name="Edotaccent.small" unicode="&#xf679;" horiz-adv-x="520" 
d="M460 580v-80h-305v-165h260v-80h-260v-175h310v-80h-400v580h395zM227 750h80v-110h-80v110z" />
    <glyph glyph-name="Emacron.small" unicode="&#xf67a;" horiz-adv-x="520" 
d="M460 580v-80h-305v-165h260v-80h-260v-175h310v-80h-400v580h395zM105 720h310v-55h-310v55z" />
    <glyph glyph-name="Gbreve.small" unicode="&#xf67d;" horiz-adv-x="610" 
d="M337 70q56 0 113 15v155h-110v65h200v-280q-98 -35 -205 -35q-149 0 -214.5 75.5t-65.5 226.5q0 148 65.5 223t214.5 75q103 0 210 -35l-22 -75q-104 30 -186 30q-101 0 -144 -54t-43 -164q0 -113 42.5 -167.5t144.5 -54.5zM329 688q78 0 101 82h39q-20 -135 -140 -135
q-58 0 -94 34.5t-45 100.5h38q25 -82 101 -82z" />
    <glyph glyph-name="Gcircumflex.small" unicode="&#xf67e;" horiz-adv-x="610" 
d="M337 70q56 0 113 15v155h-110v65h200v-280q-98 -35 -205 -35q-149 0 -214.5 75.5t-65.5 226.5q0 148 65.5 223t214.5 75q103 0 210 -35l-22 -75q-104 30 -186 30q-101 0 -144 -54t-43 -164q0 -113 42.5 -167.5t144.5 -54.5zM331 710l-85 -80h-50l107 120h55l108 -120h-50
z" />
    <glyph glyph-name="Gcommaaccent.small" unicode="&#xf67f;" horiz-adv-x="610" 
d="M337 70q56 0 113 15v155h-110v65h200v-280q-98 -35 -205 -35q-149 0 -214.5 75.5t-65.5 226.5q0 148 65.5 223t214.5 75q103 0 210 -35l-22 -75q-104 30 -186 30q-101 0 -144 -54t-43 -164q0 -113 42.5 -167.5t144.5 -54.5zM323 -205h-29l18 85h-25v80h80v-80z" />
    <glyph glyph-name="Gdotaccent.small" unicode="&#xf680;" horiz-adv-x="610" 
d="M337 70q56 0 113 15v155h-110v65h200v-280q-98 -35 -205 -35q-149 0 -214.5 75.5t-65.5 226.5q0 148 65.5 223t214.5 75q103 0 210 -35l-22 -75q-104 30 -186 30q-101 0 -144 -54t-43 -164q0 -113 42.5 -167.5t144.5 -54.5zM293 750h80v-110h-80v110z" />
    <glyph glyph-name="Hcircumflex.small" unicode="&#xf682;" 
d="M155 0h-90v580h90v-245h290v245h90v-580h-90v255h-290v-255zM300 710l-85 -80h-50l107 120h55l108 -120h-50z" />
    <glyph glyph-name="Ibreve.small" unicode="&#xf683;" horiz-adv-x="220" 
d="M155 0h-90v580h90v-580zM109 688q78 0 101 82h39q-20 -135 -140 -135q-58 0 -94 34.5t-45 100.5h38q25 -82 101 -82z" />
    <glyph glyph-name="Imacron.small" unicode="&#xf685;" horiz-adv-x="220" 
d="M155 0h-90v580h90v-580zM-45 720h310v-55h-310v55z" />
    <glyph glyph-name="Itilde.small" unicode="&#xf687;" horiz-adv-x="220" 
d="M155 0h-90v580h90v-580zM55 685q-19 0 -34.5 -8.5t-45.5 -39.5l-29 23q50 82 106 82q26 0 71.5 -26t60.5 -26q34 0 65 46l24 -28q-36 -74 -89 -74q-19 0 -64.5 25.5t-64.5 25.5z" />
    <glyph glyph-name="Jcircumflex.small" unicode="&#xf688;" horiz-adv-x="330" 
d="M270 580v-410q0 -97 -40.5 -138.5t-119.5 -41.5q-46 0 -93 7l9 80q38 -5 59 -5q46 0 68 24t22 79v405h95zM223 710l-85 -80h-50l107 120h55l108 -120h-50z" />
    <glyph glyph-name="Kcommaaccent.small" unicode="&#xf689;" horiz-adv-x="587" 
d="M155 580v-293l278 293h112l-220 -238l225 -342h-114l-175 276l-106 -114v-162h-90v580h90zM280 -205h-29l18 85h-25v80h80v-80z" />
    <glyph glyph-name="Lacute.small" unicode="&#xf68a;" horiz-adv-x="500" 
d="M65 580h90v-500h300v-80h-390v580zM222 750l-85 -120h-50l60 120h75z" />
    <glyph glyph-name="Lcaron.small" unicode="&#xf68b;" horiz-adv-x="500" 
d="M65 580h90v-500h300v-80h-390v580zM284 415h-29l18 85h-25v80h80v-80z" />
    <glyph glyph-name="Lcommaaccent.small" unicode="&#xf68c;" horiz-adv-x="500" 
d="M65 580h90v-500h300v-80h-390v580zM257 -205h-29l18 85h-25v80h80v-80z" />
    <glyph glyph-name="Ldot.small" unicode="&#xf68d;" horiz-adv-x="500" 
d="M65 580h90v-500h300v-80h-390v580zM245 370h80v-110h-80v110z" />
    <glyph glyph-name="Nacute.small" unicode="&#xf68e;" horiz-adv-x="610" 
d="M152 0h-87v580h95l295 -433h2v433h88v-580h-95l-296 432h-2v-432zM419 750l-85 -120h-50l60 120h75z" />
    <glyph glyph-name="Ncaron.small" unicode="&#xf68f;" horiz-adv-x="610" 
d="M152 0h-87v580h95l295 -433h2v433h88v-580h-95l-296 432h-2v-432zM220 750l85 -80l85 80h50l-108 -120h-55l-107 120h50z" />
    <glyph glyph-name="Ncommaaccent.small" unicode="&#xf690;" horiz-adv-x="610" 
d="M152 0h-87v580h95l295 -433h2v433h88v-580h-95l-296 432h-2v-432zM302 -205h-29l18 85h-25v80h80v-80z" />
    <glyph glyph-name="Obreve.small" unicode="&#xf691;" horiz-adv-x="650" 
d="M325 515q-54 0 -89.5 -16t-53.5 -48t-25 -68.5t-7 -87.5q0 -52 7 -89.5t25 -71.5t54 -51.5t89 -17.5q101 0 138 61t37 169q0 51 -7 87.5t-25 68.5t-54 48t-89 16zM325 -10q-143 0 -206.5 78t-63.5 227q0 146 63 220.5t207 74.5q143 0 206.5 -74.5t63.5 -220.5
q0 -149 -63.5 -227t-206.5 -78zM324 688q78 0 101 82h39q-20 -135 -140 -135q-58 0 -94 34.5t-45 100.5h38q25 -82 101 -82z" />
    <glyph glyph-name="Ohungarumlaut.small" unicode="&#xf692;" horiz-adv-x="650" 
d="M325 515q-54 0 -89.5 -16t-53.5 -48t-25 -68.5t-7 -87.5q0 -52 7 -89.5t25 -71.5t54 -51.5t89 -17.5q101 0 138 61t37 169q0 51 -7 87.5t-25 68.5t-54 48t-89 16zM325 -10q-143 0 -206.5 78t-63.5 227q0 146 63 220.5t207 74.5q143 0 206.5 -74.5t63.5 -220.5
q0 -149 -63.5 -227t-206.5 -78zM340 750l-70 -120h-50l60 120h60zM455 750l-70 -120h-50l60 120h60z" />
    <glyph glyph-name="Omacron.small" unicode="&#xf693;" horiz-adv-x="650" 
d="M325 515q-54 0 -89.5 -16t-53.5 -48t-25 -68.5t-7 -87.5q0 -52 7 -89.5t25 -71.5t54 -51.5t89 -17.5q101 0 138 61t37 169q0 51 -7 87.5t-25 68.5t-54 48t-89 16zM325 -10q-143 0 -206.5 78t-63.5 227q0 146 63 220.5t207 74.5q143 0 206.5 -74.5t63.5 -220.5
q0 -149 -63.5 -227t-206.5 -78zM170 720h310v-55h-310v55z" />
    <glyph glyph-name="Oslashacute.small" unicode="&#xf694;" horiz-adv-x="650" 
d="M432 750l-85 -120h-50l60 120h75zM325 -10q-113 0 -176 52l-60 -75l-29 24l60 74q-65 75 -65 230q0 146 63 220.5t207 74.5q114 0 177 -52l59 73l29 -24l-59 -72q64 -71 64 -220t-63.5 -227t-206.5 -78zM325 515q-54 0 -89.5 -16t-53.5 -48t-25 -68.5t-7 -87.5
q0 -104 31 -154l268 331q-41 43 -124 43zM325 65q101 0 138 61t37 169q0 96 -30 144l-268 -331q41 -43 123 -43z" />
    <glyph glyph-name="Racute.small" unicode="&#xf695;" horiz-adv-x="575" 
d="M537 0h-112l-147 195h-123v-195h-90v580h240q100 0 155 -51.5t55 -141.5q0 -73 -36.5 -119.5t-104.5 -57.5zM155 500v-225h145q122 0 122 112q0 55 -30.5 84t-86.5 29h-150zM370 750l-85 -120h-50l60 120h75z" />
    <glyph glyph-name="Rcaron.small" unicode="&#xf696;" horiz-adv-x="575" 
d="M537 0h-112l-147 195h-123v-195h-90v580h240q100 0 155 -51.5t55 -141.5q0 -73 -36.5 -119.5t-104.5 -57.5zM155 500v-225h145q122 0 122 112q0 55 -30.5 84t-86.5 29h-150zM184 750l85 -80l85 80h50l-108 -120h-55l-107 120h50z" />
    <glyph glyph-name="Rcommaaccent.small" unicode="&#xf697;" horiz-adv-x="575" 
d="M537 0h-112l-147 195h-123v-195h-90v580h240q100 0 155 -51.5t55 -141.5q0 -73 -36.5 -119.5t-104.5 -57.5zM155 500v-225h145q122 0 122 112q0 55 -30.5 84t-86.5 29h-150zM282 -205h-29l18 85h-25v80h80v-80z" />
    <glyph glyph-name="Sacute.small" unicode="&#xf698;" horiz-adv-x="570" 
d="M265 254q-95 19 -142.5 55.5t-47.5 115.5q0 85 55 125t150 40q106 0 225 -35l-22 -75q-121 30 -201 30q-64 0 -88 -21t-24 -57q0 -16 4 -28.5t15.5 -22t19.5 -15.5t27.5 -11.5t27.5 -7.5t32.5 -6.5t30.5 -5.5q91 -17 139.5 -57t48.5 -116q0 -87 -63 -129.5t-162 -42.5
q-116 0 -235 35l21 75q121 -30 216 -30q66 0 97 25t31 62q0 20 -8.5 35t-19 23.5t-32 16t-36.5 11t-43 8.5q-11 2 -16 3zM398 750l-85 -120h-50l60 120h75z" />
    <glyph glyph-name="Scircumflex.small" unicode="&#xf69a;" horiz-adv-x="570" 
d="M265 254q-95 19 -142.5 55.5t-47.5 115.5q0 85 55 125t150 40q106 0 225 -35l-22 -75q-121 30 -201 30q-64 0 -88 -21t-24 -57q0 -16 4 -28.5t15.5 -22t19.5 -15.5t27.5 -11.5t27.5 -7.5t32.5 -6.5t30.5 -5.5q91 -17 139.5 -57t48.5 -116q0 -87 -63 -129.5t-162 -42.5
q-116 0 -235 35l21 75q121 -30 216 -30q66 0 97 25t31 62q0 20 -8.5 35t-19 23.5t-32 16t-36.5 11t-43 8.5q-11 2 -16 3zM285 710l-85 -80h-50l107 120h55l108 -120h-50z" />
    <glyph glyph-name="Scommaaccent.small" unicode="&#xf69b;" horiz-adv-x="570" 
d="M265 254q-95 19 -142.5 55.5t-47.5 115.5q0 85 55 125t150 40q106 0 225 -35l-22 -75q-121 30 -201 30q-64 0 -88 -21t-24 -57q0 -16 4 -28.5t15.5 -22t19.5 -15.5t27.5 -11.5t27.5 -7.5t32.5 -6.5t30.5 -5.5q91 -17 139.5 -57t48.5 -116q0 -87 -63 -129.5t-162 -42.5
q-116 0 -235 35l21 75q121 -30 216 -30q66 0 97 25t31 62q0 20 -8.5 35t-19 23.5t-32 16t-36.5 11t-43 8.5q-11 2 -16 3zM282 -205h-29l18 85h-25v80h80v-80z" />
    <glyph glyph-name="Tcaron.small" unicode="&#xf69d;" horiz-adv-x="520" 
d="M475 500h-170v-500h-90v500h-170v80h430v-80zM175 750l85 -80l85 80h50l-108 -120h-55l-107 120h50z" />
    <glyph glyph-name="Tcommaaccent.small" unicode="&#xf69e;" horiz-adv-x="520" 
d="M475 500h-170v-500h-90v500h-170v80h430v-80zM256 -205h-29l18 85h-25v80h80v-80z" />
    <glyph glyph-name="Ubreve.small" unicode="&#xf69f;" 
d="M65 230v350h90v-345q0 -30 1.5 -50t10 -45t23.5 -39.5t43.5 -25t68.5 -10.5q46 0 76.5 14t44 41t18 52.5t4.5 62.5v345h90v-345q0 -129 -58 -187t-177 -58q-118 0 -176.5 56t-58.5 184zM299 688q78 0 101 82h39q-20 -135 -140 -135q-58 0 -94 34.5t-45 100.5h38
q25 -82 101 -82z" />
    <glyph glyph-name="Uhungarumlaut.small" unicode="&#xf6a0;" 
d="M65 230v350h90v-345q0 -30 1.5 -50t10 -45t23.5 -39.5t43.5 -25t68.5 -10.5q46 0 76.5 14t44 41t18 52.5t4.5 62.5v345h90v-345q0 -129 -58 -187t-177 -58q-118 0 -176.5 56t-58.5 184zM305 750l-70 -120h-50l60 120h60zM420 750l-70 -120h-50l60 120h60z" />
    <glyph glyph-name="Umacron.small" unicode="&#xf6a1;" 
d="M65 230v350h90v-345q0 -30 1.5 -50t10 -45t23.5 -39.5t43.5 -25t68.5 -10.5q46 0 76.5 14t44 41t18 52.5t4.5 62.5v345h90v-345q0 -129 -58 -187t-177 -58q-118 0 -176.5 56t-58.5 184zM145 720h310v-55h-310v55z" />
    <glyph glyph-name="Uring.small" unicode="&#xf6a3;" 
d="M65 230v350h90v-345q0 -30 1.5 -50t10 -45t23.5 -39.5t43.5 -25t68.5 -10.5q46 0 76.5 14t44 41t18 52.5t4.5 62.5v345h90v-345q0 -129 -58 -187t-177 -58q-118 0 -176.5 56t-58.5 184zM223 690q0 32 22 53.5t55 21.5q32 0 54 -21.5t22 -53.5q0 -33 -21.5 -54t-54.5 -21
t-55 21t-22 54zM254 690q0 -20 13 -34t33 -14q19 0 32.5 14t13.5 34t-13 33.5t-33 13.5t-33 -13.5t-13 -33.5z" />
    <glyph glyph-name="Utilde.small" unicode="&#xf6a4;" 
d="M65 230v350h90v-345q0 -30 1.5 -50t10 -45t23.5 -39.5t43.5 -25t68.5 -10.5q46 0 76.5 14t44 41t18 52.5t4.5 62.5v345h90v-345q0 -129 -58 -187t-177 -58q-118 0 -176.5 56t-58.5 184zM245 685q-19 0 -34.5 -8.5t-45.5 -39.5l-29 23q50 82 106 82q26 0 71.5 -26
t60.5 -26q34 0 65 46l24 -28q-36 -74 -89 -74q-19 0 -64.5 25.5t-64.5 25.5z" />
    <glyph glyph-name="Wacute.small" unicode="&#xf6a5;" horiz-adv-x="900" 
d="M445 430h-2l-118 -435h-113l-177 585h105l138 -467h1l117 467h102l128 -467h1l137 467h101l-178 -585h-122zM563 750l-85 -120h-50l60 120h75z" />
    <glyph glyph-name="Wcircumflex.small" unicode="&#xf6a6;" horiz-adv-x="900" 
d="M445 430h-2l-118 -435h-113l-177 585h105l138 -467h1l117 467h102l128 -467h1l137 467h101l-178 -585h-122zM450 710l-85 -80h-50l107 120h55l108 -120h-50z" />
    <glyph glyph-name="Wdieresis.small" unicode="&#xf6a7;" horiz-adv-x="900" 
d="M445 430h-2l-118 -435h-113l-177 585h105l138 -467h1l117 467h102l128 -467h1l137 467h101l-178 -585h-122zM287 750h75v-110h-75v110zM537 750h75v-110h-75v110z" />
    <glyph glyph-name="Wgrave.small" unicode="&#xf6a8;" horiz-adv-x="900" 
d="M445 430h-2l-118 -435h-113l-177 585h105l138 -467h1l117 467h102l128 -467h1l137 467h101l-178 -585h-122zM419 630l-85 120h75l60 -120h-50z" />
    <glyph glyph-name="Ycircumflex.small" unicode="&#xf6a9;" horiz-adv-x="580" 
d="M291 286h2l148 294h104l-210 -400v-180h-90v180l-210 400h108zM290 710l-85 -80h-50l107 120h55l108 -120h-50z" />
    <glyph glyph-name="Ygrave.small" unicode="&#xf6aa;" horiz-adv-x="580" 
d="M291 286h2l148 294h104l-210 -400v-180h-90v180l-210 400h108zM270 630l-85 120h75l60 -120h-50z" />
    <glyph glyph-name="Zacute.small" unicode="&#xf6ab;" horiz-adv-x="520" 
d="M165 82v-2h315v-80h-440v70l308 428v2h-288v80h410v-70zM360 750l-85 -120h-50l60 120h75z" />
    <glyph glyph-name="Zdotaccent.small" unicode="&#xf6ac;" horiz-adv-x="520" 
d="M165 82v-2h315v-80h-440v70l308 428v2h-288v80h410v-70zM220 750h80v-110h-80v110z" />
    <glyph glyph-name="Idotaccent.small" unicode="&#xf6ad;" horiz-adv-x="220" 
d="M155 0h-90v580h90v-580zM70 750h80v-110h-80v110z" />
    <glyph glyph-name="commaaccent" unicode="&#xf6c3;" horiz-adv-x="203" 
d="M103 725h30l-18 -85h25v-80h-80v80z" />
    <glyph glyph-name="rupiah" unicode="&#xf6dd;" horiz-adv-x="1102" 
d="M160 595v-245h170q58 0 92.5 31t34.5 91q0 58 -32.5 90.5t-89.5 32.5h-175zM627 0h-161l-161 265h-145v-265h-95v680h280q99 0 154.5 -57.5t55.5 -150.5q0 -74 -39.5 -126t-111.5 -66l135 -215h88v435h90v-50h2q62 60 153 60q185 0 185 -260q0 -118 -45.5 -189
t-144.5 -71q-89 0 -148 57h-2v-247h-90v200zM962 250q0 185 -125 185q-67 0 -120 -43v-285q55 -42 120 -42q125 0 125 185z" />
    <glyph glyph-name="asuperior" unicode="&#xf6e9;" horiz-adv-x="295" 
d="M205 481v66h-53q-62 0 -62 -44q0 -20 14 -31.5t38 -11.5q37 0 63 21zM147 647q-37 0 -79 -9q-1 7 -3.5 18.5t-3.5 18.5q57 10 96 10q48 0 70.5 -18t22.5 -65v-172h-45v25q-36 -30 -80 -30q-37 0 -58.5 20.5t-21.5 53.5q0 76 105 76h55v25q0 25 -13.5 36t-44.5 11z" />
    <glyph glyph-name="bsuperior" unicode="&#xf6ea;" horiz-adv-x="305" 
d="M90 780v-125h1q30 30 76 30q93 0 93 -130t-95 -130q-45 0 -77 29h-1l-8 -25h-34v351h45zM212 555q0 92 -62 92q-34 0 -60 -21v-142q24 -22 60 -22q62 0 62 93z" />
    <glyph glyph-name="esuperior" unicode="&#xf6ec;" horiz-adv-x="314" 
d="M264 547h-170q2 -85 82 -85q42 0 78 10l6 -36q-43 -11 -90 -11q-125 0 -125 130t122 130q96 0 100 -87q2 -19 -3 -51zM165 650q-66 0 -71 -74h126q3 14 3 26q-4 48 -58 48z" />
    <glyph glyph-name="isuperior" unicode="&#xf6ed;" horiz-adv-x="135" 
d="M45 780h45v-63h-45v63zM45 680h45v-250h-45v250z" />
    <glyph glyph-name="lsuperior" unicode="&#xf6ee;" horiz-adv-x="135" 
d="M45 430v350h45v-350h-45z" />
    <glyph glyph-name="msuperior" unicode="&#xf6ef;" horiz-adv-x="450" 
d="M90 619v-189h-45v250h45v-35h1q38 40 81 40q54 0 69 -44q41 44 89 44q75 0 75 -83v-172h-45v162q0 55 -50 55q-28 0 -64 -29q1 -8 1 -31v-157h-45v164q0 53 -50 53q-24 0 -62 -28z" />
    <glyph glyph-name="osuperior" unicode="&#xf6f0;" horiz-adv-x="320" 
d="M160 647q-68 0 -68 -92q0 -93 68 -93q67 0 67 93q0 92 -67 92zM160 425q-115 0 -115 130t115 130t115 -130t-115 -130z" />
    <glyph glyph-name="rsuperior" unicode="&#xf6f1;" horiz-adv-x="230" 
d="M90 614v-184h-45v250h45v-40h1q39 45 94 45v-43q-48 0 -95 -28z" />
    <glyph glyph-name="ssuperior" unicode="&#xf6f2;" horiz-adv-x="290" 
d="M245 501q0 -76 -93 -76q-60 0 -107 11l8 36q44 -11 94 -11q21 0 34 8t16 15t3 14q0 27 -56 38q-45 8 -69.5 25t-24.5 54q0 70 92 70q53 0 100 -11l-8 -37q-48 12 -89 12q-20 0 -32.5 -7t-15 -13t-2.5 -13q0 -14 11 -23t43 -15q47 -10 71.5 -26t24.5 -51z" />
    <glyph glyph-name="tsuperior" unicode="&#xf6f3;" horiz-adv-x="245" 
d="M82 503v144h-37v30l37 3l6 70h39v-70h70v-33h-70v-137q0 -25 9.5 -37t33.5 -12q10 0 26 3l4 -35q-17 -4 -45 -4q-39 0 -56 18t-17 60z" />
    <glyph glyph-name="Lslashsmall" unicode="&#xf6f9;" horiz-adv-x="500" 
d="M265 307l-110 -26v-201h300v-80h-390v259l-70 -17v55l70 17v266h90v-244l110 26v-55z" />
    <glyph glyph-name="OEsmall" unicode="&#xf6fa;" horiz-adv-x="960" 
d="M900 580v-80h-305v-165h260v-80h-260v-175h310v-80h-394v98q-49 -108 -186 -108q-143 0 -206.5 78t-63.5 227q0 146 63 220.5t207 74.5q139 0 188 -105v95h387zM325 515q-54 0 -89.5 -16t-53.5 -48t-25 -68.5t-7 -87.5q0 -52 7 -89.5t25 -71.5t54 -51.5t89 -17.5
q101 0 138 61t37 169q0 51 -7 87.5t-25 68.5t-54 48t-89 16z" />
    <glyph glyph-name="Scaronsmall" unicode="&#xf6fd;" horiz-adv-x="570" 
d="M200 760l85 -80l85 80h50l-108 -120h-55l-107 120h50zM265 254q-95 19 -142.5 55.5t-47.5 115.5q0 85 55 125t150 40q106 0 225 -35l-22 -75q-121 30 -201 30q-64 0 -88 -21t-24 -57q0 -16 4 -28.5t15.5 -22t19.5 -15.5t27.5 -11.5t27.5 -7.5t32.5 -6.5t30.5 -5.5
q91 -17 139.5 -57t48.5 -116q0 -87 -63 -129.5t-162 -42.5q-116 0 -235 35l21 75q121 -30 216 -30q66 0 97 25t31 62q0 20 -8.5 35t-19 23.5t-32 16t-36.5 11t-43 8.5q-11 2 -16 3z" />
    <glyph glyph-name="Zcaronsmall" unicode="&#xf6ff;" horiz-adv-x="520" 
d="M175 760l85 -80l85 80h50l-108 -120h-55l-107 120h50zM165 82v-2h315v-80h-440v70l308 428v2h-288v80h410v-70z" />
    <glyph glyph-name="dollaroldstyle" unicode="&#xf724;" horiz-adv-x="510" 
d="M252 211q-91 17 -139 51.5t-48 107.5q0 68 52 104t133 36q109 0 200 -38l-17 -67q-96 32 -178 32q-30 0 -51.5 -7.5t-31 -19t-13.5 -21t-4 -17.5q0 -27 22 -45t85 -31q45 -10 75 -20.5t59.5 -28t44 -45t14.5 -65.5q0 -67 -52.5 -107t-132.5 -40q-127 0 -215 37l16 68
q96 -33 189 -33q30 0 52.5 8t33 20.5t15 22.5t4.5 18q0 58 -113 80zM280 -130h-50v100h50v-100zM280 530h-50v100h50v-100z" />
    <glyph glyph-name="ampersandsmall" unicode="&#xf726;" horiz-adv-x="905" 
d="M615 145v90h-463q5 -78 47.5 -124t117.5 -46q66 0 151 32q2 -11 6 -35t6 -35q-86 -37 -175 -37q-114 0 -182 71.5t-68 188.5t66.5 188.5t178.5 71.5q58 0 99.5 -20.5t62 -54.5t28.5 -69t7 -74h118q2 35 5.5 104t5.5 104h79v-208h140v-57h-140v-65q0 -57 17 -82.5
t68 -25.5q16 0 51 5q2 -11 5 -34.5t4 -35.5q-47 -7 -90 -7q-78 0 -111.5 35.5t-33.5 119.5zM295 440q-61 0 -99.5 -41.5t-43.5 -106.5h254q12 59 -15.5 103.5t-95.5 44.5z" />
    <glyph glyph-name="zerooldstyle" unicode="&#xf730;" horiz-adv-x="590" 
d="M295 435q-69 0 -107 -51.5t-38 -133.5t38 -133.5t107 -51.5q68 0 106.5 51.5t38.5 133.5t-38.5 133.5t-106.5 51.5zM295 -10q-113 0 -176.5 71t-63.5 189t63.5 189t176.5 71q112 0 176 -71t64 -189t-64 -189t-176 -71z" />
    <glyph glyph-name="twooldstyle" unicode="&#xf732;" horiz-adv-x="590" 
d="M285 427q-93 0 -188 -39l-22 77q113 45 225 45q95 0 150 -44.5t55 -118.5q0 -51 -23.5 -92.5t-71 -73.5t-86.5 -51t-102 -45q-13 -5 -20 -8v-2l313 5v-80h-440v87q189 78 262 130t73 110q0 38 -23 62t-48.5 31t-53.5 7z" />
    <glyph glyph-name="questionsmall" unicode="&#xf73f;" horiz-adv-x="480" 
d="M240 610q102 0 148.5 -41t46.5 -104q0 -47 -19 -78t-46.5 -46.5t-54.5 -28t-46 -31t-19 -46.5v-25h-80v30q0 41 17.5 67.5t43 39t51 24t43 31t17.5 50.5q0 78 -122 78q-65 0 -154 -36l-21 67q102 49 195 49zM165 130h90v-130h-90v130z" />
    <glyph glyph-name="Asmall" unicode="&#xf761;" horiz-adv-x="610" 
d="M469 0l-51 140h-230l-53 -140h-100l219 585h107l214 -585h-106zM398 215l-93 252h-1l-96 -252h190z" />
    <glyph glyph-name="Bsmall" unicode="&#xf762;" horiz-adv-x="570" 
d="M394 300v-2q59 -9 95 -46t36 -97q0 -155 -200 -155h-260v580h255q90 0 137.5 -38t47.5 -107q0 -55 -30 -89t-81 -46zM300 260h-145v-180h155q120 0 120 90t-130 90zM410 417q0 83 -115 83h-140v-170h135q120 0 120 87z" />
    <glyph glyph-name="Csmall" unicode="&#xf763;" horiz-adv-x="585" 
d="M55 292q0 148 65.5 223t214.5 75q103 0 210 -35l-22 -75q-104 30 -186 30q-101 0 -144 -54t-43 -164q0 -113 42.5 -167.5t144.5 -54.5q87 0 186 30l22 -75q-101 -35 -210 -35q-149 0 -214.5 75.5t-65.5 226.5z" />
    <glyph glyph-name="Dsmall" unicode="&#xf764;" horiz-adv-x="610" 
d="M285 0h-220v580h220q140 0 205 -71.5t65 -213.5q0 -295 -270 -295zM155 80h125q100 0 140 53.5t40 161.5q0 106 -39.5 155.5t-140.5 49.5h-125v-420z" />
    <glyph glyph-name="Esmall" unicode="&#xf765;" horiz-adv-x="520" 
d="M460 580v-80h-305v-165h260v-80h-260v-175h310v-80h-400v580h395z" />
    <glyph glyph-name="Fsmall" unicode="&#xf766;" horiz-adv-x="495" 
d="M450 580v-80h-295v-185h250v-80h-250v-235h-90v580h385z" />
    <glyph glyph-name="Gsmall" unicode="&#xf767;" horiz-adv-x="610" 
d="M337 70q56 0 113 15v155h-110v65h200v-280q-98 -35 -205 -35q-149 0 -214.5 75.5t-65.5 226.5q0 148 65.5 223t214.5 75q103 0 210 -35l-22 -75q-104 30 -186 30q-101 0 -144 -54t-43 -164q0 -113 42.5 -167.5t144.5 -54.5z" />
    <glyph glyph-name="Hsmall" unicode="&#xf768;" 
d="M155 0h-90v580h90v-245h290v245h90v-580h-90v255h-290v-255z" />
    <glyph glyph-name="Ismall" unicode="&#xf769;" horiz-adv-x="220" 
d="M155 0h-90v580h90v-580z" />
    <glyph glyph-name="Jsmall" unicode="&#xf76a;" horiz-adv-x="330" 
d="M270 580v-410q0 -97 -40.5 -138.5t-119.5 -41.5q-46 0 -93 7l9 80q38 -5 59 -5q46 0 68 24t22 79v405h95z" />
    <glyph glyph-name="Ksmall" unicode="&#xf76b;" horiz-adv-x="587" 
d="M155 580v-293l278 293h112l-220 -238l225 -342h-114l-175 276l-106 -114v-162h-90v580h90z" />
    <glyph glyph-name="Lsmall" unicode="&#xf76c;" horiz-adv-x="500" 
d="M65 580h90v-500h300v-80h-390v580z" />
    <glyph glyph-name="Msmall" unicode="&#xf76d;" horiz-adv-x="760" 
d="M190 580l192 -433h2l186 433h125v-580h-90v431h-2l-191 -431h-70l-188 431h-2v-431h-87v580h125z" />
    <glyph glyph-name="Nsmall" unicode="&#xf76e;" horiz-adv-x="610" 
d="M152 0h-87v580h95l295 -433h2v433h88v-580h-95l-296 432h-2v-432z" />
    <glyph glyph-name="Osmall" unicode="&#xf76f;" horiz-adv-x="650" 
d="M325 515q-54 0 -89.5 -16t-53.5 -48t-25 -68.5t-7 -87.5q0 -52 7 -89.5t25 -71.5t54 -51.5t89 -17.5q101 0 138 61t37 169q0 51 -7 87.5t-25 68.5t-54 48t-89 16zM325 -10q-143 0 -206.5 78t-63.5 227q0 146 63 220.5t207 74.5q143 0 206.5 -74.5t63.5 -220.5
q0 -149 -63.5 -227t-206.5 -78z" />
    <glyph glyph-name="Psmall" unicode="&#xf770;" horiz-adv-x="560" 
d="M305 195h-150v-195h-90v580h240q100 0 155 -51t55 -142q0 -93 -54 -142.5t-156 -49.5zM155 500v-225h145q122 0 122 112q0 54 -32.5 83.5t-89.5 29.5h-145z" />
    <glyph glyph-name="Qsmall" unicode="&#xf771;" horiz-adv-x="650" 
d="M325 65q99 0 137 60.5t38 169.5q0 51 -7 87.5t-25 68.5t-54 48t-89 16q-54 0 -89.5 -16t-53.5 -48t-25 -68.5t-7 -87.5q0 -52 7 -89.5t25 -71.5t54 -51.5t89 -17.5zM305 -9q-134 5 -192 82t-58 222q0 146 63 220.5t207 74.5q143 0 206.5 -74.5t63.5 -220.5
q0 -270 -218 -283q13 -25 74.5 -34.5t128.5 -2.5v-75q-204 -24 -275 91z" />
    <glyph glyph-name="Rsmall" unicode="&#xf772;" horiz-adv-x="575" 
d="M537 0h-112l-147 195h-123v-195h-90v580h240q100 0 155 -51.5t55 -141.5q0 -73 -36.5 -119.5t-104.5 -57.5zM155 500v-225h145q122 0 122 112q0 55 -30.5 84t-86.5 29h-150z" />
    <glyph glyph-name="Ssmall" unicode="&#xf773;" horiz-adv-x="570" 
d="M265 254q-95 19 -142.5 55.5t-47.5 115.5q0 85 55 125t150 40q106 0 225 -35l-22 -75q-121 30 -201 30q-64 0 -88 -21t-24 -57q0 -16 4 -28.5t15.5 -22t19.5 -15.5t27.5 -11.5t27.5 -7.5t32.5 -6.5t30.5 -5.5q91 -17 139.5 -57t48.5 -116q0 -87 -63 -129.5t-162 -42.5
q-116 0 -235 35l21 75q121 -30 216 -30q66 0 97 25t31 62q0 20 -8.5 35t-19 23.5t-32 16t-36.5 11t-43 8.5q-11 2 -16 3z" />
    <glyph glyph-name="Tsmall" unicode="&#xf774;" horiz-adv-x="520" 
d="M475 500h-170v-500h-90v500h-170v80h430v-80z" />
    <glyph glyph-name="Usmall" unicode="&#xf775;" 
d="M65 230v350h90v-345q0 -30 1.5 -50t10 -45t23.5 -39.5t43.5 -25t68.5 -10.5q46 0 76.5 14t44 41t18 52.5t4.5 62.5v345h90v-345q0 -129 -58 -187t-177 -58q-118 0 -176.5 56t-58.5 184z" />
    <glyph glyph-name="Vsmall" unicode="&#xf776;" horiz-adv-x="610" 
d="M309 112h1l164 468h101l-214 -585h-107l-219 585h105z" />
    <glyph glyph-name="Wsmall" unicode="&#xf777;" horiz-adv-x="900" 
d="M445 430h-2l-118 -435h-113l-177 585h105l138 -467h1l117 467h102l128 -467h1l137 467h101l-178 -585h-122z" />
    <glyph glyph-name="Xsmall" unicode="&#xf778;" horiz-adv-x="620" 
d="M453 580h107l-200 -276l222 -304h-114l-166 228l-163 -228h-102l212 299l-194 281h106l148 -199z" />
    <glyph glyph-name="Ysmall" unicode="&#xf779;" horiz-adv-x="580" 
d="M291 286h2l148 294h104l-210 -400v-180h-90v180l-210 400h108z" />
    <glyph glyph-name="Zsmall" unicode="&#xf77a;" horiz-adv-x="520" 
d="M165 82v-2h315v-80h-440v70l308 428v2h-288v80h410v-70z" />
    <glyph glyph-name="centoldstyle" unicode="&#xf7a2;" horiz-adv-x="525" 
d="M307 435q-72 0 -114.5 -51t-42.5 -134t42.5 -134t114.5 -51q67 0 152 32l11 -70q-87 -37 -170 -37q-114 0 -179.5 71t-65.5 189t65.5 189t179.5 71q84 0 170 -38l-11 -70q-88 33 -152 33zM320 -130h-50v100h50v-100zM320 530h-50v100h50v-100z" />
    <glyph glyph-name="Agravesmall" unicode="&#xf7e0;" horiz-adv-x="610" 
d="M469 0l-51 140h-230l-53 -140h-100l219 585h107l214 -585h-106zM398 215l-93 252h-1l-96 -252h190zM278 630l-85 120h75l60 -120h-50z" />
    <glyph glyph-name="Aacutesmall" unicode="&#xf7e1;" horiz-adv-x="610" 
d="M469 0l-51 140h-230l-53 -140h-100l219 585h107l214 -585h-106zM398 215l-93 252h-1l-96 -252h190zM416 750l-85 -120h-50l60 120h75z" />
    <glyph glyph-name="Acircumflexsmall" unicode="&#xf7e2;" horiz-adv-x="610" 
d="M469 0l-51 140h-230l-53 -140h-100l219 585h107l214 -585h-106zM398 215l-93 252h-1l-96 -252h190zM305 710l-85 -80h-50l107 120h55l108 -120h-50z" />
    <glyph glyph-name="Atildesmall" unicode="&#xf7e3;" horiz-adv-x="610" 
d="M469 0l-51 140h-230l-53 -140h-100l219 585h107l214 -585h-106zM398 215l-93 252h-1l-96 -252h190zM250 685q-19 0 -34.5 -8.5t-45.5 -39.5l-29 23q50 82 106 82q26 0 71.5 -26t60.5 -26q34 0 65 46l24 -28q-36 -74 -89 -74q-19 0 -64.5 25.5t-64.5 25.5z" />
    <glyph glyph-name="Adieresissmall" unicode="&#xf7e4;" horiz-adv-x="610" 
d="M469 0l-51 140h-230l-53 -140h-100l219 585h107l214 -585h-106zM398 215l-93 252h-1l-96 -252h190zM142 750h75v-110h-75v110zM392 750h75v-110h-75v110z" />
    <glyph glyph-name="Aringsmall" unicode="&#xf7e5;" horiz-adv-x="610" 
d="M469 0l-51 140h-230l-53 -140h-100l219 585h107l214 -585h-106zM398 215l-93 252h-1l-96 -252h190zM228 690q0 32 22 53.5t55 21.5q32 0 54 -21.5t22 -53.5q0 -33 -21.5 -54t-54.5 -21t-55 21t-22 54zM259 690q0 -20 13 -34t33 -14q19 0 32.5 14t13.5 34t-13 33.5
t-33 13.5t-33 -13.5t-13 -33.5z" />
    <glyph glyph-name="AEsmall" unicode="&#xf7e6;" horiz-adv-x="886" 
d="M130 0h-95l347 580h444v-80h-305v-165h260v-80h-260v-175h310v-80h-400v212h-170zM299 287h132v213h-2z" />
    <glyph glyph-name="Ccedillasmall" unicode="&#xf7e7;" horiz-adv-x="585" 
d="M313 -75v66q-137 4 -197.5 79.5t-60.5 221.5q0 148 65.5 223t214.5 75q103 0 210 -35l-22 -75q-104 30 -186 30q-101 0 -144 -54t-43 -164q0 -113 42.5 -167.5t144.5 -54.5q87 0 186 30l22 -75q-96 -32 -197 -35v-45q84 -7 84 -72q0 -36 -26 -57t-72 -21q-35 0 -74 12
l6 30q28 -7 52 -7q30 0 43.5 14.5t13.5 32.5t-14.5 32t-47.5 16z" />
    <glyph glyph-name="Egravesmall" unicode="&#xf7e8;" horiz-adv-x="520" 
d="M460 580v-80h-305v-165h260v-80h-260v-175h310v-80h-400v580h395zM248 630l-85 120h75l60 -120h-50z" />
    <glyph glyph-name="Eacutesmall" unicode="&#xf7e9;" horiz-adv-x="520" 
d="M460 580v-80h-305v-165h260v-80h-260v-175h310v-80h-400v580h395zM375 750l-85 -120h-50l60 120h75z" />
    <glyph glyph-name="Ecircumflexsmall" unicode="&#xf7ea;" horiz-adv-x="520" 
d="M460 580v-80h-305v-165h260v-80h-260v-175h310v-80h-400v580h395zM260 710l-85 -80h-50l107 120h55l108 -120h-50z" />
    <glyph glyph-name="Edieresissmall" unicode="&#xf7eb;" horiz-adv-x="520" 
d="M460 580v-80h-305v-165h260v-80h-260v-175h310v-80h-400v580h395zM98 750h75v-110h-75v110zM348 750h75v-110h-75v110z" />
    <glyph glyph-name="Igravesmall" unicode="&#xf7ec;" horiz-adv-x="220" 
d="M155 0h-90v580h90v-580zM83 630l-85 120h75l60 -120h-50z" />
    <glyph glyph-name="Iacutesmall" unicode="&#xf7ed;" horiz-adv-x="220" 
d="M155 0h-90v580h90v-580zM221 750l-85 -120h-50l60 120h75z" />
    <glyph glyph-name="Icircumflexsmall" unicode="&#xf7ee;" horiz-adv-x="220" 
d="M155 0h-90v580h90v-580zM110 710l-85 -80h-50l107 120h55l108 -120h-50z" />
    <glyph glyph-name="Idieresissmall" unicode="&#xf7ef;" horiz-adv-x="220" 
d="M155 0h-90v580h90v-580zM-53 750h75v-110h-75v110zM197 750h75v-110h-75v110z" />
    <glyph glyph-name="Ntildesmall" unicode="&#xf7f1;" horiz-adv-x="610" 
d="M152 0h-87v580h95l295 -433h2v433h88v-580h-95l-296 432h-2v-432zM250 685q-19 0 -34.5 -8.5t-45.5 -39.5l-29 23q50 82 106 82q26 0 71.5 -26t60.5 -26q34 0 65 46l24 -28q-36 -74 -89 -74q-19 0 -64.5 25.5t-64.5 25.5z" />
    <glyph glyph-name="Ogravesmall" unicode="&#xf7f2;" horiz-adv-x="650" 
d="M325 515q-54 0 -89.5 -16t-53.5 -48t-25 -68.5t-7 -87.5q0 -52 7 -89.5t25 -71.5t54 -51.5t89 -17.5q101 0 138 61t37 169q0 51 -7 87.5t-25 68.5t-54 48t-89 16zM325 -10q-143 0 -206.5 78t-63.5 227q0 146 63 220.5t207 74.5q143 0 206.5 -74.5t63.5 -220.5
q0 -149 -63.5 -227t-206.5 -78zM299 630l-85 120h75l60 -120h-50z" />
    <glyph glyph-name="Oacutesmall" unicode="&#xf7f3;" horiz-adv-x="650" 
d="M325 515q-54 0 -89.5 -16t-53.5 -48t-25 -68.5t-7 -87.5q0 -52 7 -89.5t25 -71.5t54 -51.5t89 -17.5q101 0 138 61t37 169q0 51 -7 87.5t-25 68.5t-54 48t-89 16zM325 -10q-143 0 -206.5 78t-63.5 227q0 146 63 220.5t207 74.5q143 0 206.5 -74.5t63.5 -220.5
q0 -149 -63.5 -227t-206.5 -78zM429 750l-85 -120h-50l60 120h75z" />
    <glyph glyph-name="Ocircumflexsmall" unicode="&#xf7f4;" horiz-adv-x="650" 
d="M325 515q-54 0 -89.5 -16t-53.5 -48t-25 -68.5t-7 -87.5q0 -52 7 -89.5t25 -71.5t54 -51.5t89 -17.5q101 0 138 61t37 169q0 51 -7 87.5t-25 68.5t-54 48t-89 16zM325 -10q-143 0 -206.5 78t-63.5 227q0 146 63 220.5t207 74.5q143 0 206.5 -74.5t63.5 -220.5
q0 -149 -63.5 -227t-206.5 -78zM325 710l-85 -80h-50l107 120h55l108 -120h-50z" />
    <glyph glyph-name="Otildesmall" unicode="&#xf7f5;" horiz-adv-x="650" 
d="M325 515q-54 0 -89.5 -16t-53.5 -48t-25 -68.5t-7 -87.5q0 -52 7 -89.5t25 -71.5t54 -51.5t89 -17.5q101 0 138 61t37 169q0 51 -7 87.5t-25 68.5t-54 48t-89 16zM325 -10q-143 0 -206.5 78t-63.5 227q0 146 63 220.5t207 74.5q143 0 206.5 -74.5t63.5 -220.5
q0 -149 -63.5 -227t-206.5 -78zM270 685q-19 0 -34.5 -8.5t-45.5 -39.5l-29 23q50 82 106 82q26 0 71.5 -26t60.5 -26q34 0 65 46l24 -28q-36 -74 -89 -74q-19 0 -64.5 25.5t-64.5 25.5z" />
    <glyph glyph-name="Odieresissmall" unicode="&#xf7f6;" horiz-adv-x="650" 
d="M325 515q-54 0 -89.5 -16t-53.5 -48t-25 -68.5t-7 -87.5q0 -52 7 -89.5t25 -71.5t54 -51.5t89 -17.5q101 0 138 61t37 169q0 51 -7 87.5t-25 68.5t-54 48t-89 16zM325 -10q-143 0 -206.5 78t-63.5 227q0 146 63 220.5t207 74.5q143 0 206.5 -74.5t63.5 -220.5
q0 -149 -63.5 -227t-206.5 -78zM162 750h75v-110h-75v110zM412 750h75v-110h-75v110z" />
    <glyph glyph-name="Oslashsmall" unicode="&#xf7f8;" horiz-adv-x="650" 
d="M325 -10q-113 0 -176 52l-60 -75l-29 24l60 74q-65 75 -65 230q0 146 63 220.5t207 74.5q114 0 177 -52l59 73l29 -24l-59 -72q64 -71 64 -220t-63.5 -227t-206.5 -78zM325 515q-54 0 -89.5 -16t-53.5 -48t-25 -68.5t-7 -87.5q0 -104 31 -154l268 331q-41 43 -124 43z
M325 65q101 0 138 61t37 169q0 96 -30 144l-268 -331q41 -43 123 -43z" />
    <glyph glyph-name="Ugravesmall" unicode="&#xf7f9;" 
d="M65 230v350h90v-345q0 -30 1.5 -50t10 -45t23.5 -39.5t43.5 -25t68.5 -10.5q46 0 76.5 14t44 41t18 52.5t4.5 62.5v345h90v-345q0 -129 -58 -187t-177 -58q-118 0 -176.5 56t-58.5 184zM246 630l-85 120h75l60 -120h-50z" />
    <glyph glyph-name="Uacutesmall" unicode="&#xf7fa;" 
d="M65 230v350h90v-345q0 -30 1.5 -50t10 -45t23.5 -39.5t43.5 -25t68.5 -10.5q46 0 76.5 14t44 41t18 52.5t4.5 62.5v345h90v-345q0 -129 -58 -187t-177 -58q-118 0 -176.5 56t-58.5 184zM404 750l-85 -120h-50l60 120h75z" />
    <glyph glyph-name="Ucircumflexsmall" unicode="&#xf7fb;" 
d="M65 230v350h90v-345q0 -30 1.5 -50t10 -45t23.5 -39.5t43.5 -25t68.5 -10.5q46 0 76.5 14t44 41t18 52.5t4.5 62.5v345h90v-345q0 -129 -58 -187t-177 -58q-118 0 -176.5 56t-58.5 184zM300 710l-85 -80h-50l107 120h55l108 -120h-50z" />
    <glyph glyph-name="Udieresissmall" unicode="&#xf7fc;" 
d="M65 230v350h90v-345q0 -30 1.5 -50t10 -45t23.5 -39.5t43.5 -25t68.5 -10.5q46 0 76.5 14t44 41t18 52.5t4.5 62.5v345h90v-345q0 -129 -58 -187t-177 -58q-118 0 -176.5 56t-58.5 184zM137 750h75v-110h-75v110zM387 750h75v-110h-75v110z" />
    <glyph glyph-name="Yacutesmall" unicode="&#xf7fd;" horiz-adv-x="580" 
d="M291 286h2l148 294h104l-210 -400v-180h-90v180l-210 400h108zM402 750l-85 -120h-50l60 120h75z" />
    <glyph glyph-name="Ydieresissmall" unicode="&#xf7ff;" horiz-adv-x="580" 
d="M291 286h2l148 294h104l-210 -400v-180h-90v180l-210 400h108zM127 750h75v-110h-75v110zM377 750h75v-110h-75v110z" />
    <glyph glyph-name="longs_t" unicode="&#xfb05;" horiz-adv-x="615" 
d="M95 -65v609q0 84 33.5 120t111.5 36q37 0 80 -8l-9 -70q-26 5 -51 5q-43 0 -59 -23.5t-16 -74.5v-602q0 -72 -32 -104.5t-113 -32.5q-35 0 -80 7l8 70q37 -5 52 -5q44 0 59.5 16.5t15.5 56.5zM335 145v290h-75v59l75 6l11 140h79v-140h140v-65h-140v-275q0 -50 19 -74
t66 -24q16 0 51 5l9 -70q-47 -7 -90 -7q-78 0 -111.5 35.5t-33.5 119.5z" />
    <glyph glyph-name="cyrbreve" horiz-adv-x="399" 
d="M199 618q78 0 101 82h39q-20 -135 -140 -135q-58 0 -94 34.5t-45 100.5h38q25 -82 101 -82z" />
    <glyph glyph-name="undercommaaccent" horiz-adv-x="203" 
d="M99 -205h-29l18 85h-25v80h80v-80z" />
    <glyph glyph-name="dieresisacute" horiz-adv-x="500" 
d="M60 680h75v-110h-75v110zM365 680h75v-110h-75v110zM325 700l-85 -130h-50l60 130h75z" />
    <glyph glyph-name="dieresisgrave" horiz-adv-x="500" 
d="M365 680h75v-110h-75v110zM60 680h75v-110h-75v110zM260 570l-85 130h75l60 -130h-50z" />
    <glyph glyph-name="dblgrave" horiz-adv-x="355" 
d="M245 560l-70 120h60l60 -120h-50zM130 560l-70 120h60l60 -120h-50z" />
    <glyph glyph-name="cyrflex" horiz-adv-x="390" 
d="M195 640l-85 -80h-50l107 120h55l108 -120h-50z" />
    <glyph glyph-name="Acute" horiz-adv-x="255" 
d="M195 841l-85 -120h-50l60 120h75z" />
    <glyph glyph-name="Breve" horiz-adv-x="399" 
d="M199 788q78 0 101 82h39q-20 -135 -140 -135q-58 0 -94 34.5t-45 100.5h38q25 -82 101 -82z" />
    <glyph glyph-name="cyrBreve" horiz-adv-x="399" 
d="M199 788q78 0 101 82h39q-20 -135 -140 -135q-58 0 -94 34.5t-45 100.5h38q25 -82 101 -82z" />
    <glyph glyph-name="Caron" horiz-adv-x="390" 
d="M110 840l85 -80l85 80h50l-108 -120h-55l-107 120h50z" />
    <glyph glyph-name="Cedilla" horiz-adv-x="292" 
d="M113 -75v75h35v-55q84 -7 84 -72q0 -36 -26 -57t-72 -21q-35 0 -74 12l6 30q28 -7 51 -7q30 0 44 14.5t14 32.5t-14.5 32t-47.5 16z" />
    <glyph glyph-name="Circumflex" horiz-adv-x="390" 
d="M195 810l-85 -80h-50l107 120h55l108 -120h-50z" />
    <glyph glyph-name="commaaccent.cap" horiz-adv-x="203" 
d="M99 -205h-29l18 85h-25v80h80v-80z" />
    <glyph glyph-name="Dieresis" horiz-adv-x="445" 
d="M60 845h75v-110h-75v110zM310 845h75v-110h-75v110z" />
    <glyph glyph-name="DieresisAcute" horiz-adv-x="500" 
d="M60 850h75v-110h-75v110zM365 850h75v-110h-75v110zM325 870l-85 -130h-50l60 130h75z" />
    <glyph glyph-name="DieresisGrave" horiz-adv-x="500" 
d="M365 850h75v-110h-75v110zM60 850h75v-110h-75v110zM260 740l-85 130h75l60 -130h-50z" />
    <glyph glyph-name="Dotaccent" horiz-adv-x="200" 
d="M60 850h80v-110h-80v110z" />
    <glyph glyph-name="Hungarumlaut" horiz-adv-x="355" 
d="M180 850l-70 -120h-50l60 120h60zM295 850l-70 -120h-50l60 120h60z" />
    <glyph glyph-name="Grave" horiz-adv-x="255" 
d="M145 710l-85 120h75l60 -120h-50z" />
    <glyph glyph-name="dblGrave" horiz-adv-x="355" 
d="M245 730l-70 120h60l60 -120h-50zM130 730l-70 120h60l60 -120h-50z" />
    <glyph glyph-name="cyrFlex" horiz-adv-x="390" 
d="M195 810l-85 -80h-50l107 120h55l108 -120h-50z" />
    <glyph glyph-name="Macron" horiz-adv-x="430" 
d="M60 820h310v-55h-310v55z" />
    <glyph glyph-name="Ogonek" horiz-adv-x="299" 
d="M235 -148l4 -23q-37 -29 -90 -29q-38 0 -63.5 19t-25.5 53q0 68 85 128h46q-31 -24 -50.5 -54.5t-19.5 -56.5t15 -40t43 -14q22 0 56 17z" />
    <glyph glyph-name="Ring" horiz-adv-x="273" 
d="M60 790q0 32 22 53.5t55 21.5q32 0 54 -21.5t22 -53.5q0 -33 -21.5 -54t-54.5 -21t-55 21t-22 54zM91 790q0 -20 13 -34t33 -14q19 0 32.5 14t13.5 34t-13 33.5t-33 13.5t-33 -13.5t-13 -33.5z" />
    <glyph glyph-name="Tilde" horiz-adv-x="447" 
d="M169 785q-19 0 -34.5 -8.5t-45.5 -39.5l-29 23q50 82 106 82q26 0 71.5 -26t60.5 -26q34 0 65 46l24 -28q-36 -74 -89 -74q-19 0 -64.5 25.5t-64.5 25.5z" />
    <glyph glyph-name="Acutesmall" horiz-adv-x="255" 
d="M195 750l-85 -120h-50l60 120h75z" />
    <glyph glyph-name="Brevesmall" horiz-adv-x="399" 
d="M199 688q78 0 101 82h39q-20 -135 -140 -135q-58 0 -94 34.5t-45 100.5h38q25 -82 101 -82z" />
    <glyph glyph-name="Caronsmall" horiz-adv-x="390" 
d="M110 750l85 -80l85 80h50l-108 -120h-55l-107 120h50z" />
    <glyph glyph-name="Cedillasmall" horiz-adv-x="292" 
d="M113 -75v75h35v-55q84 -7 84 -72q0 -36 -26 -57t-72 -21q-35 0 -74 12l6 30q28 -7 51 -7q30 0 44 14.5t14 32.5t-14.5 32t-47.5 16z" />
    <glyph glyph-name="Circumflexsmall" horiz-adv-x="390" 
d="M195 710l-85 -80h-50l107 120h55l108 -120h-50z" />
    <glyph glyph-name="commaaccent.small" horiz-adv-x="203" 
d="M99 -205h-29l18 85h-25v80h80v-80z" />
    <glyph glyph-name="Dieresissmall" horiz-adv-x="445" 
d="M60 750h75v-110h-75v110zM310 750h75v-110h-75v110z" />
    <glyph glyph-name="DieresisAcute.small" horiz-adv-x="500" 
d="M60 750h75v-110h-75v110zM365 750h75v-110h-75v110zM325 770l-85 -130h-50l60 130h75z" />
    <glyph glyph-name="DieresisGrave.small" horiz-adv-x="500" 
d="M365 750h75v-110h-75v110zM60 750h75v-110h-75v110zM260 640l-85 130h75l60 -130h-50z" />
    <glyph glyph-name="Dotaccentsmall" horiz-adv-x="200" 
d="M60 750h80v-110h-80v110z" />
    <glyph glyph-name="Hungarumlautsmall" horiz-adv-x="355" 
d="M180 750l-70 -120h-50l60 120h60zM295 750l-70 -120h-50l60 120h60z" />
    <glyph glyph-name="Gravesmall" horiz-adv-x="255" 
d="M145 630l-85 120h75l60 -120h-50z" />
    <glyph glyph-name="dblGrave.small" horiz-adv-x="355" 
d="M245 630l-70 120h60l60 -120h-50zM130 630l-70 120h60l60 -120h-50z" />
    <glyph glyph-name="Macronsmall" horiz-adv-x="430" 
d="M60 720h310v-55h-310v55z" />
    <glyph glyph-name="Ogoneksmall" horiz-adv-x="299" 
d="M235 -148l4 -23q-37 -29 -90 -29q-38 0 -63.5 19t-25.5 53q0 68 85 128h46q-31 -24 -50.5 -54.5t-19.5 -56.5t15 -40t43 -14q22 0 56 17z" />
    <glyph glyph-name="Ringsmall" horiz-adv-x="273" 
d="M60 690q0 32 22 53.5t55 21.5q32 0 54 -21.5t22 -53.5q0 -33 -21.5 -54t-54.5 -21t-55 21t-22 54zM91 690q0 -20 13 -34t33 -14q19 0 32.5 14t13.5 34t-13 33.5t-33 13.5t-33 -13.5t-13 -33.5z" />
    <glyph glyph-name="Tildesmall" horiz-adv-x="447" 
d="M169 685q-19 0 -34.5 -8.5t-45.5 -39.5l-29 23q50 82 106 82q26 0 71.5 -26t60.5 -26q34 0 65 46l24 -28q-36 -74 -89 -74q-19 0 -64.5 25.5t-64.5 25.5z" />
    <glyph glyph-name="middot" horiz-adv-x="230" 
d="M75 370h80v-120h-80v120z" />
    <glyph glyph-name="Aogonek.small" horiz-adv-x="610" 
d="M305 467h-1l-96 -252h190zM505 0h-36l-51 140h-230l-53 -140h-100l219 585h107l214 -585q-43 -11 -68.5 -44.5t-25.5 -66.5q0 -54 57 -54q24 0 56 17l5 -23q-37 -29 -90 -29q-38 0 -64 19t-26 53q0 71 86 128z" />
    <glyph glyph-name="Dcroat.small" horiz-adv-x="610" 
d="M165 80h115q100 0 140 53.5t40 161.5q0 106 -39.5 155.5t-140.5 49.5h-115v-178h130v-55h-130v-187zM285 0h-210v267h-70v55h70v258h210q140 0 205 -71.5t65 -213.5q0 -295 -270 -295z" />
    <glyph glyph-name="Eogonek.small" horiz-adv-x="520" 
d="M508 -148l5 -23q-37 -29 -90 -29q-38 0 -64 19t-26 53q0 67 86 128h-354v580h395v-80h-305v-165h260v-80h-260v-175h310v-80q-31 -24 -50.5 -54.5t-19.5 -56.5q0 -54 57 -54q24 0 56 17z" />
    <glyph glyph-name="Hbar.small" horiz-adv-x="620" 
d="M5 497h70v83h90v-83h290v83h90v-83h70v-55h-70v-442h-90v255h-290v-255h-90v442h-70v55zM165 335h290v107h-290v-107z" />
    <glyph glyph-name="Iogonek.small" horiz-adv-x="220" 
d="M155 580v-580q-40 -11 -64.5 -45.5t-24.5 -65.5q0 -54 57 -54q24 0 56 17l5 -23q-37 -29 -90 -29q-38 0 -64 19t-26 53q0 35 24 69t63 59q-18 48 -26 72v508h90z" />
    <glyph glyph-name="IJ.small" horiz-adv-x="550" 
d="M155 0h-90v580h90v-580zM490 580v-410q0 -97 -40.5 -138.5t-119.5 -41.5q-46 0 -93 7l9 80q38 -5 59 -5q46 0 68 24t22 79v405h95z" />
    <glyph glyph-name="Scedilla.small" horiz-adv-x="570" 
d="M265 254q-95 19 -142.5 55.5t-47.5 115.5q0 85 55 125t150 40q106 0 225 -35l-22 -75q-121 30 -201 30q-64 0 -88 -21t-24 -57q0 -16 4 -28.5t15.5 -22t19.5 -15.5t27.5 -11.5t27.5 -7.5t32.5 -6.5t30.5 -5.5q91 -17 139.5 -57t48.5 -116q0 -84 -60 -127t-156 -45v-45
q83 -7 83 -72q0 -36 -25.5 -57t-71.5 -21q-36 0 -75 12l6 30q28 -7 53 -7q30 0 43.5 14.5t13.5 32.5t-15 32t-47 16v65q-107 5 -209 35l21 75q121 -30 216 -30q66 0 97 25t31 62q0 20 -8.5 35t-19 23.5t-32 16t-36.5 11t-43 8.5q-11 2 -16 3z" />
    <glyph glyph-name="Tbar.small" horiz-adv-x="520" 
d="M130 257h85v243h-170v80h430v-80h-170v-243h85v-55h-85v-202h-90v202h-85v55z" />
    <glyph glyph-name="Uogonek.small" 
d="M65 230v350h90v-345q0 -30 1.5 -50t10 -45t23.5 -39.5t43.5 -25t68.5 -10.5q46 0 76.5 14t44 41t18 52.5t4.5 62.5v345h90v-345q0 -124 -54 -182t-163 -63q-58 -51 -58 -101q0 -26 15 -40t43 -14q22 0 56 17l4 -23q-37 -29 -90 -29q-38 0 -63.5 19t-25.5 53q0 64 73 119
q-104 5 -155.5 61.5t-51.5 177.5z" />
    <glyph glyph-name="c_t" horiz-adv-x="855" 
d="M575 145v290h-75v59l75 6l11 140h79v-140h140v-65h-140v-275q0 -50 19 -74t66 -24q16 0 51 5l9 -70q-47 -7 -90 -7q-78 0 -111.5 35.5t-33.5 119.5zM45 250q0 260 245 260q78 0 170 -23l-17 -72q-80 20 -153 20q-76 0 -113 -49.5t-37 -135.5t37 -135.5t113 -49.5
q73 0 153 20l17 -73q-88 -22 -170 -22q-245 0 -245 260z" />
    <glyph glyph-name="s_p" horiz-adv-x="1025" 
d="M440 142q0 -74 -48 -113t-137 -39q-127 0 -215 22l16 73q92 -23 189 -23q60 0 82.5 25t22.5 49q0 27 -24.5 45t-88.5 30q-91 17 -139 51.5t-48 107.5q0 140 185 140q108 0 200 -23l-17 -72q-88 22 -178 22q-31 0 -53 -7.5t-31 -19t-12.5 -20.5t-3.5 -18q0 -27 22 -45
t85 -31q46 -10 75 -19.5t59 -27t44.5 -44t14.5 -63.5zM640 500v-50h2q60 60 153 60q185 0 185 -260q0 -118 -45.5 -189t-144.5 -71q-91 0 -148 57h-2v-247h-90v700h90zM885 250q0 185 -125 185q-69 0 -120 -43v-285q52 -42 120 -42q125 0 125 185z" />
    <glyph glyph-name="s_t" horiz-adv-x="860" 
d="M440 142q0 -74 -48 -113t-137 -39q-127 0 -215 22l16 73q92 -23 189 -23q60 0 82.5 25t22.5 49q0 27 -24.5 45t-88.5 30q-91 17 -139 51.5t-48 107.5q0 140 185 140q108 0 200 -23l-17 -72q-88 22 -178 22q-31 0 -53 -7.5t-31 -19t-12.5 -20.5t-3.5 -18q0 -27 22 -45
t85 -31q46 -10 75 -19.5t59 -27t44.5 -44t14.5 -63.5zM580 145v290h-75v59l75 6l11 140h79v-140h140v-65h-140v-275q0 -50 19 -74t66 -24q16 0 51 5l9 -70q-47 -7 -90 -7q-78 0 -111.5 35.5t-33.5 119.5z" />
    <glyph glyph-name="dsuperior" horiz-adv-x="305" 
d="M215 655v125h45v-351h-45v25h-1q-32 -29 -74 -29q-95 0 -95 130t92 130q47 0 77 -30h1zM92 555q0 -93 63 -93q33 0 60 22v142q-29 21 -60 21q-63 0 -63 -92z" />
    <glyph glyph-name="h.superior" horiz-adv-x="300" 
d="M90 619v-189h-45v350h45v-135h1q40 40 89 40q75 0 75 -83v-172h-45v162q0 55 -50 55q-32 0 -70 -28z" />
    <glyph glyph-name="Ethsmall" horiz-adv-x="610" 
d="M165 80h115q100 0 140 53.5t40 161.5q0 106 -39.5 155.5t-140.5 49.5h-115v-178h130v-55h-130v-187zM285 0h-210v267h-70v55h70v258h210q140 0 205 -71.5t65 -213.5q0 -295 -270 -295z" />
    <glyph glyph-name="Thornsmall" horiz-adv-x="560" 
d="M300 97h-145v-97h-90v580h90v-98h145q101 0 158 -51t57 -141q0 -93 -56.5 -143t-158.5 -50zM155 402v-225h145q122 0 122 113q0 53 -32.5 82.5t-89.5 29.5h-145z" />
    <glyph glyph-name="Eng.small" horiz-adv-x="610" 
d="M455 -65v65l-301 432h-2v-432h-87v580h95l295 -433h2v433h88v-653q0 -73 -32 -105t-113 -32q-34 0 -80 7l8 70q37 -5 52 -5q42 0 58.5 15.5t16.5 57.5z" />
    <glyph glyph-name="longs_h" horiz-adv-x="865" 
d="M480 677v-247h2q82 80 178 80q74 0 112 -42.5t38 -122.5v-345h-90v325q0 110 -100 110q-64 0 -140 -58v-377h-90v607q-51 20 -95 20q-64 0 -87 -26t-23 -77v-597q0 -72 -32 -104.5t-113 -32.5q-35 0 -80 7l8 70q37 -5 52 -5q44 0 59.5 16.5t15.5 56.5v589
q0 87 45.5 131.5t144.5 44.5q70 0 130 -23h65z" />
    <glyph glyph-name="longs_l" horiz-adv-x="535" 
d="M95 -65v589q0 87 45.5 131.5t144.5 44.5q70 0 130 -23h65v-677h-90v607q-51 20 -95 20q-64 0 -87 -26t-23 -77v-597q0 -72 -32 -104.5t-113 -32.5q-35 0 -80 7l8 70q37 -5 52 -5q44 0 59.5 16.5t15.5 56.5z" />
    <glyph glyph-name="longs_i" horiz-adv-x="480" 
d="M95 -65v609q0 84 33.5 120t111.5 36q37 0 80 -8l-9 -70q-26 5 -51 5q-43 0 -59 -23.5t-16 -74.5v-602q0 -72 -32 -104.5t-113 -32.5q-35 0 -80 7l8 70q37 -5 52 -5q44 0 59.5 16.5t15.5 56.5zM335 500h90v-500h-90v500z" />
    <glyph glyph-name="longs_longs" horiz-adv-x="615" 
d="M95 -65v609q0 84 33.5 120t111.5 36q37 0 80 -8l-9 -70q-26 5 -51 5q-43 0 -59 -23.5t-16 -74.5v-602q0 -72 -32 -104.5t-113 -32.5q-35 0 -80 7l8 70q37 -5 52 -5q44 0 59.5 16.5t15.5 56.5zM365 -65v609q0 84 33.5 120t111.5 36q37 0 80 -8l-9 -70q-26 5 -51 5
q-43 0 -59 -23.5t-16 -74.5v-602q0 -72 -32 -104.5t-113 -32.5q-34 0 -80 7l8 70q37 -5 52 -5q44 0 59.5 16.5t15.5 56.5z" />
    <glyph glyph-name="zero.slash" horiz-adv-x="590" 
d="M295 -10q-67 0 -114.5 25.5t-74.5 74.5t-39 111.5t-12 143.5q0 165 55 255t185 90q129 0 184.5 -90t55.5 -255q0 -168 -55.5 -261.5t-184.5 -93.5zM295 65q145 0 145 280q0 78 -17 133l-250 -315q35 -98 122 -98zM295 615q-43 0 -72.5 -21t-44.5 -60.5t-21.5 -84.5
t-6.5 -104q0 -83 15 -132l249 314q-35 88 -119 88z" />
    <glyph glyph-name="zero.fitted" 
d="M300 615q-43 0 -72.5 -21t-44.5 -60.5t-21.5 -84.5t-6.5 -104q0 -280 145 -280t145 280q0 270 -145 270zM300 -10q-70 0 -118.5 27.5t-74 78.5t-36.5 111t-11 138q0 76 11 134.5t36.5 108t74 76t118.5 26.5t118.5 -26.5t74 -76t36.5 -108t11 -134.5q0 -78 -11 -138
t-36.5 -111t-74.5 -78.5t-118 -27.5z" />
    <glyph glyph-name="one.fitted" 
d="M50 75h210v502l-167 -87l-24 75q146 65 216 120h65v-610h200v-75h-500v75z" />
    <glyph glyph-name="two.fitted" 
d="M275 607q-81 0 -168 -39l-27 72q114 50 215 50q105 0 160 -57.5t55 -145.5q0 -103 -74.5 -200t-228.5 -205v-2h313v-80h-440v87q335 221 335 380q0 44 -15 74t-39 43t-44.5 18t-41.5 5z" />
    <glyph glyph-name="three.fitted" 
d="M381 350v-2q70 -14 109.5 -59.5t39.5 -108.5q0 -91 -61 -140.5t-177 -49.5q-129 0 -222 47l28 70q83 -42 189 -42q46 0 78 12t46.5 32.5t20 38t5.5 37.5q0 55 -40.5 86t-121.5 31h-85v75h81q75 0 112 37t37 88q0 44 -30 78.5t-103 34.5q-86 0 -173 -42l-28 69
q99 48 216 48q95 0 151.5 -47t56.5 -131q0 -60 -35 -101t-94 -61z" />
    <glyph glyph-name="four.fitted" 
d="M143 250h222v312h-2q-74 -144 -220 -312zM342 680h113v-430h95v-75h-95v-175h-90v175h-315v75q197 215 292 430z" />
    <glyph glyph-name="five.fitted" 
d="M285 -10q-111 0 -215 50l27 69q92 -44 183 -44q72 0 113.5 40.5t41.5 109.5q0 58 -32 100t-103 42q-79 0 -130 -66l-66 6l16 383h370v-80h-292l-14 -228l2 -1q60 64 145 64q92 0 145.5 -56.5t53.5 -158.5q0 -111 -65.5 -170.5t-179.5 -59.5z" />
    <glyph glyph-name="six.fitted" 
d="M160 368l2 -1q29 40 71 64t89 24q98 0 153 -61.5t55 -173.5q0 -106 -62.5 -168t-159.5 -62q-66 0 -113.5 25.5t-74 70.5t-38.5 98t-12 116q0 109 22 187t62.5 121t89.5 62.5t110 19.5q74 0 155 -26l-12 -69q-77 20 -136 20q-51 0 -91 -23.5t-63 -61t-35 -79t-12 -83.5z
M167 296q-12 -231 135 -231q56 0 94.5 41t38.5 114q0 39 -10 71.5t-42 58.5t-84 26q-75 0 -132 -80z" />
    <glyph glyph-name="seven.fitted" 
d="M406 598v2h-311v80h410v-65q-93 -154 -158.5 -303.5t-91.5 -311.5h-100q21 135 94 303t157 295z" />
    <glyph glyph-name="eight.fitted" 
d="M381 359v-2q78 -34 118.5 -75.5t40.5 -104.5q0 -89 -66.5 -138t-176.5 -49q-108 0 -172.5 46t-64.5 132q0 119 158 177v2q-138 58 -138 169q0 81 63 127.5t159 46.5q93 0 155.5 -46t62.5 -124q0 -58 -35 -94t-104 -67zM152 177q0 -51 36.5 -85.5t114.5 -34.5
q75 0 109.5 32t34.5 81q0 29 -12.5 51.5t-42.5 40.5t-47 25.5t-58 23.5q-135 -48 -135 -134zM297 622q-48 0 -87.5 -25.5t-39.5 -79.5q0 -86 140 -126q120 42 120 121q0 57 -40.5 83.5t-92.5 26.5z" />
    <glyph glyph-name="nine.fitted" 
d="M440 312l-2 1q-65 -88 -161 -88q-97 0 -152 61.5t-55 173.5q0 106 62 168t160 62q66 0 113.5 -25.5t74 -70.5t38.5 -98t12 -116q0 -109 -22 -187t-62.5 -121t-89.5 -62.5t-110 -19.5q-78 0 -155 25l11 70q77 -20 136 -20q51 0 91 23.5t63 61t35 79t13 83.5zM432 383
q12 232 -135 232q-56 0 -94 -41t-38 -114q0 -40 10 -72.5t42 -58.5t84 -26q74 0 131 80z" />
    <glyph glyph-name="oneoldstyle" horiz-adv-x="370" 
d="M215 397l-166 -87l-24 75q146 65 215 120h65v-505h-90v397z" />
    <glyph glyph-name="threeoldstyle" horiz-adv-x="570" 
d="M366 170v-2q70 -14 109.5 -59.5t39.5 -108.5q0 -91 -61 -140.5t-177 -49.5q-129 0 -222 47l28 70q83 -42 189 -42q46 0 78 12t46.5 32.5t20 38t5.5 37.5q0 55 -40.5 86t-121.5 31h-85v75h81q75 0 112 37t37 88q0 44 -30 78.5t-103 34.5q-86 0 -173 -42l-28 69
q99 48 216 48q95 0 151.5 -47t56.5 -131q0 -60 -35 -101t-94 -61z" />
    <glyph glyph-name="fouroldstyle" 
d="M138 75h222v330h-2q-95 -186 -220 -330zM337 505h113v-430h95v-75h-95v-170h-90v170h-315v75q197 215 292 430z" />
    <glyph glyph-name="fiveoldstyle" horiz-adv-x="570" 
d="M270 -190q-111 0 -215 50l27 69q92 -44 183 -44q72 0 113.5 40.5t41.5 109.5q0 58 -32 100t-103 42q-79 0 -130 -66l-66 6l16 383h370v-80h-292l-14 -228l2 -1q60 64 145 64q92 0 145.5 -56.5t53.5 -158.5q0 -111 -65.5 -170.5t-179.5 -59.5z" />
    <glyph glyph-name="sixoldstyle" horiz-adv-x="570" 
d="M145 368l2 -1q29 40 71 64t89 24q98 0 153 -61.5t55 -173.5q0 -106 -62.5 -168t-159.5 -62q-66 0 -113.5 25.5t-74 70.5t-38.5 98t-12 116q0 109 22 187t62.5 121t89.5 62.5t110 19.5q74 0 155 -26l-12 -69q-77 20 -136 20q-51 0 -91 -23.5t-63 -61t-35 -79t-12 -83.5z
M152 296q-12 -231 135 -231q56 0 94.5 41t38.5 114q0 39 -10 71.5t-42 58.5t-84 26q-75 0 -132 -80z" />
    <glyph glyph-name="sevenoldstyle" horiz-adv-x="500" 
d="M356 418v2h-311v80h410v-65q-93 -154 -158.5 -303.5t-91.5 -311.5h-100q21 135 94 303t157 295z" />
    <glyph glyph-name="eightoldstyle" horiz-adv-x="590" 
d="M376 359v-2q78 -34 118.5 -75.5t40.5 -104.5q0 -89 -66.5 -138t-176.5 -49q-108 0 -172.5 46t-64.5 132q0 119 158 177v2q-138 58 -138 169q0 81 63 127.5t159 46.5q93 0 155.5 -46t62.5 -124q0 -58 -35 -94t-104 -67zM147 177q0 -51 36.5 -85.5t114.5 -34.5
q75 0 109.5 32t34.5 81q0 29 -12.5 51.5t-42.5 40.5t-47 25.5t-58 23.5q-135 -48 -135 -134zM292 622q-48 0 -87.5 -25.5t-39.5 -79.5q0 -86 140 -126q120 42 120 121q0 57 -40.5 83.5t-92.5 26.5z" />
    <glyph glyph-name="nineoldstyle" horiz-adv-x="570" 
d="M425 132l-2 1q-65 -88 -161 -88q-97 0 -152 61.5t-55 173.5q0 106 62 168t160 62q66 0 113.5 -25.5t74 -70.5t38.5 -98t12 -116q0 -109 -22 -187t-62.5 -121t-89.5 -62.5t-110 -19.5q-78 0 -155 25l11 70q77 -20 136 -20q51 0 91 23.5t63 61t35 79t13 83.5zM417 203
q12 232 -135 232q-56 0 -94 -41t-38 -114q0 -40 10 -72.5t42 -58.5t84 -26q74 0 131 80z" />
    <glyph glyph-name="zero.taboldstyle" 
d="M300 435q-69 0 -107 -51.5t-38 -133.5t38 -133.5t107 -51.5q68 0 106.5 51.5t38.5 133.5t-38.5 133.5t-106.5 51.5zM300 -10q-113 0 -176.5 71t-63.5 189t63.5 189t176.5 71q112 0 176 -71t64 -189t-64 -189t-176 -71z" />
    <glyph glyph-name="one.taboldstyle" 
d="M50 75h210v322l-167 -87l-24 75q146 65 216 120h65v-430h200v-75h-500v75z" />
    <glyph glyph-name="two.taboldstyle" 
d="M290 427q-93 0 -188 -39l-22 77q113 45 225 45q95 0 150 -44.5t55 -118.5q0 -51 -23.5 -92.5t-71 -73.5t-86.5 -51t-102 -45q-13 -5 -20 -8v-2l313 5v-80h-440v87q189 78 262 130t73 110q0 38 -23 62t-48.5 31t-53.5 7z" />
    <glyph glyph-name="three.taboldstyle" 
d="M381 170v-2q70 -14 109.5 -59.5t39.5 -108.5q0 -91 -61 -140.5t-177 -49.5q-129 0 -222 47l28 70q83 -42 189 -42q46 0 78 12t46.5 32.5t20 38t5.5 37.5q0 55 -40.5 86t-121.5 31h-85v75h81q75 0 112 37t37 88q0 44 -30 78.5t-103 34.5q-86 0 -173 -42l-28 69
q99 48 216 48q95 0 151.5 -47t56.5 -131q0 -60 -35 -101t-94 -61z" />
    <glyph glyph-name="four.taboldstyle" 
d="M143 75h222v330h-2q-95 -186 -220 -330zM342 505h113v-430h95v-75h-95v-170h-90v170h-315v75q197 215 292 430z" />
    <glyph glyph-name="five.taboldstyle" 
d="M285 -190q-111 0 -215 50l27 69q92 -44 183 -44q72 0 113.5 40.5t41.5 109.5q0 58 -32 100t-103 42q-79 0 -130 -66l-66 6l16 383h370v-80h-292l-14 -228l2 -1q60 64 145 64q92 0 145.5 -56.5t53.5 -158.5q0 -111 -65.5 -170.5t-179.5 -59.5z" />
    <glyph glyph-name="six.taboldstyle" 
d="M160 368l2 -1q29 40 71 64t89 24q98 0 153 -61.5t55 -173.5q0 -106 -62.5 -168t-159.5 -62q-66 0 -113.5 25.5t-74 70.5t-38.5 98t-12 116q0 109 22 187t62.5 121t89.5 62.5t110 19.5q74 0 155 -26l-12 -69q-77 20 -136 20q-51 0 -91 -23.5t-63 -61t-35 -79t-12 -83.5z
M167 296q-12 -231 135 -231q56 0 94.5 41t38.5 114q0 39 -10 71.5t-42 58.5t-84 26q-75 0 -132 -80z" />
    <glyph glyph-name="seven.taboldstyle" 
d="M406 418v2h-311v80h410v-65q-93 -154 -158.5 -303.5t-91.5 -311.5h-100q21 135 94 303t157 295z" />
    <glyph glyph-name="eight.taboldstyle" 
d="M381 359v-2q78 -34 118.5 -75.5t40.5 -104.5q0 -89 -66.5 -138t-176.5 -49q-108 0 -172.5 46t-64.5 132q0 119 158 177v2q-138 58 -138 169q0 81 63 127.5t159 46.5q93 0 155.5 -46t62.5 -124q0 -58 -35 -94t-104 -67zM152 177q0 -51 36.5 -85.5t114.5 -34.5
q75 0 109.5 32t34.5 81q0 29 -12.5 51.5t-42.5 40.5t-47 25.5t-58 23.5q-135 -48 -135 -134zM297 622q-48 0 -87.5 -25.5t-39.5 -79.5q0 -86 140 -126q120 42 120 121q0 57 -40.5 83.5t-92.5 26.5z" />
    <glyph glyph-name="nine.taboldstyle" 
d="M440 132l-2 1q-65 -88 -161 -88q-97 0 -152 61.5t-55 173.5q0 106 62 168t160 62q66 0 113.5 -25.5t74 -70.5t38.5 -98t12 -116q0 -109 -22 -187t-62.5 -121t-89.5 -62.5t-110 -19.5q-78 0 -155 25l11 70q77 -20 136 -20q51 0 91 23.5t63 61t35 79t13 83.5zM432 203
q12 232 -135 232q-56 0 -94 -41t-38 -114q0 -40 10 -72.5t42 -58.5t84 -26q74 0 131 80z" />
    <glyph glyph-name="currency.taboldstyle" horiz-adv-x="513" 
d="M100 249q0 68 48 114l-78 90l8 8l79 -90q44 36 100 36q55 0 99 -36l78 90l9 -8l-78 -89q50 -47 50 -115t-49 -114l76 -86l-9 -9l-77 87q-43 -35 -99 -35q-57 0 -100 35l-76 -87l-9 9l76 86q-48 46 -48 114zM112 249q0 -59 43 -102t102 -43t102.5 43t43.5 102t-43.5 102.5
t-102.5 43.5t-102 -43.5t-43 -102.5z" />
    <glyph glyph-name="cent.taboldstyle" 
d="M345 435q-73 0 -115.5 -51t-42.5 -134t42.5 -134t115.5 -51q68 0 151 32l11 -70q-87 -37 -170 -37q-113 0 -179 71.5t-66 188.5t66 188.5t179 71.5q84 0 170 -38l-11 -70q-86 33 -151 33zM357 -130h-50v100h50v-100zM357 530h-50v100h50v-100z" />
    <glyph glyph-name="dollar.taboldstyle" 
d="M297 211q-91 17 -139 51.5t-48 107.5q0 68 52 104t133 36q109 0 200 -38l-17 -67q-96 32 -178 32q-30 0 -51.5 -7.5t-31 -19t-13.5 -21t-4 -17.5q0 -27 22 -45t85 -31q45 -10 75 -20.5t59.5 -28t44 -45t14.5 -65.5q0 -67 -52.5 -107t-132.5 -40q-127 0 -215 37l16 68
q96 -33 189 -33q30 0 52.5 8t33 20.5t15 22.5t4.5 18q0 58 -113 80zM325 -130h-50v100h50v-100zM325 530h-50v100h50v-100z" />
    <glyph glyph-name="Euro.taboldstyle" 
d="M67 310h55q17 92 80 146t160 54q84 0 170 -38l-11 -70q-86 33 -151 33q-58 0 -97 -34.5t-52 -90.5h126v-30h-133q-2 -10 -2 -30q0 -21 2 -30h133v-30h-126q13 -57 52 -91t97 -34q68 0 151 32l11 -70q-87 -37 -170 -37q-98 0 -160.5 53.5t-79.5 146.5h-55v30h51
q-1 10 -1 31q0 20 1 29h-51v30z" />
    <glyph glyph-name="franc.taboldstyle" 
d="M67 310h55q17 92 80 146t160 54q84 0 170 -38l-11 -70q-86 33 -151 33q-58 0 -97 -34.5t-52 -90.5h126v-30h-133q-2 -10 -2 -30q0 -21 2 -30h133v-30h-126q13 -57 52 -91t97 -34q68 0 151 32l11 -70q-87 -37 -170 -37q-98 0 -160.5 53.5t-79.5 146.5h-55v30h51
q-1 10 -1 31q0 20 1 29h-51v30z" />
    <glyph glyph-name="sterling.taboldstyle" 
d="M340 225h-140v-145h320v-80h-460v80h50v145h-50v55h50v67q0 84 60 123.5t155 39.5q122 0 215 -58l-28 -67q-96 50 -192 50q-65 0 -92.5 -26t-27.5 -64v-65h140v-55z" />
    <glyph glyph-name="yen.taboldstyle" 
d="M358 205h107v-45h-120v-160h-90v160h-120v45h106l-176 295h108l128 -234h2l128 234h104z" />
    <glyph glyph-name="lira.taboldstyle" 
d="M67 310h55q17 92 80 146t160 54q84 0 170 -38l-11 -70q-86 33 -151 33q-58 0 -97 -34.5t-52 -90.5h126v-30h-133q-2 -10 -2 -30q0 -21 2 -30h133v-30h-126q13 -57 52 -91t97 -34q68 0 151 32l11 -70q-87 -37 -170 -37q-98 0 -160.5 53.5t-79.5 146.5h-55v30h51
q-1 10 -1 31q0 20 1 29h-51v30z" />
    <glyph glyph-name="peseta.taboldstyle" 
d="M67 310h55q17 92 80 146t160 54q84 0 170 -38l-11 -70q-86 33 -151 33q-58 0 -97 -34.5t-52 -90.5h126v-30h-133q-2 -10 -2 -30q0 -21 2 -30h133v-30h-126q13 -57 52 -91t97 -34q68 0 151 32l11 -70q-87 -37 -170 -37q-98 0 -160.5 53.5t-79.5 146.5h-55v30h51
q-1 10 -1 31q0 20 1 29h-51v30z" />
    <glyph glyph-name="colonmonetary.taboldstyle" 
d="M345 435q-73 0 -115.5 -51t-42.5 -134t42.5 -134t115.5 -51q68 0 151 32l11 -70q-87 -37 -170 -37q-113 0 -179 71.5t-66 188.5t66 188.5t179 71.5q84 0 170 -38l-11 -70q-86 33 -151 33zM297 -130h-50v100h50v-100zM297 530h-50v100h50v-100zM407 -130h-50v100h50v-100z
M407 530h-50v100h50v-100z" />
    <glyph glyph-name="florin.taboldstyle" 
d="M255 -40v475h-75v59l75 6v44q0 84 33.5 120t111.5 36q37 0 80 -8l-9 -70q-26 5 -51 5q-43 0 -59 -23.5t-16 -74.5v-29h130v-65h-130v-475q0 -89 -32.5 -129.5t-112.5 -40.5q-34 0 -80 7l8 70q37 -5 52 -5q43 0 59 23.5t16 74.5z" />
    <glyph glyph-name="numbersign.taboldstyle" 
d="M191 500h65l-13 -115h140l13 115h65l-13 -115h100l-6 -60h-100l-16 -150h100l-6 -60h-100l-12 -115h-65l12 115h-140l-12 -115h-65l12 115h-100l6 60h100l16 150h-100l6 60h100zM237 325l-16 -150h140l16 150h-140z" />
    <glyph glyph-name="hyphensuperior" horiz-adv-x="286" 
d="M45 730h196v-40h-196v40z" />
    <glyph glyph-name="commasuperior" horiz-adv-x="157" 
d="M84 465h-39q20 42 20 131h47q0 -92 -28 -131z" />
    <glyph glyph-name="periodsuperior" horiz-adv-x="137" 
d="M45 596h47v-66h-47v66z" />
    <glyph glyph-name="centsuperior" horiz-adv-x="356" 
d="M199 825q-52 0 -77 -35t-25 -92q0 -59 25 -96.5t77 -37.5q49 0 95 36l17 -37q-51 -43 -120 -43q-73 0 -109.5 50t-36.5 128q0 76 36.5 124t109.5 48q67 0 120 -42l-17 -39q-46 36 -95 36zM204 440h-26v60h26v-60zM204 890h-26v60h26v-60z" />
    <glyph glyph-name="dollarsuperior" horiz-adv-x="341" 
d="M187 440h-26v60h26v-60zM187 890h-26v60h26v-60zM160 676q-105 28 -105 103q0 46 32.5 68.5t85.5 22.5q67 0 116 -30l-20 -39q-47 24 -96 24q-66 0 -66 -46q0 -39 87 -61q102 -24 102 -98q0 -48 -35 -74t-91 -26q-77 0 -125 38l22 36q47 -30 106 -30q33 0 52 14.5
t19 39.5q0 38 -78 57q-4 1 -6 1z" />
    <glyph glyph-name="hypheninferior" horiz-adv-x="286" 
d="M45 0h196v-40h-196v40z" />
    <glyph glyph-name="commainferior" horiz-adv-x="157" 
d="M84 -265h-39q20 42 20 131h47q0 -92 -28 -131z" />
    <glyph glyph-name="periodinferior" horiz-adv-x="137" 
d="M45 -134h47v-66h-47v66z" />
    <glyph glyph-name="centinferior" horiz-adv-x="356" 
d="M199 95q-52 0 -77 -35t-25 -92q0 -59 25 -96.5t77 -37.5q49 0 95 36l17 -37q-51 -43 -120 -43q-73 0 -109.5 50t-36.5 128q0 76 36.5 124t109.5 48q67 0 120 -42l-17 -39q-46 36 -95 36zM204 -290h-26v60h26v-60zM204 160h-26v60h26v-60z" />
    <glyph glyph-name="dollarinferior" horiz-adv-x="341" 
d="M187 -290h-26v60h26v-60zM187 160h-26v60h26v-60zM160 -54q-105 28 -105 103q0 46 32.5 68.5t85.5 22.5q67 0 116 -30l-20 -39q-47 24 -96 24q-66 0 -66 -46q0 -39 87 -61q102 -24 102 -98q0 -48 -35 -74t-91 -26q-77 0 -125 38l22 36q47 -30 106 -30q33 0 52 14.5
t19 39.5q0 38 -78 57q-4 1 -6 1z" />
    <glyph glyph-name="zero.denominator" horiz-adv-x="331" 
d="M166 301q-71 0 -71 -133q0 -139 71 -139t71 139q0 133 -71 133zM166 -10q-121 0 -121 178q0 172 121 172q120 0 120 -172q0 -178 -120 -178z" />
    <glyph glyph-name="one.denominator" horiz-adv-x="301" 
d="M39 39h100v250q-54 -28 -82 -42l-12 36q73 32 108 60h33v-304h100v-39h-247v39z" />
    <glyph glyph-name="two.denominator" horiz-adv-x="311" 
d="M143 302q-35 0 -84 -24l-14 37q57 30 111 30q51 0 78 -29t27 -73q0 -51 -37 -99t-113 -101v-1h155v-42h-221v45q167 111 167 188q0 28 -13.5 45t-27 20.5t-28.5 3.5z" />
    <glyph glyph-name="three.denominator" horiz-adv-x="321" 
d="M202 170q35 -8 54.5 -31t19.5 -54q0 -46 -30.5 -70.5t-88.5 -24.5q-68 0 -112 29l14 36q50 -26 97 -26q39 0 55.5 17t16.5 38q0 61 -80 61h-42v39h40q37 0 55 18.5t18 43.5q0 21 -14.5 38t-46.5 17q-38 0 -90 -27l-15 37q52 29 109 29q47 0 75.5 -23.5t28.5 -65.5
q0 -59 -64 -81z" />
    <glyph glyph-name="four.denominator" horiz-adv-x="341" 
d="M94 126h108v152q-37 -68 -108 -152zM190 340h59v-214h47v-40h-47v-86h-47v86h-157v40q98 107 145 214z" />
    <glyph glyph-name="five.denominator" horiz-adv-x="321" 
d="M155 -10q-53 0 -110 30l14 36q54 -27 93 -27q32 0 53.5 20t21.5 53q0 29 -16 49.5t-50 20.5q-40 0 -65 -32l-34 3l8 192h186v-42h-145l-7 -111h1q29 31 72 31q46 0 72.5 -28.5t26.5 -79.5q0 -53 -33 -84t-88 -31z" />
    <glyph glyph-name="six.denominator" horiz-adv-x="321" 
d="M92 179h1q31 43 79 43q49 0 76.5 -30.5t27.5 -86.5q0 -53 -31 -84t-81 -31q-63 0 -91 43.5t-28 111.5q0 195 142 195q40 0 78 -16l-6 -36q-39 13 -68 13q-48 0 -73 -37.5t-26 -84.5zM96 143q-8 -114 65 -114q28 0 46.5 20t18.5 56q0 76 -66 76q-37 0 -64 -38z" />
    <glyph glyph-name="seven.denominator" horiz-adv-x="316" 
d="M220 297v1h-175v42h226v-34q-33 -55 -53 -93.5t-42 -97.5t-31 -115h-50q11 67 47 150.5t78 146.5z" />
    <glyph glyph-name="eight.denominator" horiz-adv-x="331" 
d="M208 175q38 -20 58 -40.5t20 -50.5q0 -45 -33 -69.5t-89 -24.5q-54 0 -86.5 23t-32.5 66q0 60 78 88q-68 32 -68 85q0 41 32 64.5t80 23.5q46 0 77.5 -23t31.5 -62q0 -29 -17 -47t-51 -33zM93 83q0 -25 19 -41.5t55 -16.5q37 0 54 15.5t17 39.5q1 26 -19.5 40.5
t-59.5 28.5q-66 -23 -66 -66zM165 305q-24 0 -43.5 -12.5t-19.5 -39.5q0 -42 69 -62q58 22 58 60q0 27 -20 40.5t-44 13.5z" />
    <glyph glyph-name="nine.denominator" horiz-adv-x="321" 
d="M229 150h-1q-32 -42 -79 -42q-49 0 -76.5 30.5t-27.5 86.5q0 53 31 84t81 31q63 0 91 -44t28 -111q0 -195 -142 -195q-39 0 -78 15l6 37q35 -13 68 -13q47 0 72.5 37.5t26.5 83.5zM225 187q8 114 -65 114q-28 0 -46.5 -20.5t-18.5 -55.5q0 -77 66 -77q37 0 64 39z" />
    <glyph glyph-name="parenleft.denominator" horiz-adv-x="208" 
d="M45 160q0 131 86 240h32q-71 -118 -71 -240q0 -119 71 -240h-32q-86 109 -86 240z" />
    <glyph glyph-name="parenright.denominator" horiz-adv-x="208" 
d="M163 160q0 -131 -86 -240h-32q71 121 71 240q0 122 -71 240h32q86 -109 86 -240z" />
    <glyph glyph-name="cent.denominator" horiz-adv-x="356" 
d="M199 295q-52 0 -77 -35t-25 -92q0 -59 25 -96.5t77 -37.5q49 0 95 36l17 -37q-51 -43 -120 -43q-73 0 -109.5 50t-36.5 128q0 76 36.5 124t109.5 48q67 0 120 -42l-17 -39q-46 36 -95 36zM204 -90h-26v60h26v-60zM204 360h-26v60h26v-60z" />
    <glyph glyph-name="dollar.denominator" horiz-adv-x="341" 
d="M187 -90h-26v60h26v-60zM187 360h-26v60h26v-60zM160 146q-105 28 -105 103q0 46 32.5 68.5t85.5 22.5q67 0 116 -30l-20 -39q-47 24 -96 24q-66 0 -66 -46q0 -39 87 -61q102 -24 102 -98q0 -48 -35 -74t-91 -26q-77 0 -125 38l22 36q47 -30 106 -30q33 0 52 14.5
t19 39.5q0 38 -78 57q-4 1 -6 1z" />
    <glyph glyph-name="hyphen.denominator" horiz-adv-x="286" 
d="M45 200h196v-40h-196v40z" />
    <glyph glyph-name="comma.denominator" horiz-adv-x="157" 
d="M84 -65h-39q20 42 20 131h47q0 -92 -28 -131z" />
    <glyph glyph-name="period.denominator" horiz-adv-x="137" 
d="M45 66h47v-66h-47v66z" />
    <glyph glyph-name="zero.numerator" horiz-adv-x="331" 
d="M166 631q-71 0 -71 -133q0 -139 71 -139t71 139q0 133 -71 133zM166 320q-121 0 -121 178q0 172 121 172q120 0 120 -172q0 -178 -120 -178z" />
    <glyph glyph-name="one.numerator" horiz-adv-x="301" 
d="M39 369h100v250q-54 -28 -82 -42l-12 36q73 32 108 60h33v-304h100v-39h-247v39z" />
    <glyph glyph-name="two.numerator" horiz-adv-x="311" 
d="M143 632q-35 0 -84 -24l-14 37q57 30 111 30q51 0 78 -29t27 -73q0 -51 -37 -99t-113 -101v-1h155v-42h-221v45q167 111 167 188q0 28 -13.5 45t-27 20.5t-28.5 3.5z" />
    <glyph glyph-name="three.numerator" horiz-adv-x="321" 
d="M202 500q35 -8 54.5 -31t19.5 -54q0 -46 -30.5 -70.5t-88.5 -24.5q-68 0 -112 29l14 36q50 -26 97 -26q39 0 55.5 17t16.5 38q0 61 -80 61h-42v39h40q37 0 55 18.5t18 43.5q0 21 -14.5 38t-46.5 17q-38 0 -90 -27l-15 37q52 29 109 29q47 0 75.5 -23.5t28.5 -65.5
q0 -59 -64 -81z" />
    <glyph glyph-name="four.numerator" horiz-adv-x="341" 
d="M94 456h108v152q-37 -68 -108 -152zM190 670h59v-214h47v-40h-47v-86h-47v86h-157v40q98 107 145 214z" />
    <glyph glyph-name="five.numerator" horiz-adv-x="321" 
d="M155 320q-53 0 -110 30l14 36q54 -27 93 -27q32 0 53.5 20t21.5 53q0 29 -16 49.5t-50 20.5q-40 0 -65 -32l-34 3l8 192h186v-42h-145l-7 -111h1q29 31 72 31q46 0 72.5 -28.5t26.5 -79.5q0 -53 -33 -84t-88 -31z" />
    <glyph glyph-name="six.numerator" horiz-adv-x="321" 
d="M92 509h1q31 43 79 43q49 0 76.5 -30.5t27.5 -86.5q0 -53 -31 -84t-81 -31q-63 0 -91 43.5t-28 111.5q0 195 142 195q40 0 78 -16l-6 -36q-39 13 -68 13q-48 0 -73 -37.5t-26 -84.5zM96 473q-8 -114 65 -114q28 0 46.5 20t18.5 56q0 76 -66 76q-37 0 -64 -38z" />
    <glyph glyph-name="seven.numerator" horiz-adv-x="316" 
d="M220 627v1h-175v42h226v-34q-33 -55 -53 -93.5t-42 -97.5t-31 -115h-50q11 67 47 150.5t78 146.5z" />
    <glyph glyph-name="eight.numerator" horiz-adv-x="331" 
d="M208 505q38 -20 58 -40.5t20 -50.5q0 -45 -33 -69.5t-89 -24.5q-54 0 -86.5 23t-32.5 66q0 60 78 88q-68 32 -68 85q0 41 32 64.5t80 23.5q46 0 77.5 -23t31.5 -62q0 -29 -17 -47t-51 -33zM93 413q0 -25 19 -41.5t55 -16.5q37 0 54 15.5t17 39.5q1 26 -19.5 40.5
t-59.5 28.5q-66 -23 -66 -66zM165 635q-24 0 -43.5 -12.5t-19.5 -39.5q0 -42 69 -62q58 22 58 60q0 27 -20 40.5t-44 13.5z" />
    <glyph glyph-name="nine.numerator" horiz-adv-x="321" 
d="M229 480h-1q-32 -42 -79 -42q-49 0 -76.5 30.5t-27.5 86.5q0 53 31 84t81 31q63 0 91 -44t28 -111q0 -195 -142 -195q-39 0 -78 15l6 37q35 -13 68 -13q47 0 72.5 37.5t26.5 83.5zM225 517q8 114 -65 114q-28 0 -46.5 -20.5t-18.5 -55.5q0 -77 66 -77q37 0 64 39z" />
    <glyph glyph-name="parenleft.numerator" horiz-adv-x="208" 
d="M45 490q0 131 86 240h32q-71 -118 -71 -240q0 -119 71 -240h-32q-86 109 -86 240z" />
    <glyph glyph-name="parenright.numerator" horiz-adv-x="208" 
d="M163 490q0 -131 -86 -240h-32q71 121 71 240q0 122 -71 240h32q86 -109 86 -240z" />
    <glyph glyph-name="cent.numerator" horiz-adv-x="356" 
d="M199 625q-52 0 -77 -35t-25 -92q0 -59 25 -96.5t77 -37.5q49 0 95 36l17 -37q-51 -43 -120 -43q-73 0 -109.5 50t-36.5 128q0 76 36.5 124t109.5 48q67 0 120 -42l-17 -39q-46 36 -95 36zM204 240h-26v60h26v-60zM204 690h-26v60h26v-60z" />
    <glyph glyph-name="dollar.numerator" horiz-adv-x="341" 
d="M187 240h-26v60h26v-60zM187 690h-26v60h26v-60zM160 476q-105 28 -105 103q0 46 32.5 68.5t85.5 22.5q67 0 116 -30l-20 -39q-47 24 -96 24q-66 0 -66 -46q0 -39 87 -61q102 -24 102 -98q0 -48 -35 -74t-91 -26q-77 0 -125 38l22 36q47 -30 106 -30q33 0 52 14.5
t19 39.5q0 38 -78 57q-4 1 -6 1z" />
    <glyph glyph-name="hyphen.numerator" horiz-adv-x="286" 
d="M45 530h196v-40h-196v40z" />
    <glyph glyph-name="comma.numerator" horiz-adv-x="157" 
d="M84 265h-39q20 42 20 131h47q0 -92 -28 -131z" />
    <glyph glyph-name="period.numerator" horiz-adv-x="137" 
d="M45 396h47v-66h-47v66z" />
    <glyph glyph-name="exclamsmall" horiz-adv-x="200" 
d="M55 130h90v-130h-90v130zM55 580h90l-5 -365h-80z" />
    <glyph glyph-name="exclamdownsmall" horiz-adv-x="200" 
d="M145 450h-90v130h90v-130zM145 0h-90l5 365h80z" />
    <glyph glyph-name="at.cap" horiz-adv-x="830" 
d="M566 412v-213q49 0 85.5 20t55 52.5t27 65.5t8.5 66q0 124 -89 200t-219 76q-152 0 -249 -96t-97 -250q0 -140 89.5 -231t226.5 -91l-5 -51q-161 0 -265 106t-104 267q0 174 114.5 286.5t289.5 112.5q154 0 260 -91.5t106 -234.5q0 -112 -64.5 -186t-181.5 -74h-60v39h-1
q-47 -46 -122 -46q-57 0 -90.5 31t-33.5 82q0 120 164 120h83v36q0 39 -19 58.5t-66 19.5q-53 0 -128 -22l-13 48q87 29 159 29q69 0 104 -29t35 -100zM494 226v103h-81q-51 0 -73 -18t-22 -53q0 -30 21 -47t58 -17q58 0 97 32z" />
    <glyph glyph-name="parenleft.cap" horiz-adv-x="330" 
d="M62 340q0 124 45 249.5t128 230.5h60q-143 -236 -143 -480q0 -237 143 -480h-60q-82 105 -127.5 231t-45.5 249z" />
    <glyph glyph-name="parenright.cap" horiz-adv-x="330" 
d="M267 340q0 -124 -45 -249.5t-127 -230.5h-60q142 244 142 480q0 243 -142 480h60q82 -105 127 -230t45 -250z" />
    <glyph glyph-name="bracketleft.cap" horiz-adv-x="300" 
d="M150 -85h115v-55h-210v960h210v-55h-115v-850z" />
    <glyph glyph-name="bracketright.cap" horiz-adv-x="300" 
d="M35 -85h115v850h-115v55h210v-960h-210v55z" />
    <glyph glyph-name="braceleft.cap" horiz-adv-x="340" 
d="M210 10q0 -39 7 -63t23.5 -33.5t28.5 -11.5t36 -2v-40q-46 0 -76.5 5t-58.5 19t-41.5 44.5t-13.5 77.5q0 31 5 95.5t5 93.5q0 31 -1.5 45.5t-7.5 33.5t-21 28t-40 13v50q25 4 40 13t21 28t7.5 33.5t1.5 45.5q0 29 -5 93.5t-5 95.5q0 47 13.5 77.5t41.5 44.5t58.5 19
t76.5 5v-40q-24 0 -36 -2t-28.5 -11.5t-23.5 -33.5t-7 -63q0 -30 6 -105t6 -106q0 -55 -23 -81t-68 -37v-2q45 -11 68 -37t23 -81q0 -31 -6 -106t-6 -105z" />
    <glyph glyph-name="braceright.cap" horiz-adv-x="340" 
d="M130 670q0 39 -7.5 63t-23.5 33.5t-28.5 11.5t-35.5 2v40q46 0 76.5 -5t58.5 -19t41.5 -44.5t13.5 -77.5q0 -31 -5 -95.5t-5 -93.5q0 -31 1.5 -45.5t7.5 -33.5t21 -28t40 -13v-50q-25 -4 -40 -13t-21 -28t-7.5 -33.5t-1.5 -45.5q0 -29 5 -93.5t5 -95.5q0 -47 -13.5 -77.5
t-41.5 -44.5t-58.5 -19t-76.5 -5v40q24 0 36 2t28.5 11.5t23.5 33.5t7 63q0 30 -6 105t-6 106q0 55 23 81t67 37v2q-44 11 -67 37t-23 81q0 31 6 106t6 105z" />
    <glyph glyph-name="exclamdown.cap" horiz-adv-x="200" 
d="M55 130h90v-130h-90v130zM55 680h90l-5 -465h-80z" />
    <glyph glyph-name="questiondown.cap" horiz-adv-x="480" 
d="M240 -10q-56 0 -96.5 16t-61 43t-29 55.5t-8.5 60.5q0 49 19 86t46.5 58.5t54.5 39.5t46 40.5t19 50.5v30h80v-30q0 -41 -18 -71.5t-43 -50t-50.5 -38.5t-43.5 -45.5t-18 -60.5q0 -99 123 -99q64 0 149 31l26 -78q-97 -38 -195 -38zM315 550h-90v130h90v-130z" />
    <glyph glyph-name="guillemotleft.cap" horiz-adv-x="665" 
d="M55 317l270 168v-81l-175 -114l175 -114v-81l-270 167v55zM340 317l270 168v-81l-175 -114l175 -114v-81l-270 167v55z" />
    <glyph glyph-name="guillemotright.cap" horiz-adv-x="665" 
d="M340 485l270 -168v-55l-270 -167v81l175 114l-175 114v81zM55 485l270 -168v-55l-270 -167v81l175 114l-175 114v81z" />
    <glyph glyph-name="guilsinglleft.cap" horiz-adv-x="380" 
d="M55 317l270 168v-81l-175 -114l175 -114v-81l-270 167v55z" />
    <glyph glyph-name="guilsinglright.cap" horiz-adv-x="380" 
d="M325 262l-270 -167v81l175 114l-175 114v81l270 -168v-55z" />
    <glyph glyph-name="hyphen.cap" horiz-adv-x="500" 
d="M55 342h390v-75h-390v75z" />
    <glyph glyph-name="endash.cap" horiz-adv-x="695" 
d="M55 342h585v-75h-585v75z" />
    <glyph glyph-name="emdash.cap" horiz-adv-x="760" 
d="M55 342h650v-75h-650v75z" />
    <glyph glyph-name="periodcentered.cap" horiz-adv-x="230" 
d="M75 370h80v-120h-80v120z" />
    <glyph glyph-name="questiondownsmall" horiz-adv-x="480" 
d="M240 0q-102 0 -148.5 41t-46.5 104q0 47 19 78t46.5 46.5t54.5 28t46 31t19 46.5v25h80v-30q0 -41 -18 -67.5t-43 -39.5t-50.5 -24t-43.5 -31t-18 -51q0 -77 123 -77q65 0 154 36l21 -68q-106 -48 -195 -48zM315 480h-90v130h90v-130z" />
    <glyph glyph-name="percent.oldstyle" horiz-adv-x="760" 
d="M595 580l-370 -580h-60l370 580h60zM181 306q-66 0 -101 37t-35 102q0 66 35 103t101 37q65 0 100.5 -37.5t35.5 -102.5t-35.5 -102t-100.5 -37zM181 353q78 0 78 92q0 93 -78 93q-79 0 -79 -93q0 -92 79 -92zM579 -5q-66 0 -101 37t-35 102q0 66 35 103t101 37
q65 0 100.5 -37.5t35.5 -102.5t-35.5 -102t-100.5 -37zM579 42q78 0 78 92q0 93 -78 93q-79 0 -79 -93q0 -92 79 -92z" />
    <glyph glyph-name="perthousand.oldstyle" horiz-adv-x="1080" 
d="M579 -5q-66 0 -101 37t-35 102q0 66 35 103t101 37q65 0 100.5 -37.5t35.5 -102.5t-35.5 -102t-100.5 -37zM579 42q78 0 78 92q0 93 -78 93q-79 0 -79 -93q0 -92 79 -92zM899 -5q-66 0 -101 37t-35 102q0 66 35 103t101 37q65 0 100.5 -37.5t35.5 -102.5t-35.5 -102
t-100.5 -37zM899 42q78 0 78 92q0 93 -78 93q-79 0 -79 -93q0 -92 79 -92zM595 580l-370 -580h-60l370 580h60zM181 306q-66 0 -101 37t-35 102q0 66 35 103t101 37q65 0 100.5 -37.5t35.5 -102.5t-35.5 -102t-100.5 -37zM181 353q78 0 78 92q0 93 -78 93q-79 0 -79 -93
q0 -92 79 -92z" />
    <glyph glyph-name="threequartersemdash" horiz-adv-x="760" 
d="M55 302h650v-75h-650v75z" />
    <glyph glyph-name="overscore" horiz-adv-x="430" 
d="M60 650h310v-55h-310v55z" />
    <glyph glyph-name="ampersand.alt" horiz-adv-x="840" 
d="M550 220h-221h-49q-26 0 -51 -5.5t-47 -23.5t-22 -46q0 -80 120 -80q79 0 157 30l12 -70q-91 -35 -189 -35q-99 0 -152 36t-53 104q0 100 130 123v2q-51 12 -80.5 43t-29.5 82q0 130 195 130q96 0 180 -35q-2 -11 -6 -35t-6 -35q-78 30 -156 30q-112 0 -112 -75
q0 -10 4 -20.5t14 -24t34 -22t58 -8.5h270q2 36 5.5 108t5.5 107h79v-215h140v-58h-140v-67q0 -50 19 -74t66 -24q16 0 51 5q2 -11 5 -34.5t4 -35.5q-47 -7 -90 -7q-78 0 -111.5 35.5t-33.5 119.5v75z" />
    <glyph glyph-name="y.alt" horiz-adv-x="530" 
d="M385 20v50h-2q-80 -80 -178 -80q-74 0 -112 42.5t-38 122.5v345h90v-325q0 -110 100 -110q62 0 140 57v378h90v-480q0 -111 -57 -170.5t-188 -59.5q-82 0 -170 22l16 73q80 -20 154 -20q80 0 117.5 36.5t37.5 118.5z" />
    <glyph glyph-name="yacute.alt" horiz-adv-x="530" 
d="M375 680l-85 -120h-50l60 120h75zM385 20v50h-2q-80 -80 -178 -80q-74 0 -112 42.5t-38 122.5v345h90v-325q0 -110 100 -110q62 0 140 57v378h90v-480q0 -111 -57 -170.5t-188 -59.5q-82 0 -170 22l16 73q80 -20 154 -20q80 0 117.5 36.5t37.5 118.5z" />
    <glyph glyph-name="ydieresis.alt" horiz-adv-x="530" 
d="M385 20v50h-2q-80 -80 -178 -80q-74 0 -112 42.5t-38 122.5v345h90v-325q0 -110 100 -110q62 0 140 57v378h90v-480q0 -111 -57 -170.5t-188 -59.5q-82 0 -170 22l16 73q80 -20 154 -20q80 0 117.5 36.5t37.5 118.5zM102 680h75v-110h-75v110zM352 680h75v-110h-75v110z
" />
    <glyph glyph-name="ycircumflex.alt" horiz-adv-x="530" 
d="M385 20v50h-2q-80 -80 -178 -80q-74 0 -112 42.5t-38 122.5v345h90v-325q0 -110 100 -110q62 0 140 57v378h90v-480q0 -111 -57 -170.5t-188 -59.5q-82 0 -170 22l16 73q80 -20 154 -20q80 0 117.5 36.5t37.5 118.5zM265 640l-85 -80h-50l107 120h55l108 -120h-50z" />
    <glyph glyph-name="ygrave.alt" horiz-adv-x="530" 
d="M243 560l-85 120h75l60 -120h-50zM385 20v50h-2q-80 -80 -178 -80q-74 0 -112 42.5t-38 122.5v345h90v-325q0 -110 100 -110q62 0 140 57v378h90v-480q0 -111 -57 -170.5t-188 -59.5q-82 0 -170 22l16 73q80 -20 154 -20q80 0 117.5 36.5t37.5 118.5z" />
    </font>
</defs>
</svg>
